<svg width="74" height="25" viewBox="0 0 74 25" fill="none" xmlns="http://www.w3.org/2000/svg">
<g clip-path="url(#clip0_24_1184)">
<path d="M8.22211 12.5378L12.8495 6.34599H10.9221C10.0595 6.34599 9.50059 6.65118 9.04447 7.25993L6.59822 10.5334L4.23874 7.25993C3.78097 6.65118 3.22363 6.34599 2.35949 6.34599H0.432065L5.00007 12.5378L0 19.2887H1.82784C2.69037 19.2887 3.24772 18.9835 3.70548 18.3747L6.59665 14.5424L13.3732 23.9081C13.8036 24.5168 14.3882 24.8204 15.2508 24.8204H17.2296L8.22211 12.5378ZM45.1982 19.2839H47.8115V6.34599H45.1982V19.2839ZM24.4639 19.2839H27.0788V6.34599H24.4639V19.2839ZM64.1047 23.8518L73.5638 6.34599H72.1421C71.2796 6.34599 70.6191 6.5998 70.2645 7.25993L66.5415 14.1874L63.3176 7.25993C62.9964 6.57407 62.3025 6.34599 61.44 6.34599H60.0715L65.0507 16.9035L60.714 24.8204H62.1339C63.0124 24.8204 63.724 24.5425 64.1047 23.8566V23.8518ZM30.1964 6.34599V19.2887H32.8097V10.4064C33.6224 9.26441 34.7901 8.55447 36.2357 8.55447C38.1631 8.55447 39.485 9.77197 39.485 12.2086V18.0455C39.4759 18.2089 39.5011 18.3724 39.5588 18.5257C39.6164 18.6788 39.7053 18.8184 39.8198 18.9353C39.9343 19.0522 40.072 19.1441 40.2239 19.2049C40.3759 19.2657 40.5389 19.2943 40.7024 19.2887H42.0982V11.7508C42.0982 8.40191 39.9668 6.06651 36.8701 6.06651C35.3678 6.04061 33.9133 6.59526 32.8097 7.61487V6.34599H30.1964ZM52.6557 14.6982C52.6557 17.5155 54.3808 19.5168 57.4743 19.5168C58.1177 19.5249 58.7589 19.4395 59.3776 19.263L58.8508 16.9789C58.4596 17.0662 58.0598 17.1088 57.659 17.1059C56.3901 17.1059 55.2722 16.4216 55.2722 14.6452V8.675H58.9279L57.8614 6.34599H55.2722V1.14354L52.659 2.28555V6.34599H49.8931V8.675H52.659L52.6557 14.6982ZM16.4201 8.675V19.2758H19.0334V8.675H22.3839V6.34599H19.0334V5.38228C19.0334 3.17377 20.3536 2.43813 21.6466 2.43813C21.9473 2.4369 22.2465 2.47965 22.5349 2.56502L23.0681 0.255319C22.5466 0.073175 21.9964 -0.0128113 21.4442 0.0015413C18.1965 0.0015413 16.4201 2.41083 16.4201 5.33088V6.34599H15.0484L13.3988 8.675H16.4201Z" fill="black"/>
</g>
<defs>
<clipPath id="clip0_24_1184">
<rect width="73.6842" height="25" fill="white"/>
</clipPath>
</defs>
</svg>
