<svg width="105" height="26" viewBox="0 0 105 26" fill="none" xmlns="http://www.w3.org/2000/svg">
<g clip-path="url(#clip0_11_389)">
<path d="M24.7189 12.2214H4.33412C3.81506 12.2214 3.39038 11.7967 3.39038 11.2777V9.83847C3.39038 8.21052 4.71161 6.88928 6.33956 6.88928H22.6898C24.3178 6.88928 25.639 8.21052 25.639 9.83847V11.2777C25.6626 11.7967 25.2379 12.2214 24.7189 12.2214Z" fill="black"/>
<path d="M20.425 5.33212H8.62822C8.10916 5.33212 7.66089 4.90744 7.66089 4.36479C7.66089 1.95826 9.61915 0 12.0257 0H17.0275C19.434 0 21.3923 1.95826 21.3923 4.36479C21.3923 4.90744 20.9676 5.33212 20.425 5.33212Z" fill="black"/>
<path d="M25.6627 13.7786H3.39043C1.92763 13.7786 0.724365 14.9818 0.724365 16.4446C0.724365 17.9074 1.92763 19.1107 3.39043 19.1107H11.2942C11.5774 17.6007 12.8986 16.4446 14.5029 16.4446C16.1073 16.4446 17.4521 17.6007 17.7353 19.1107H25.6391C27.1019 19.1107 28.3051 17.9074 28.3051 16.4446C28.3051 14.9818 27.1255 13.7786 25.6627 13.7786Z" fill="black"/>
<path d="M24.6954 20.6678H17.7825V26H22.973C24.4358 26 25.6391 24.7967 25.6391 23.3339V21.6352C25.6627 21.1161 25.238 20.6678 24.6954 20.6678Z" fill="black"/>
<path d="M4.33428 20.6678C3.81522 20.6678 3.36694 21.0925 3.36694 21.6352V23.3339C3.36694 24.7967 4.57021 26 6.03301 26H11.2236V20.6678C11.2472 20.6678 4.33428 20.6678 4.33428 20.6678Z" fill="black"/>
<path d="M49.4212 14.8639C49.4212 17.7659 47.4158 19.6297 44.7969 19.6297C43.5465 19.6297 42.5555 19.2287 41.8949 18.4265V19.4882H39.3232V6.72412H42.0129V11.2305C42.6971 10.4755 43.6408 10.098 44.7969 10.098C47.3922 10.098 49.4212 11.9619 49.4212 14.8639ZM46.6844 14.8639C46.6844 13.2595 45.6699 12.2922 44.3251 12.2922C42.9802 12.2922 41.9657 13.2595 41.9657 14.8639C41.9657 16.4682 42.9802 17.4356 44.3251 17.4356C45.6699 17.4356 46.6844 16.4682 46.6844 14.8639Z" fill="black"/>
<path d="M58.1979 16.5862L59.6371 18.1434C58.7877 19.1343 57.4901 19.6298 55.815 19.6298C52.6063 19.6298 50.53 17.6243 50.53 14.8639C50.53 12.1035 52.6298 10.098 55.4847 10.098C58.1035 10.098 60.2505 11.8203 60.2741 14.7931L53.4084 16.1144C53.8095 17.0345 54.6589 17.4828 55.8622 17.4828C56.8531 17.4828 57.5609 17.1997 58.1979 16.5862ZM53.1489 14.5808L57.6553 13.7078C57.3957 12.7641 56.5935 12.1271 55.4611 12.1271C54.1398 12.1271 53.1961 13.0236 53.1489 14.5808Z" fill="black"/>
<path d="M69.0509 16.5862L70.4901 18.1434C69.6408 19.1343 68.3431 19.6298 66.668 19.6298C63.4593 19.6298 61.3831 17.6243 61.3831 14.8639C61.3831 12.1035 63.4829 10.098 66.3377 10.098C68.9566 10.098 71.1036 11.8203 71.1272 14.7931L64.2851 16.1144C64.6861 17.0345 65.5355 17.4828 66.7388 17.4828C67.7061 17.4828 68.4139 17.1997 69.0509 16.5862ZM64.0019 14.5808L68.5083 13.7078C68.2488 12.7641 67.4466 12.1271 66.3141 12.1271C64.9929 12.1271 64.0727 13.0236 64.0019 14.5808Z" fill="black"/>
<path d="M82.405 14.2033V19.5118H79.7153V14.6043C79.7153 13.118 79.0311 12.4101 77.8278 12.4101C76.5302 12.4101 75.6101 13.2123 75.6101 14.9111V19.4882H72.9204V6.72412H75.6101V11.2069C76.3415 10.4755 77.3796 10.098 78.5592 10.098C80.7534 10.098 82.405 11.372 82.405 14.2033Z" fill="black"/>
<path d="M84.5046 7.43198C84.5046 6.58261 85.1889 5.922 86.1798 5.922C87.1707 5.922 87.8549 6.53543 87.8549 7.3612C87.8549 8.25775 87.1707 8.91837 86.1798 8.91837C85.1889 8.91837 84.5046 8.28134 84.5046 7.43198ZM84.8349 10.2396H87.5246V19.5118H84.8349C84.8349 19.4882 84.8349 10.2396 84.8349 10.2396Z" fill="black"/>
<path d="M89.6953 7.43198C89.6953 6.58261 90.3795 5.922 91.3705 5.922C92.3614 5.922 93.0456 6.53543 93.0456 7.3612C93.0456 8.25775 92.3614 8.91837 91.3705 8.91837C90.3795 8.91837 89.6953 8.28134 89.6953 7.43198ZM90.0256 10.2396H92.7153V19.5118H90.0256C90.0256 19.4882 90.0256 10.2396 90.0256 10.2396Z" fill="black"/>
<path d="M104.394 10.2396L100.477 19.5119H97.6935L93.8005 10.2396H96.5846L99.1563 16.5391L101.799 10.2396C101.822 10.2396 104.394 10.2396 104.394 10.2396Z" fill="black"/>
</g>
<defs>
<clipPath id="clip0_11_389">
<rect width="103.67" height="26" fill="white" transform="translate(0.724365)"/>
</clipPath>
</defs>
</svg>
