<svg width="151" height="33" viewBox="0 0 151 33" fill="none" xmlns="http://www.w3.org/2000/svg">
<g clip-path="url(#clip0_11_369)">
<path d="M20.6003 7.67641L20.5777 7.66311L20.5254 7.64709C20.5465 7.66491 20.5728 7.67522 20.6003 7.67641Z" fill="black"/>
<path d="M20.6093 7.67264C20.6063 7.67226 20.6033 7.67155 20.6005 7.67053C20.6003 7.6725 20.6003 7.67447 20.6005 7.67644C20.6037 7.67603 20.6068 7.67471 20.6093 7.67264Z" fill="black"/>
<path d="M20.6003 7.67672H20.6038V7.67456L20.6003 7.67672Z" fill="black"/>
<path d="M20.9097 10.0297L20.9478 10.008L20.962 9.99998L20.9749 9.98621C20.9507 9.99665 20.9286 10.0114 20.9097 10.0297Z" fill="black"/>
<path d="M20.6663 7.72785L20.629 7.69236L20.6038 7.67859C20.6173 7.70259 20.6398 7.72026 20.6663 7.72785Z" fill="black"/>
<path d="M11.2943 30.6052C11.2646 30.6181 11.2385 30.6383 11.2185 30.6638L11.242 30.6487C11.258 30.6341 11.2806 30.6168 11.2943 30.6052Z" fill="black"/>
<path d="M16.7364 29.5332C16.7364 29.4995 16.72 29.5057 16.724 29.6256C16.724 29.6158 16.728 29.606 16.7298 29.5967C16.732 29.5754 16.7338 29.5545 16.7364 29.5332Z" fill="black"/>
<path d="M16.172 30.6052C16.1423 30.6181 16.1162 30.6383 16.0962 30.6638L16.1197 30.6487C16.1357 30.6341 16.1583 30.6168 16.172 30.6052Z" fill="black"/>
<path d="M7.4619 30.8601C7.4393 30.8404 7.41165 30.8275 7.38208 30.8228C7.40602 30.8343 7.42995 30.8458 7.44591 30.8547L7.4619 30.8601Z" fill="black"/>
<path d="M6.59935 30.0332C6.59585 29.9982 6.58513 29.9643 6.56787 29.9337C6.58011 29.9656 6.59033 29.9982 6.59849 30.0314L6.59935 30.0332Z" fill="black"/>
<path d="M2.23999 9.96277L2.26039 9.98189L2.27369 9.98988C2.26345 9.97968 2.25215 9.97058 2.23999 9.96277Z" fill="black"/>
<path d="M12.3923 15.2444C11.2084 15.7519 9.86472 16.3272 8.12338 16.3272C7.3949 16.3258 6.66995 16.2257 5.96826 16.0298L7.17265 28.4093C7.21525 28.9268 7.45071 29.4092 7.83221 29.7609C8.21371 30.1126 8.71337 30.3077 9.23195 30.3077C9.23195 30.3077 10.9396 30.3965 11.5094 30.3965C12.1227 30.3965 13.9617 30.3077 13.9617 30.3077C14.4802 30.3076 14.9797 30.1124 15.3611 29.7608C15.7425 29.4091 15.9779 28.9267 16.0205 28.4093L17.3105 14.7295C16.734 14.5323 16.1522 14.4014 15.4964 14.4014C14.3621 14.4009 13.4481 14.7921 12.3923 15.2444Z" fill="black"/>
<path d="M22.8799 8.82018L22.6986 7.90431C22.5358 7.08257 22.1665 6.30611 21.3239 6.00907C21.0539 5.91408 20.7474 5.87324 20.5404 5.67658C20.3333 5.47992 20.2721 5.17446 20.2242 4.89123C20.1355 4.37136 20.0522 3.85106 19.9612 3.33207C19.8828 2.8859 19.8207 2.38468 19.6162 1.97536C19.3502 1.42574 18.7981 1.10433 18.2491 0.891672C17.9678 0.786539 17.6807 0.697605 17.3893 0.625301C16.0178 0.263037 14.5757 0.129853 13.1647 0.0539371C11.4711 -0.039625 9.77295 -0.0114361 8.08334 0.138287C6.82578 0.252827 5.50124 0.391341 4.30617 0.826854C3.8694 0.986234 3.4193 1.17758 3.08716 1.51542C2.67965 1.93051 2.54662 2.57247 2.84416 3.09011C3.05568 3.45771 3.41398 3.7174 3.794 3.88923C4.28898 4.11061 4.80594 4.27905 5.33629 4.39178C6.81292 4.71853 8.34234 4.84684 9.85089 4.90142C11.5229 4.96898 13.1977 4.91425 14.8617 4.73762C15.2732 4.69233 15.684 4.63804 16.094 4.57468C16.5769 4.50054 16.8869 3.86837 16.7446 3.42796C16.5743 2.90143 16.1167 2.69722 15.5992 2.77668C15.5229 2.78867 15.4471 2.79977 15.3708 2.81087L15.3158 2.81886C15.1405 2.84106 14.9652 2.86178 14.7899 2.88101C14.4277 2.92008 14.0647 2.95205 13.7008 2.97691C12.8858 3.03373 12.0685 3.05992 11.2517 3.06126C10.4491 3.06126 9.64605 3.03861 8.84518 2.98578C8.47979 2.96181 8.11529 2.93133 7.75167 2.89433C7.58628 2.87702 7.42133 2.85882 7.25634 2.83839L7.09936 2.81842L7.06525 2.81353L6.9025 2.79C6.56992 2.73984 6.23734 2.68212 5.9083 2.61243C5.87512 2.60505 5.84541 2.58655 5.82411 2.56C5.80284 2.53344 5.79122 2.50041 5.79122 2.46637C5.79122 2.43231 5.80284 2.39928 5.82411 2.37273C5.84541 2.34617 5.87512 2.32768 5.9083 2.3203H5.91451C6.19965 2.25948 6.48699 2.20754 6.77523 2.16226C6.8713 2.14716 6.96766 2.13236 7.06434 2.11786H7.06702C7.24749 2.10588 7.42884 2.07347 7.60845 2.05216C9.17097 1.88944 10.7428 1.83397 12.3128 1.88612C13.0751 1.90832 13.837 1.95316 14.5957 2.0304C14.7588 2.04728 14.9212 2.06503 15.0834 2.08501C15.1455 2.09256 15.208 2.10143 15.2706 2.10898L15.3965 2.12718C15.7637 2.18194 16.1289 2.24838 16.4922 2.32652C17.0306 2.44372 17.7219 2.4819 17.9613 3.07235C18.0376 3.2597 18.0722 3.46792 18.1143 3.66459L18.168 3.91543C18.1694 3.91992 18.1704 3.92451 18.1711 3.92917C18.2979 4.52111 18.4249 5.11305 18.552 5.70499C18.5613 5.74872 18.5615 5.7939 18.5527 5.83771C18.5437 5.88152 18.5259 5.92305 18.5003 5.95966C18.4747 5.99628 18.4418 6.02722 18.4037 6.05053C18.3656 6.07384 18.3231 6.08906 18.2789 6.09521H18.2753L18.1977 6.10587L18.121 6.1161C17.878 6.14776 17.6347 6.17736 17.3911 6.20487C16.9113 6.25963 16.4308 6.30698 15.9495 6.34695C14.9931 6.42654 14.0349 6.47877 13.0747 6.50364C12.5854 6.51669 12.0963 6.52272 11.6074 6.52186C9.6611 6.5203 7.71654 6.40706 5.78324 6.18268C5.57395 6.15781 5.36466 6.13117 5.15534 6.1041C5.31766 6.12495 5.03739 6.08812 4.98064 6.08013C4.8476 6.06148 4.71456 6.04207 4.58156 6.02198C4.13501 5.95493 3.69113 5.87234 3.24547 5.79998C2.7067 5.71121 2.19142 5.75559 1.70409 6.02198C1.30406 6.24112 0.98029 6.57719 0.775978 6.98534C0.565788 7.42041 0.503264 7.89408 0.409255 8.36158C0.315247 8.82907 0.168912 9.33206 0.224342 9.81195C0.343626 10.8477 1.06687 11.6894 2.10717 11.8777C3.08584 12.0553 4.0698 12.1991 5.05646 12.3216C8.93223 12.7968 12.8478 12.8537 16.7357 12.4912C17.0523 12.4616 17.3685 12.4294 17.6842 12.3944C17.7828 12.3836 17.8826 12.395 17.9762 12.4277C18.0699 12.4605 18.1551 12.5138 18.2255 12.5838C18.2959 12.6537 18.3498 12.7386 18.3832 12.8321C18.4166 12.9257 18.4286 13.0255 18.4185 13.1243L18.3201 14.0823C18.1217 16.0183 17.9234 17.954 17.725 19.8896C17.5181 21.9223 17.3098 23.9549 17.1002 25.9873C17.0411 26.5597 16.9819 27.132 16.9228 27.7041C16.866 28.2674 16.8581 28.8486 16.7512 29.4053C16.5827 30.2807 15.9907 30.8184 15.1269 31.0151C14.3355 31.1953 13.5271 31.29 12.7155 31.2974C11.8157 31.3023 10.9165 31.2623 10.0168 31.2672C9.05628 31.2725 7.87983 31.1837 7.13839 30.4681C6.48699 29.8394 6.39699 28.8552 6.30828 28.0042C6.19004 26.8774 6.07282 25.7508 5.95664 24.6244L5.30481 18.3607L4.88309 14.3079C4.87598 14.2408 4.8689 14.1747 4.86226 14.1072C4.81168 13.6237 4.46979 13.1505 3.93103 13.1749C3.46985 13.1953 2.94571 13.5878 2.99981 14.1072L3.31243 17.1119L3.95897 23.3272C4.14313 25.0926 4.32686 26.8584 4.51015 28.6244C4.54564 28.9627 4.57889 29.3018 4.61615 29.6401C4.81879 31.4887 6.22893 32.485 7.97518 32.7655C8.99508 32.9298 10.0398 32.9635 11.0748 32.9804C12.4016 33.0017 13.7416 33.0528 15.0467 32.8122C16.9805 32.457 18.4314 31.1642 18.6385 29.1589C18.6976 28.58 18.7567 28.0009 18.8158 27.4217C19.0124 25.5062 19.2087 23.5906 19.4047 21.6748L20.0459 15.415L20.3399 12.5463C20.3546 12.404 20.4146 12.2703 20.5111 12.1648C20.6076 12.0594 20.7354 11.9878 20.8756 11.9607C21.4286 11.8528 21.9571 11.6686 22.3505 11.2473C22.9766 10.5764 23.1012 9.70186 22.8799 8.82018ZM2.07879 9.43905C2.08722 9.43504 2.0717 9.50743 2.06505 9.54116C2.06371 9.49012 2.06638 9.44483 2.07879 9.43905ZM2.13245 9.8546C2.13688 9.85149 2.15018 9.86924 2.16393 9.89053C2.14309 9.87101 2.12979 9.85637 2.13201 9.8546H2.13245ZM2.18522 9.92429C2.20428 9.95671 2.21448 9.97713 2.18522 9.92429V9.92429ZM2.2912 10.0104H2.29386C2.29386 10.0135 2.29874 10.0166 2.30051 10.0197C2.29757 10.0163 2.2943 10.0132 2.29076 10.0104H2.2912ZM20.8499 9.88168C20.6512 10.0708 20.3519 10.1587 20.0561 10.2026C16.7392 10.6954 13.374 10.9449 10.0207 10.8348C7.62087 10.7527 5.24625 10.4859 2.87032 10.1498C2.63752 10.117 2.38521 10.0743 2.22513 9.90253C1.92359 9.57846 2.0717 8.92583 2.15018 8.53428C2.22202 8.17558 2.35949 7.69742 2.78563 7.64639C3.45078 7.56824 4.22324 7.84927 4.88132 7.94917C5.6736 8.07022 6.46879 8.16712 7.26699 8.23995C10.6735 8.55069 14.1372 8.50233 17.5285 8.0477C18.1467 7.96453 18.7626 7.86792 19.3763 7.75782C19.9231 7.65969 20.5293 7.47546 20.8597 8.04239C21.0862 8.42863 21.1164 8.94539 21.0814 9.38179C21.0706 9.57192 20.9876 9.75076 20.8494 9.88168H20.8499Z" fill="black"/>
<path fill-rule="evenodd" clip-rule="evenodd" d="M40.9682 19.1081C40.7747 19.4782 40.5082 19.8005 40.1696 20.074C39.8306 20.3477 39.4352 20.5705 38.9832 20.7421C38.5316 20.914 38.0767 21.0294 37.6196 21.0883C37.1622 21.1473 36.7182 21.1422 36.288 21.0721C35.8576 21.0025 35.4915 20.8603 35.1906 20.6455L35.5296 17.1198C35.8415 17.0125 36.2339 16.9024 36.7077 16.7897C37.181 16.6772 37.6677 16.5965 38.168 16.5483C38.6684 16.4999 39.1417 16.5056 39.5887 16.5644C40.0345 16.6234 40.3873 16.7656 40.6454 16.9911C40.7851 17.1198 40.9039 17.2592 41.0007 17.4096C41.0974 17.5599 41.1566 17.7155 41.1783 17.8765C41.2317 18.3272 41.162 18.7378 40.9682 19.1081ZM36.0458 11.5978C36.2719 11.4583 36.5434 11.3347 36.8608 11.2273C37.1781 11.1203 37.5037 11.0449 37.8373 11.002C38.1706 10.9593 38.4962 10.9536 38.8139 10.9859C39.1309 11.0181 39.4111 11.1066 39.6529 11.2514C39.8952 11.3964 40.0753 11.6058 40.1934 11.8792C40.3118 12.1531 40.3443 12.4993 40.2905 12.9178C40.2476 13.2505 40.1154 13.5324 39.8952 13.763C39.6746 13.994 39.4053 14.187 39.0883 14.3426C38.7706 14.4985 38.4345 14.6219 38.0796 14.7127C37.7243 14.8042 37.3824 14.8714 37.0546 14.9141C36.7265 14.9572 36.4412 14.9842 36.1994 14.9946C35.9571 15.0054 35.7983 15.0107 35.7231 15.0107L36.0458 11.5978ZM42.7112 16.8299C42.539 16.4545 42.3079 16.1245 42.0173 15.8397C41.727 15.5555 41.3823 15.349 40.9844 15.2201C41.1566 15.0806 41.3259 14.8606 41.4927 14.56C41.6595 14.2597 41.8021 13.9321 41.9206 13.578C42.0386 13.2236 42.1195 12.867 42.1624 12.5073C42.2054 12.1478 42.1892 11.8392 42.1144 11.5814C41.931 10.9377 41.6433 10.4332 41.2505 10.0682C40.8577 9.70341 40.4006 9.45115 39.8789 9.31145C39.3569 9.17237 38.7814 9.14255 38.1522 9.22301C37.5225 9.3035 36.8795 9.46178 36.2235 9.69791C36.2235 9.64438 36.2289 9.588 36.2397 9.52897C36.2501 9.47016 36.2556 9.40828 36.2556 9.34373C36.2556 9.18278 36.175 9.04348 36.0136 8.92525C35.8523 8.80716 35.6666 8.73755 35.4569 8.7159C35.2471 8.69465 35.0425 8.73997 34.8435 8.85274C34.6443 8.96548 34.5071 9.17237 34.432 9.47241C34.3458 10.4385 34.2598 11.4421 34.1738 12.483C34.0876 13.5242 33.9963 14.5761 33.8994 15.6388C33.8026 16.7012 33.7057 17.7558 33.6089 18.8021C33.5121 19.8487 33.4152 20.8548 33.3184 21.8207C33.3507 22.1105 33.4314 22.336 33.5606 22.4969C33.6896 22.6581 33.8403 22.7547 34.0124 22.7868C34.1844 22.819 34.3648 22.7892 34.553 22.6981C34.7411 22.6072 34.9054 22.4485 35.0454 22.2232C35.4756 22.4593 35.9598 22.6123 36.4979 22.6822C37.0359 22.7518 37.5817 22.7518 38.1359 22.6822C38.6897 22.6123 39.236 22.481 39.7739 22.2876C40.3118 22.0946 40.8014 21.8529 41.2425 21.5633C41.6837 21.2735 42.0549 20.9432 42.3563 20.5731C42.6574 20.2026 42.8563 19.8029 42.9535 19.3738C43.0502 18.9337 43.0769 18.4937 43.034 18.0536C42.991 17.6136 42.8834 17.206 42.7112 16.8299Z" fill="black"/>
<path fill-rule="evenodd" clip-rule="evenodd" d="M58.4555 25.3302C58.3963 25.6844 58.3125 26.0574 58.2053 26.4493C58.0974 26.8408 57.971 27.1979 57.8259 27.5199C57.6807 27.8418 57.5194 28.1018 57.3421 28.3006C57.1641 28.4991 56.9731 28.5825 56.7688 28.5504C56.6074 28.5285 56.5052 28.4266 56.4623 28.2444C56.4193 28.0616 56.4193 27.8363 56.4623 27.5682C56.5052 27.2998 56.5886 26.9965 56.7125 26.6584C56.8359 26.3204 56.9868 25.9848 57.1641 25.6523C57.3421 25.3194 57.5435 25.0004 57.7695 24.6944C57.9956 24.3887 58.232 24.1336 58.4797 23.9297C58.5335 23.9941 58.5577 24.155 58.5523 24.4128C58.5465 24.6703 58.5143 24.9763 58.4555 25.3302ZM63.9265 18.3432C63.7814 18.1822 63.6037 18.0912 63.394 18.0695C63.1842 18.0481 62.9716 18.1661 62.7564 18.4237C62.6163 18.6812 62.4391 18.9282 62.2239 19.1643C62.0084 19.4006 61.7853 19.6151 61.5538 19.8082C61.3228 20.0013 61.1022 20.1679 60.8924 20.3072C60.6827 20.4469 60.5184 20.5488 60.4 20.6132C60.357 20.2698 60.3328 19.8995 60.3274 19.5023C60.3216 19.1052 60.33 18.7029 60.3516 18.295C60.3837 17.7154 60.4509 17.1306 60.5534 16.5401C60.6556 15.9498 60.8036 15.3702 60.9971 14.8012C60.9971 14.501 60.9271 14.2567 60.7874 14.0688C60.6473 13.881 60.478 13.7628 60.279 13.7146C60.0798 13.6664 59.8758 13.6932 59.6657 13.7951C59.4559 13.8972 59.2758 14.0824 59.1252 14.3504C58.996 14.7048 58.8479 15.1018 58.6815 15.5418C58.5143 15.9819 58.3263 16.43 58.1165 16.8861C57.9067 17.3426 57.6724 17.7852 57.4143 18.2143C57.1562 18.6438 56.8738 19.025 56.567 19.3575C56.2605 19.6902 55.9269 19.9506 55.5666 20.1383C55.2059 20.3262 54.8163 20.4094 54.3965 20.3879C54.2026 20.3342 54.0629 20.1894 53.9766 19.9531C53.8907 19.7172 53.8394 19.4218 53.8235 19.0677C53.8073 18.7135 53.8235 18.3244 53.8719 17.9004C53.9203 17.4766 53.9849 17.0552 54.0654 16.6367C54.1463 16.218 54.2351 15.821 54.3319 15.4454C54.4286 15.0698 54.5199 14.753 54.6062 14.4954C54.7355 14.1844 54.7355 13.9237 54.6062 13.7146C54.477 13.5052 54.2997 13.3659 54.0737 13.2959C53.8477 13.2262 53.6109 13.2291 53.3636 13.3041C53.1159 13.3792 52.9383 13.5455 52.8311 13.803C52.648 14.2434 52.4812 14.7368 52.3307 15.2842C52.1798 15.8316 52.0588 16.398 51.9675 16.9827C51.8758 17.5679 51.8245 18.1475 51.814 18.7217C51.8133 18.759 51.8151 18.7946 51.8151 18.8318C51.5805 19.4557 51.3566 19.9273 51.1443 20.2429C50.87 20.651 50.5606 20.8281 50.2165 20.7741C50.0656 20.7098 49.9663 20.5597 49.9179 20.3234C49.8692 20.0875 49.8529 19.7977 49.8692 19.4539C49.8858 19.1108 49.9259 18.7217 49.9901 18.2868C50.0551 17.8522 50.1356 17.4014 50.2324 16.9345C50.3295 16.4674 50.4317 15.9983 50.5389 15.5258C50.6465 15.0536 50.7432 14.6082 50.8299 14.1895C50.8191 13.8138 50.7086 13.5269 50.4988 13.3282C50.2891 13.1298 49.9956 13.052 49.6194 13.0947C49.3612 13.2021 49.1699 13.3418 49.0461 13.5134C48.9222 13.685 48.8229 13.9051 48.7478 14.1733C48.7045 14.313 48.6399 14.592 48.554 15.0107C48.4677 15.429 48.3576 15.9096 48.2233 16.4515C48.0886 16.9937 47.9301 17.5597 47.7471 18.15C47.564 18.7402 47.3597 19.2746 47.1341 19.7519C46.9077 20.2294 46.6604 20.6132 46.3914 20.903C46.1225 21.1926 45.8318 21.3109 45.5199 21.2572C45.3477 21.2249 45.2376 21.0478 45.1892 20.7259C45.1408 20.4038 45.1325 20.007 45.165 19.5346C45.1971 19.0624 45.2618 18.5444 45.3585 17.9811C45.4553 17.4176 45.5546 16.8837 45.6571 16.379C45.7593 15.8747 45.8535 15.429 45.9398 15.0428C46.0257 14.6564 46.0849 14.3988 46.117 14.2701C46.117 13.9589 46.047 13.7095 45.9073 13.5214C45.7672 13.3339 45.5979 13.2156 45.399 13.1672C45.1997 13.119 44.9953 13.1458 44.7856 13.2477C44.5758 13.3498 44.3957 13.5351 44.2448 13.803C44.191 14.0928 44.1209 14.4284 44.035 14.8093C43.9487 15.1903 43.8657 15.582 43.7852 15.9846C43.7043 16.3872 43.6288 16.7815 43.5592 17.168C43.4891 17.5544 43.4379 17.8924 43.4057 18.1822C43.3841 18.4075 43.3599 18.6841 43.3332 19.0113C43.3061 19.3389 43.2927 19.6849 43.2927 20.0497C43.2927 20.4149 43.3194 20.777 43.3736 21.1364C43.427 21.4961 43.5241 21.8262 43.6639 22.1265C43.8036 22.4271 44 22.6738 44.2531 22.8671C44.5058 23.0602 44.826 23.1675 45.2134 23.1891C45.6112 23.2104 45.9582 23.1811 46.2542 23.1005C46.5503 23.02 46.8189 22.8938 47.0611 22.722C47.3034 22.5506 47.5236 22.3466 47.7229 22.1103C47.9218 21.8744 48.1182 21.6168 48.3121 21.3376C48.4948 21.7457 48.7316 22.0621 49.0222 22.2876C49.3125 22.5129 49.6194 22.6473 49.9421 22.6899C50.2645 22.7326 50.5931 22.6875 50.9266 22.5531C51.2599 22.4191 51.561 22.191 51.8303 21.8689C52.0076 21.6714 52.1747 21.4469 52.3314 21.1988C52.3978 21.315 52.4686 21.4271 52.5484 21.5306C52.8123 21.8744 53.1701 22.1103 53.6221 22.2392C54.1058 22.3681 54.5792 22.3897 55.042 22.3037C55.5045 22.2179 55.9456 22.0621 56.3652 21.8368C56.785 21.6114 57.1749 21.3405 57.5356 21.0237C57.8959 20.7071 58.2104 20.3773 58.4797 20.0335C58.4685 20.2805 58.4634 20.5141 58.4634 20.7339C58.4634 20.9541 58.458 21.1926 58.4472 21.4504C57.9093 21.8262 57.4009 22.277 56.9222 22.8027C56.4431 23.3284 56.0236 23.8893 55.6633 24.4851C55.303 25.0807 55.0203 25.6844 54.8163 26.2961C54.6116 26.9082 54.512 27.4795 54.5174 28.011C54.5228 28.5422 54.6492 29.0062 54.8965 29.4033C55.1442 29.8006 55.5474 30.0849 56.107 30.2566C56.6883 30.4392 57.1991 30.4443 57.6403 30.2728C58.0815 30.101 58.466 29.8165 58.7941 29.4195C59.1223 29.0224 59.3913 28.5422 59.6014 27.9787C59.8112 27.4152 59.978 26.8276 60.1014 26.2158C60.2253 25.6041 60.3032 25.0026 60.3354 24.4128C60.3679 23.8223 60.3679 23.2962 60.3354 22.8348C61.2607 22.4485 62.0192 21.9602 62.6109 21.3697C63.2026 20.7798 63.6922 20.1571 64.0796 19.5023C64.198 19.3414 64.2384 19.1481 64.2009 18.9228C64.163 18.6974 64.0716 18.5041 63.9265 18.3432Z" fill="black"/>
<path fill-rule="evenodd" clip-rule="evenodd" d="M84.2853 17.313C84.3174 17.0663 84.3658 16.8058 84.4304 16.5322C84.4947 16.2585 84.5755 15.9928 84.6727 15.7352C84.769 15.4776 84.8821 15.255 85.0113 15.0671C85.1405 14.8794 85.2777 14.7452 85.4229 14.6646C85.5684 14.5843 85.716 14.5922 85.8669 14.6886C86.0283 14.7855 86.1276 14.9893 86.1655 15.3004C86.2027 15.6121 86.1655 15.9446 86.0525 16.2987C85.9391 16.6531 85.7377 16.9856 85.4471 17.2969C85.1568 17.6083 84.764 17.812 84.269 17.9086C84.2474 17.7587 84.2528 17.5599 84.2853 17.313ZM89.8772 17.9729C89.6996 17.9196 89.5303 17.9141 89.3689 17.957C89.2075 17.9999 89.105 18.1126 89.0624 18.2952C88.9757 18.6386 88.8389 18.9901 88.6504 19.3495C88.4624 19.7092 88.2309 20.0499 87.9569 20.372C87.6825 20.6939 87.3728 20.9784 87.0287 21.2251C86.6843 21.472 86.324 21.6491 85.9474 21.7564C85.5705 21.8746 85.2586 21.8879 85.0113 21.7966C84.764 21.7057 84.5676 21.5499 84.4225 21.3299C84.2773 21.1099 84.1723 20.8442 84.1076 20.5329C84.043 20.2217 84.0051 19.8998 83.9946 19.5669C84.6077 19.6099 85.1539 19.5001 85.633 19.2368C86.1113 18.9741 86.5175 18.6251 86.8511 18.1904C87.1847 17.7558 87.4374 17.2674 87.6096 16.7254C87.7815 16.1835 87.8786 15.6441 87.9002 15.1073C87.9107 14.6029 87.8356 14.1764 87.6742 13.8276C87.5129 13.4789 87.2948 13.2075 87.0204 13.0145C86.7464 12.8212 86.4316 12.7085 86.0763 12.6764C85.7218 12.6442 85.3608 12.6926 84.995 12.8212C84.5539 12.9716 84.1802 13.2156 83.8737 13.5539C83.5668 13.8919 83.3112 14.2838 83.1069 14.7291C82.9025 15.1746 82.7412 15.6547 82.6227 16.1698C82.5043 16.6852 82.4184 17.1923 82.3646 17.6915C82.3162 18.1394 82.2902 18.5677 82.2812 18.9811C82.2581 19.0336 82.2357 19.084 82.2112 19.1402C82.0444 19.5215 81.8505 19.8945 81.6303 20.2592C81.4097 20.6242 81.1649 20.9302 80.896 21.1769C80.627 21.4239 80.3472 21.5096 80.0566 21.4345C79.8847 21.3918 79.7905 21.1929 79.7742 20.8389C79.7584 20.4845 79.7768 20.0446 79.8306 19.5186C79.8847 18.9929 79.9464 18.4237 80.0165 17.812C80.0862 17.2003 80.1212 16.6155 80.1212 16.0573C80.1212 15.5743 80.0298 15.1102 79.8468 14.6646C79.6638 14.2195 79.4136 13.849 79.0966 13.5539C78.7789 13.2585 78.4106 13.0626 77.9911 12.9662C77.5712 12.8694 77.1196 12.934 76.6355 13.1593C76.151 13.3848 75.7665 13.7013 75.4816 14.1092C75.1961 14.5173 74.935 14.9464 74.6986 15.3972C74.6123 15.0536 74.4863 14.7346 74.3195 14.4393C74.1523 14.1441 73.9483 13.8866 73.7061 13.6664C73.4638 13.4466 73.192 13.2749 72.8913 13.1513C72.5898 13.0281 72.2721 12.9662 71.9389 12.9662C71.6161 12.9662 71.3175 13.0281 71.0432 13.1513C70.7688 13.2749 70.5186 13.4329 70.2926 13.6262C70.0666 13.8196 69.8622 14.0367 69.6792 14.2783C69.4965 14.5197 69.3348 14.7587 69.1954 14.9946C69.1734 14.7156 69.1492 14.4716 69.1225 14.262C69.0958 14.0528 69.047 13.8758 68.9774 13.731C68.9073 13.5859 68.808 13.4761 68.6788 13.4009C68.5495 13.3259 68.3669 13.2881 68.1304 13.2881C68.0116 13.2881 67.8932 13.3123 67.7751 13.3604C67.6564 13.4088 67.5513 13.4761 67.4603 13.5618C67.3686 13.648 67.2989 13.7524 67.2506 13.8757C67.2018 13.9991 67.1888 14.1415 67.2101 14.3024C67.2206 14.4207 67.2506 14.5626 67.2989 14.7291C67.3473 14.8956 67.3928 15.1131 67.4361 15.381C67.4791 15.6494 67.5141 15.9742 67.5408 16.3551C67.5679 16.7362 67.5759 17.2031 67.565 17.7558C67.5542 18.3087 67.5141 18.9551 67.4441 19.6957C67.374 20.4363 67.2636 21.295 67.1134 22.2715C67.0917 22.497 67.1776 22.6796 67.3715 22.819C67.565 22.9583 67.7856 23.0388 68.0333 23.0604C68.2806 23.0819 68.5149 23.0388 68.7351 22.9318C68.9557 22.8242 69.0824 22.6364 69.1146 22.3683C69.1467 21.8638 69.2088 21.3272 69.3001 20.7582C69.3915 20.1896 69.5045 19.6261 69.6391 19.0679C69.7734 18.5099 69.9265 17.9786 70.0991 17.4739C70.2709 16.9695 70.4623 16.5242 70.672 16.1378C70.8818 15.7513 71.0998 15.4429 71.3255 15.2121C71.5515 14.9813 71.788 14.8659 72.0356 14.8659C72.3371 14.8659 72.5707 15.0026 72.7378 15.2763C72.9043 15.5501 73.0227 15.9019 73.0927 16.3308C73.1627 16.7603 73.1949 17.2301 73.1898 17.7397C73.1841 18.2495 73.1627 18.7405 73.1252 19.2127C73.0873 19.6851 73.0443 20.1062 72.996 20.4765C72.9476 20.8468 72.9126 21.102 72.8913 21.2413C72.8913 21.4882 72.9851 21.6838 73.1732 21.8289C73.3617 21.9737 73.5714 22.0597 73.8029 22.0864C74.0343 22.1134 74.252 22.0703 74.4567 21.9575C74.661 21.8448 74.7791 21.6546 74.8116 21.3861C74.9191 20.6134 75.0672 19.8381 75.2553 19.0599C75.4434 18.2817 75.6589 17.5843 75.9011 16.967C76.143 16.3498 76.412 15.8453 76.708 15.4536C77.0037 15.062 77.3185 14.8659 77.6521 14.8659C77.824 14.8659 77.9561 14.9842 78.0474 15.2201C78.1388 15.4562 78.1846 15.7781 78.1846 16.186C78.1846 16.4866 78.1604 16.7953 78.1121 17.1118C78.0637 17.4284 78.0074 17.7558 77.9424 18.0938C77.8781 18.4321 77.8214 18.778 77.7731 19.1322C77.7247 19.4866 77.7005 19.8567 77.7005 20.2431C77.7005 20.5115 77.7272 20.8227 77.781 21.1769C77.8348 21.5309 77.937 21.8667 78.0875 22.183C78.2384 22.4998 78.4453 22.768 78.7092 22.9879C78.9728 23.2079 79.3089 23.318 79.7176 23.318C80.3309 23.318 80.8743 23.1865 81.348 22.9236C81.8213 22.6608 82.2274 22.3174 82.5664 21.8934C82.5838 21.8711 82.6 21.8474 82.617 21.8254C82.643 21.8881 82.6661 21.9545 82.6953 22.0141C82.9267 22.4863 83.2415 22.8511 83.6398 23.1089C84.0373 23.3664 84.5055 23.5086 85.0438 23.5355C85.5817 23.5621 86.1677 23.4628 86.8031 23.2376C87.276 23.0658 87.6876 22.8511 88.0374 22.5936C88.3869 22.336 88.7017 22.0221 88.9815 21.6518C89.2613 21.2815 89.5166 20.8548 89.7483 20.372C89.9798 19.8887 90.2133 19.3363 90.4502 18.7135C90.4931 18.5422 90.4527 18.3892 90.3292 18.2548C90.2054 18.1208 90.0548 18.0268 89.8772 17.9729Z" fill="black"/>
<path fill-rule="evenodd" clip-rule="evenodd" d="M98.6488 16.1774C98.5947 16.4941 98.5221 16.8432 98.4308 17.2239C98.3391 17.605 98.2235 17.9994 98.0838 18.4073C97.9437 18.8152 97.7719 19.1828 97.5675 19.5101C97.3628 19.8376 97.1289 20.0977 96.8653 20.2909C96.6014 20.4841 96.2978 20.5646 95.9534 20.5323C95.7812 20.511 95.6494 20.393 95.5581 20.1781C95.4664 19.9637 95.418 19.6898 95.4126 19.357C95.4072 19.0246 95.4368 18.6596 95.5014 18.2623C95.566 17.8654 95.6656 17.4762 95.8003 17.095C95.9346 16.7143 96.0989 16.3626 96.292 16.0405C96.4859 15.7186 96.709 15.469 96.9621 15.292C97.2148 15.1149 97.4921 15.032 97.7932 15.0424C98.0943 15.0532 98.417 15.2033 98.7618 15.4932C98.7398 15.6329 98.7026 15.861 98.6488 16.1774ZM104.386 17.409C104.219 17.3232 104.047 17.3046 103.87 17.3528C103.692 17.401 103.565 17.5648 103.49 17.8438C103.447 18.1444 103.35 18.4984 103.2 18.9063C103.049 19.3142 102.863 19.7008 102.643 20.0654C102.422 20.4304 102.17 20.7337 101.884 20.9751C101.599 21.2167 101.296 21.3268 100.973 21.305C100.703 21.2837 100.515 21.1469 100.408 20.8946C100.3 20.6424 100.243 20.326 100.238 19.9447C100.233 19.5639 100.271 19.1346 100.351 18.6569C100.432 18.1794 100.529 17.7045 100.642 17.2319C100.755 16.7599 100.87 16.3062 100.989 15.8716C101.107 15.437 101.204 15.0693 101.279 14.7689C101.366 14.5005 101.338 14.2726 101.198 14.0845C101.059 13.897 100.884 13.7626 100.674 13.6821C100.464 13.6016 100.252 13.5802 100.036 13.6178C99.8211 13.6553 99.6817 13.7707 99.6167 13.9637C98.982 13.4164 98.3715 13.1212 97.7852 13.0783C97.1986 13.0355 96.6578 13.1643 96.1631 13.4648C95.6682 13.7652 95.2299 14.1999 94.8479 14.7689C94.466 15.3379 94.1566 15.9576 93.9197 16.6284C93.6833 17.2991 93.5352 17.9835 93.476 18.681C93.4168 19.3787 93.4623 20.0147 93.6132 20.5889C93.7641 21.163 94.0298 21.6327 94.4122 21.9973C94.7938 22.3623 95.3133 22.5449 95.9696 22.5449C96.2599 22.5449 96.5397 22.4859 96.8087 22.3678C97.0776 22.2496 97.3253 22.1101 97.5513 21.9491C97.7769 21.7882 97.9762 21.6191 98.1484 21.442C98.3203 21.2649 98.4549 21.1174 98.5517 20.9992C98.6268 21.3856 98.751 21.7132 98.9228 21.9814C99.095 22.2496 99.2914 22.47 99.512 22.6413C99.7323 22.8129 99.964 22.9391 100.206 23.0198C100.448 23.1003 100.682 23.1405 100.908 23.1405C101.414 23.1405 101.887 22.9687 102.328 22.6252C102.769 22.282 103.165 21.8605 103.515 21.3615C103.864 20.8623 104.152 20.3366 104.378 19.7837C104.604 19.231 104.755 18.74 104.83 18.3105C104.905 18.1496 104.892 17.9807 104.79 17.8036C104.687 17.6265 104.553 17.4952 104.386 17.409Z" fill="black"/>
<path fill-rule="evenodd" clip-rule="evenodd" d="M133.436 26.2969C133.345 26.6617 133.202 26.9705 133.009 27.2225C132.815 27.4748 132.573 27.6063 132.282 27.6171C132.1 27.6277 131.96 27.5311 131.863 27.3273C131.766 27.1233 131.699 26.8604 131.661 26.5385C131.623 26.2164 131.607 25.8567 131.613 25.4597C131.618 25.0626 131.634 24.6709 131.661 24.2844C131.688 23.8982 131.72 23.5383 131.758 23.2058C131.795 22.8729 131.825 22.6158 131.847 22.4332C132.212 22.4761 132.517 22.6342 132.759 22.9081C133.001 23.1817 133.186 23.5063 133.315 23.8821C133.445 24.2577 133.52 24.6629 133.541 25.0976C133.563 25.5322 133.528 25.9319 133.436 26.2969ZM127.594 26.2969C127.503 26.6617 127.36 26.9705 127.166 27.2225C126.973 27.4748 126.731 27.6063 126.44 27.6171C126.257 27.6277 126.117 27.5311 126.021 27.3273C125.924 27.1233 125.856 26.8604 125.819 26.5385C125.781 26.2164 125.765 25.8567 125.771 25.4597C125.776 25.0626 125.792 24.6709 125.819 24.2844C125.846 23.8982 125.878 23.5383 125.916 23.2058C125.953 22.8729 125.983 22.6158 126.004 22.4332C126.37 22.4761 126.675 22.6342 126.916 22.9081C127.158 23.1817 127.344 23.5063 127.473 23.8821C127.602 24.2577 127.677 24.6629 127.699 25.0976C127.72 25.5322 127.685 25.9319 127.594 26.2969ZM121.599 17.1526C121.588 17.41 121.563 17.6381 121.526 17.8366C121.488 18.0356 121.437 18.1614 121.372 18.2151C121.254 18.1506 121.109 17.9845 120.937 17.7159C120.765 17.4477 120.63 17.1442 120.533 16.8062C120.437 16.4682 120.407 16.1357 120.445 15.8081C120.482 15.4809 120.652 15.2262 120.953 15.0434C121.071 14.979 121.173 15.0031 121.259 15.1159C121.346 15.2286 121.415 15.3922 121.47 15.6069C121.523 15.8217 121.561 16.0685 121.582 16.3475C121.604 16.6267 121.609 16.8949 121.599 17.1526ZM120.17 20.3644C120.003 20.5412 119.818 20.6942 119.614 20.8231C119.409 20.952 119.199 21.0486 118.984 21.1129C118.769 21.1775 118.575 21.1934 118.403 21.1611C117.919 21.0647 117.547 20.8552 117.29 20.5333C117.031 20.2114 116.867 19.8331 116.797 19.3985C116.727 18.9637 116.735 18.4994 116.821 18.0057C116.907 17.5121 117.052 17.0534 117.257 16.6293C117.461 16.2053 117.709 15.8403 117.999 15.5346C118.29 15.2286 118.607 15.0383 118.952 14.9629C118.823 15.5103 118.78 16.0767 118.823 16.6614C118.866 17.2464 119.006 17.7964 119.242 18.3115C119.393 18.6232 119.573 18.9073 119.783 19.1649C119.993 19.4226 120.248 19.6426 120.55 19.825C120.463 20.0076 120.337 20.1873 120.17 20.3644ZM138.028 17.3136C138.06 17.0668 138.109 16.8062 138.173 16.5325C138.238 16.259 138.318 15.9933 138.415 15.7357C138.512 15.478 138.625 15.2554 138.754 15.0677C138.883 14.88 139.021 14.7456 139.166 14.6651C139.311 14.5847 139.459 14.5926 139.609 14.6892C139.771 14.786 139.87 14.9899 139.908 15.3009C139.946 15.6124 139.908 15.9449 139.795 16.2993C139.682 16.6534 139.481 16.9862 139.19 17.2972C138.9 17.6089 138.507 17.8125 138.012 17.9092C137.99 17.759 137.996 17.5605 138.028 17.3136ZM144.532 17.3136C144.564 17.0668 144.613 16.8062 144.677 16.5325C144.742 16.259 144.823 15.9933 144.919 15.7357C145.016 15.478 145.129 15.2554 145.258 15.0677C145.387 14.88 145.524 14.7456 145.67 14.6651C145.815 14.5847 145.963 14.5926 146.114 14.6892C146.275 14.786 146.374 14.9899 146.412 15.3009C146.45 15.6124 146.412 15.9449 146.299 16.2993C146.186 16.6534 145.984 16.9862 145.694 17.2972C145.404 17.6089 145.011 17.8125 144.516 17.9092C144.494 17.759 144.5 17.5605 144.532 17.3136ZM150.576 18.2553C150.452 18.1214 150.302 18.0274 150.124 17.9735C149.947 17.92 149.777 17.9146 149.616 17.9576C149.454 18.0004 149.352 18.1132 149.309 18.2956C149.223 18.6391 149.086 18.9906 148.898 19.3499C148.709 19.7098 148.478 20.0504 148.204 20.3723C147.929 20.6942 147.62 20.9789 147.276 21.2257C146.931 21.4726 146.571 21.6497 146.195 21.7567C145.818 21.8752 145.506 21.8885 145.258 21.7972C145.011 21.7061 144.814 21.5504 144.669 21.3305C144.524 21.1103 144.419 20.8447 144.354 20.5333C144.29 20.2222 144.252 19.9003 144.241 19.5674C144.855 19.6105 145.401 19.5006 145.88 19.2374C146.358 18.9745 146.765 18.6254 147.098 18.1908C147.431 17.7564 147.685 17.268 147.857 16.726C148.029 16.1839 148.125 15.6447 148.147 15.1079C148.157 14.6034 148.082 14.1768 147.921 13.8279C147.76 13.4793 147.542 13.208 147.268 13.015C146.993 12.8216 146.679 12.709 146.323 12.6768C145.969 12.6445 145.608 12.6931 145.242 12.8216C144.801 12.9721 144.427 13.2162 144.121 13.5542C143.814 13.8924 143.558 14.2844 143.354 14.7294C143.149 15.1751 142.988 15.6551 142.869 16.1704C142.751 16.6855 142.665 17.1928 142.612 17.6918C142.559 18.1761 142.531 18.6395 142.524 19.0831C142.484 19.1716 142.44 19.2604 142.393 19.3499C142.205 19.7098 141.974 20.0504 141.699 20.3723C141.425 20.6942 141.116 20.9789 140.772 21.2257C140.427 21.4726 140.067 21.6497 139.69 21.7567C139.313 21.8752 139.001 21.8885 138.754 21.7972C138.507 21.7061 138.31 21.5504 138.165 21.3305C138.02 21.1103 137.915 20.8447 137.85 20.5333C137.786 20.2222 137.748 19.9003 137.737 19.5674C138.351 19.6105 138.897 19.5006 139.375 19.2374C139.854 18.9745 140.26 18.6254 140.594 18.1908C140.928 17.7564 141.18 17.268 141.352 16.726C141.524 16.1839 141.621 15.6447 141.643 15.1079C141.654 14.6034 141.578 14.1768 141.417 13.8279C141.256 13.4793 141.038 13.208 140.763 13.015C140.489 12.8216 140.174 12.709 139.819 12.6768C139.464 12.6445 139.104 12.6931 138.738 12.8216C138.297 12.9721 137.923 13.2162 137.617 13.5542C137.31 13.8924 137.054 14.2844 136.85 14.7294C136.645 15.1751 136.484 15.6551 136.366 16.1704C136.247 16.6855 136.161 17.1928 136.107 17.6918C136.077 17.9733 136.057 18.2461 136.041 18.5141C135.937 18.6023 135.836 18.6912 135.728 18.7784C135.357 19.079 134.967 19.3499 134.558 19.5915C134.149 19.8331 133.724 20.0317 133.283 20.1873C132.842 20.3429 132.39 20.4369 131.927 20.469L132.928 9.77894C132.993 9.55347 132.96 9.35514 132.831 9.18339C132.702 9.01159 132.535 8.89354 132.331 8.82921C132.126 8.76465 131.908 8.77018 131.677 8.84514C131.446 8.92051 131.255 9.09227 131.104 9.36024C131.029 9.76831 130.951 10.3263 130.87 11.0346C130.79 11.743 130.709 12.5158 130.628 13.353C130.548 14.1902 130.467 15.0542 130.386 15.9449C130.305 16.836 130.235 17.6677 130.177 18.4404C130.174 18.4747 130.171 18.5057 130.169 18.5397C130.075 18.6193 129.983 18.6996 129.886 18.7784C129.515 19.079 129.124 19.3499 128.716 19.5915C128.307 19.8331 127.882 20.0317 127.441 20.1873C126.999 20.3429 126.547 20.4369 126.085 20.469L127.086 9.77894C127.15 9.55347 127.118 9.35514 126.989 9.18339C126.86 9.01159 126.693 8.89354 126.489 8.82921C126.284 8.76465 126.066 8.77018 125.835 8.84514C125.603 8.92051 125.413 9.09227 125.262 9.36024C125.187 9.76831 125.109 10.3263 125.028 11.0346C124.947 11.743 124.867 12.5158 124.786 13.353C124.705 14.1902 124.625 15.0542 124.544 15.9449C124.463 16.836 124.393 17.6677 124.334 18.4404C124.333 18.4559 124.332 18.47 124.331 18.4855C124.161 18.5637 123.977 18.6324 123.777 18.69C123.573 18.7492 123.342 18.7841 123.083 18.7947C123.126 18.6013 123.161 18.3867 123.188 18.1506C123.215 17.9146 123.237 17.6677 123.253 17.41C123.269 17.1526 123.274 16.8949 123.269 16.6373C123.263 16.3796 123.25 16.1436 123.229 15.9288C123.175 15.4676 123.075 15.0301 122.93 14.6167C122.785 14.2037 122.588 13.8577 122.341 13.5783C122.093 13.2993 121.784 13.1114 121.413 13.015C121.042 12.9184 120.609 12.9505 120.114 13.1114C119.382 13.015 118.723 13.0822 118.137 13.3128C117.55 13.5438 117.042 13.879 116.612 14.3189C116.181 14.7593 115.829 15.2768 115.555 15.8726C115.28 16.4682 115.097 17.0801 115.006 17.7078C114.967 17.9739 114.948 18.2388 114.942 18.5031C114.776 18.8433 114.593 19.1407 114.392 19.3903C114.108 19.7445 113.812 20.0343 113.505 20.2596C113.198 20.4851 112.894 20.6569 112.593 20.7749C112.292 20.8932 112.023 20.9736 111.786 21.0163C111.506 21.07 111.237 21.0756 110.979 21.0324C110.721 20.9898 110.484 20.8662 110.269 20.6622C110.097 20.512 109.965 20.2704 109.874 19.9377C109.782 19.605 109.729 19.2269 109.712 18.8027C109.696 18.3787 109.712 17.9359 109.761 17.4745C109.809 17.0131 109.892 16.5756 110.011 16.1624C110.129 15.7492 110.28 15.379 110.463 15.0513C110.645 14.7243 110.86 14.4907 111.108 14.3512C111.248 14.3728 111.335 14.4558 111.367 14.6006C111.399 14.7456 111.407 14.9174 111.391 15.1159C111.375 15.3146 111.35 15.5184 111.318 15.7276C111.286 15.937 111.27 16.1116 111.27 16.2509C111.324 16.5407 111.428 16.7662 111.584 16.9271C111.74 17.0881 111.915 17.1822 112.109 17.2088C112.302 17.2357 112.493 17.1902 112.682 17.0719C112.87 16.9541 113.023 16.7662 113.142 16.5084C113.153 16.5193 113.169 16.5246 113.19 16.5246L113.416 14.48C113.481 14.2009 113.437 13.9541 113.287 13.7395C113.136 13.5248 112.937 13.4012 112.69 13.3692C112.378 12.9184 111.955 12.6797 111.423 12.6527C110.89 12.6259 110.344 12.8003 109.785 13.176C109.441 13.4231 109.137 13.7636 108.873 14.1982C108.609 14.633 108.394 15.1159 108.227 15.6471C108.06 16.1784 107.942 16.7394 107.873 17.3297C107.803 17.92 107.789 18.4943 107.832 19.0521C107.875 19.6105 107.975 20.1364 108.131 20.6299C108.286 21.1237 108.504 21.537 108.785 21.8694C109.021 22.1593 109.29 22.3715 109.591 22.5057C109.892 22.6399 110.207 22.7228 110.535 22.7551C110.863 22.7871 111.189 22.7736 111.512 22.7148C111.835 22.656 112.141 22.5729 112.432 22.4653C112.808 22.326 113.196 22.1487 113.594 21.934C113.992 21.7196 114.374 21.4618 114.74 21.1611C114.932 21.0031 115.117 20.8307 115.296 20.6458C115.378 20.8476 115.469 21.0429 115.579 21.2257C115.869 21.7085 116.262 22.1004 116.757 22.4009C117.251 22.7013 117.86 22.846 118.581 22.8356C119.355 22.8247 120.071 22.6291 120.727 22.2479C121.383 21.8672 121.921 21.306 122.341 20.5656C122.97 20.5656 123.588 20.4622 124.196 20.2569C124.191 20.3219 124.186 20.3903 124.181 20.453C124.138 21.0219 124.116 21.4081 124.116 21.6121C124.105 21.9663 124.082 22.4036 124.044 22.924C124.006 23.4446 123.982 23.992 123.971 24.5661C123.96 25.1402 123.982 25.7199 124.035 26.3051C124.09 26.8898 124.202 27.4212 124.374 27.899C124.546 28.3763 124.791 28.7815 125.109 29.1144C125.426 29.447 125.843 29.6457 126.36 29.71C126.908 29.785 127.381 29.6884 127.78 29.4202C128.177 29.1518 128.501 28.7844 128.748 28.3175C128.996 27.8504 129.17 27.3112 129.272 26.6994C129.375 26.0877 129.404 25.4732 129.361 24.8559C129.318 24.2387 129.205 23.6566 129.022 23.1094C128.839 22.5619 128.587 22.1111 128.264 21.7567C128.458 21.7034 128.689 21.6015 128.958 21.451C129.227 21.3009 129.504 21.1317 129.789 20.9438C129.859 20.8977 129.928 20.849 129.998 20.8017C129.972 21.182 129.958 21.4532 129.958 21.6121C129.948 21.9663 129.924 22.4036 129.886 22.924C129.848 23.4446 129.824 23.992 129.813 24.5661C129.803 25.1402 129.824 25.7199 129.878 26.3051C129.932 26.8898 130.045 27.4212 130.217 27.899C130.389 28.3763 130.634 28.7815 130.951 29.1144C131.268 29.447 131.685 29.6457 132.202 29.71C132.75 29.785 133.224 29.6884 133.622 29.4202C134.02 29.1518 134.343 28.7844 134.59 28.3175C134.838 27.8504 135.012 27.3112 135.115 26.6994C135.217 26.0877 135.246 25.4732 135.204 24.8559C135.16 24.2387 135.047 23.6566 134.865 23.1094C134.682 22.5619 134.429 22.1111 134.106 21.7567C134.3 21.7034 134.531 21.6015 134.8 21.451C135.069 21.3009 135.346 21.1317 135.631 20.9438C135.78 20.8462 135.927 20.7455 136.074 20.6419C136.129 21.1669 136.248 21.6272 136.438 22.0145C136.67 22.4869 136.984 22.8517 137.382 23.1094C137.78 23.3668 138.248 23.5091 138.787 23.5359C139.325 23.5625 139.911 23.4634 140.546 23.2379C141.019 23.0663 141.43 22.8517 141.78 22.5941C142.13 22.3364 142.445 22.0224 142.724 21.6524C142.741 21.6309 142.756 21.6076 142.772 21.586C142.821 21.7363 142.877 21.8807 142.942 22.0145C143.174 22.4869 143.488 22.8517 143.887 23.1094C144.284 23.3668 144.753 23.5091 145.291 23.5359C145.828 23.5625 146.415 23.4634 147.05 23.2379C147.523 23.0663 147.935 22.8517 148.285 22.5941C148.634 22.3364 148.948 22.0224 149.229 21.6524C149.508 21.2818 149.763 20.8552 149.995 20.3723C150.226 19.8893 150.46 19.3368 150.697 18.7141C150.74 18.5425 150.699 18.3895 150.576 18.2553Z" fill="black"/>
</g>
<defs>
<clipPath id="clip0_11_369">
<rect width="150.512" height="33" fill="white" transform="translate(0.212158)"/>
</clipPath>
</defs>
</svg>
