<svg width="28" height="40" viewBox="0 0 28 40" fill="none" xmlns="http://www.w3.org/2000/svg">
<path d="M14.7801 18.4828C13.3434 19.0979 11.7129 19.7953 9.59965 19.7953C8.71562 19.7935 7.8359 19.6723 6.98438 19.4348L8.44591 34.4403C8.49765 35.0675 8.78336 35.6523 9.24633 36.0786C9.70929 36.5048 10.3156 36.7414 10.945 36.7413C10.945 36.7413 13.0173 36.8489 13.7087 36.8489C14.453 36.8489 16.6846 36.7413 16.6846 36.7413C17.3138 36.7413 17.92 36.5046 18.3828 36.0784C18.8457 35.6521 19.1313 35.0674 19.1831 34.4403L20.7485 17.8586C20.0489 17.6197 19.3429 17.4609 18.547 17.4609C17.1705 17.4604 16.0614 17.9345 14.7801 18.4828Z" fill="#FFDD00"/>
<path d="M27.508 10.6911L27.2879 9.58098C27.0904 8.58492 26.6421 7.64375 25.6197 7.28374C25.292 7.16858 24.9201 7.11908 24.6688 6.88069C24.4175 6.6423 24.3433 6.27207 24.2852 5.92875C24.1775 5.29861 24.0764 4.66793 23.966 4.03887C23.8708 3.49806 23.7955 2.89052 23.5474 2.39437C23.2245 1.72817 22.5546 1.33857 21.8884 1.08081C21.547 0.953382 21.1986 0.845582 20.8449 0.757941C19.1805 0.318833 17.4306 0.157397 15.7183 0.0653782C13.663 -0.0480303 11.6023 -0.0138619 9.55192 0.167621C8.0258 0.306456 6.41843 0.474351 4.96819 1.00225C4.43814 1.19543 3.89195 1.42736 3.4889 1.83687C2.99436 2.34002 2.83293 3.11814 3.19401 3.74559C3.45069 4.19116 3.88549 4.50596 4.34666 4.71421C4.94736 4.98254 5.5747 5.18673 6.21825 5.32337C8.0102 5.71942 9.86618 5.87494 11.6969 5.94113C13.7259 6.02302 15.7583 5.95665 17.7776 5.74256C18.277 5.68767 18.7755 5.62184 19.2731 5.54507C19.8591 5.4552 20.2352 4.68892 20.0625 4.1551C19.8559 3.51689 19.3005 3.26935 18.6725 3.36568C18.58 3.38021 18.488 3.39366 18.3954 3.40711L18.3287 3.4168C18.1159 3.44371 17.9032 3.46882 17.6905 3.49214C17.251 3.53949 16.8105 3.57824 16.3688 3.60837C15.3798 3.67725 14.388 3.709 13.3968 3.71061C12.4228 3.71061 11.4483 3.68317 10.4764 3.61913C10.033 3.59007 9.59066 3.55312 9.1494 3.50828C8.94868 3.48729 8.7485 3.46523 8.54832 3.44048L8.35782 3.41626L8.31639 3.41034L8.1189 3.38182C7.71531 3.32101 7.31172 3.25106 6.91243 3.16657C6.87214 3.15763 6.8361 3.13522 6.81027 3.10303C6.78444 3.07084 6.77036 3.0308 6.77036 2.98953C6.77036 2.94826 6.78444 2.90822 6.81027 2.87603C6.8361 2.84384 6.87214 2.82143 6.91243 2.81249H6.91996C7.26598 2.73877 7.61468 2.67581 7.96446 2.62092C8.08105 2.60262 8.198 2.58468 8.31531 2.56711H8.31854C8.53756 2.55258 8.75765 2.51329 8.97559 2.48746C10.8717 2.29023 12.7792 2.22299 14.6845 2.28621C15.6096 2.31311 16.534 2.36746 17.4548 2.4611C17.6528 2.48154 17.8498 2.50307 18.0467 2.52729C18.122 2.53643 18.1979 2.54719 18.2738 2.55634L18.4266 2.57841C18.8722 2.64477 19.3154 2.72531 19.7563 2.82002C20.4096 2.96209 21.2485 3.00837 21.5391 3.72407C21.6317 3.95115 21.6736 4.20353 21.7248 4.44192L21.7899 4.74596C21.7916 4.75141 21.7928 4.75699 21.7936 4.76264C21.9476 5.48014 22.1016 6.19763 22.2559 6.91513C22.2672 6.96813 22.2675 7.0229 22.2567 7.07601C22.2459 7.12912 22.2243 7.17943 22.1932 7.22382C22.1621 7.2682 22.1221 7.3057 22.0759 7.33397C22.0297 7.36224 21.9781 7.38068 21.9244 7.38814H21.9201L21.8259 7.40105L21.7328 7.41343C21.438 7.45182 21.1427 7.48769 20.8471 7.52105C20.2648 7.58742 19.6817 7.64482 19.0977 7.69325C17.9371 7.78976 16.7742 7.85308 15.609 7.88321C15.0153 7.899 14.4217 7.90635 13.8284 7.90527C11.4666 7.90341 9.10678 7.76614 6.76068 7.49415C6.50668 7.46401 6.25269 7.43173 5.9987 7.3989C6.19565 7.42419 5.85556 7.37953 5.78668 7.36984C5.62524 7.34724 5.46381 7.32374 5.30237 7.29935C4.76048 7.21809 4.22182 7.118 3.68101 7.03029C3.02719 6.92266 2.40189 6.97648 1.8105 7.29935C1.32505 7.56499 0.932149 7.97235 0.684209 8.46707C0.429139 8.99443 0.353264 9.56861 0.239182 10.1353C0.125101 10.7019 -0.0524802 11.3116 0.014785 11.8933C0.15954 13.1487 1.03722 14.169 2.29965 14.3972C3.48729 14.6124 4.68138 14.7868 5.8787 14.9353C10.582 15.5113 15.3337 15.5802 20.0517 15.1409C20.436 15.105 20.8196 15.0659 21.2028 15.0235C21.3225 15.0104 21.4436 15.0242 21.5572 15.0639C21.6709 15.1036 21.7742 15.1682 21.8596 15.2531C21.9451 15.3379 22.0105 15.4407 22.051 15.5541C22.0915 15.6675 22.1062 15.7885 22.0939 15.9082L21.9745 17.0695C21.7337 19.4161 21.493 21.7624 21.2523 24.1087C21.0012 26.5725 20.7484 29.0362 20.4941 31.4998C20.4223 32.1936 20.3506 32.8872 20.2788 33.5807C20.21 34.2636 20.2003 34.968 20.0706 35.6428C19.8661 36.7039 19.1477 37.3556 18.0994 37.594C17.1391 37.8125 16.158 37.9273 15.1731 37.9362C14.0813 37.9422 12.99 37.8937 11.8981 37.8996C10.7326 37.9061 9.30492 37.7985 8.40518 36.931C7.61468 36.169 7.50544 34.976 7.39782 33.9444C7.25432 32.5787 7.11207 31.2131 6.97109 29.8477L6.18005 22.2554L5.66829 17.3429C5.65968 17.2616 5.65107 17.1814 5.643 17.0996C5.58166 16.5136 5.16676 15.94 4.51295 15.9696C3.9533 15.9943 3.31724 16.47 3.38289 17.0996L3.76227 20.7416L4.54685 28.2753C4.77035 30.4153 4.99331 32.5556 5.21573 34.6962C5.25878 35.1063 5.29914 35.5174 5.34434 35.9274C5.59026 38.1682 7.30149 39.3757 9.42061 39.7158C10.6583 39.9149 11.9261 39.9558 13.1821 39.9762C14.7921 40.0021 16.4183 40.064 18.002 39.7723C20.3488 39.3418 22.1095 37.7748 22.3608 35.3441C22.4326 34.6424 22.5043 33.9405 22.5761 33.2384C22.8146 30.9166 23.0529 28.5946 23.2907 26.2724L24.0688 18.6849L24.4256 15.2076C24.4434 15.0352 24.5162 14.873 24.6333 14.7452C24.7503 14.6174 24.9055 14.5306 25.0757 14.4978C25.7467 14.367 26.3881 14.1437 26.8654 13.633C27.6253 12.8199 27.7765 11.7598 27.508 10.6911ZM2.26521 11.4413C2.27543 11.4364 2.2566 11.5241 2.24853 11.565C2.24691 11.5032 2.25014 11.4483 2.26521 11.4413ZM2.33032 11.945C2.33571 11.9412 2.35185 11.9627 2.36853 11.9885C2.34324 11.9649 2.32763 11.9471 2.33032 11.945ZM2.39436 12.0294C2.42988 12.0935 2.4175 12.0687 2.39436 12.0294ZM2.52297 12.1338H2.5262C2.5262 12.1376 2.53212 12.1414 2.53427 12.1451C2.5307 12.141 2.52728 12.1372 2.52297 12.1338ZM25.0444 11.9778C24.8034 12.207 24.4401 12.3136 24.0812 12.3668C20.0561 12.9642 15.9722 13.2666 11.903 13.1331C8.99065 13.0336 6.10901 12.7102 3.22576 12.3028C2.94324 12.263 2.63705 12.2113 2.44279 12.0031C2.07687 11.6102 2.2566 10.8192 2.35185 10.3446C2.43902 9.90978 2.60584 9.33022 3.12298 9.26834C3.93016 9.17363 4.86757 9.51426 5.66614 9.63533C6.62758 9.78206 7.59262 9.89955 8.56123 9.9878C12.6951 10.3645 16.8984 10.3058 21.0139 9.7548C21.764 9.65399 22.5115 9.53686 23.2563 9.4034C23.9198 9.28448 24.6554 9.06116 25.0563 9.74834C25.3313 10.2165 25.3679 10.8429 25.3253 11.3719C25.3122 11.6023 25.2121 11.8191 25.0444 11.9778Z" fill="#0D0C22"/>
</svg>
