<svg width="256" height="60" viewBox="0 0 256 60" fill="none" xmlns="http://www.w3.org/2000/svg">
<g clip-path="url(#clip0_74_214)">
<mask id="mask0_74_214" style="mask-type:luminance" maskUnits="userSpaceOnUse" x="-50" y="-50" width="356" height="160">
<path d="M-49.9427 -49.9083H305.9V109.909H-49.9427V-49.9083Z" fill="white"/>
</mask>
<g mask="url(#mask0_74_214)">
<path fill-rule="evenodd" clip-rule="evenodd" d="M29.9657 59.9658C46.5152 59.9658 59.9314 46.5497 59.9314 30.0001C59.9314 13.4506 46.5152 0.034462 29.9657 0.034462C13.4161 0.034462 0 13.4506 0 30.0001C0 46.5497 13.4161 59.9658 29.9657 59.9658ZM25.4708 30.0001H33.9611C36.4432 30.0001 38.4559 27.9874 38.4559 25.5052C38.4559 23.0231 36.4432 21.0104 33.9611 21.0104H25.4708V30.0001ZM19.4777 15.0172H33.9611C39.7534 15.0172 44.4491 19.7129 44.4491 25.5052C44.4491 31.2976 39.7534 35.9932 33.9611 35.9932H25.4708V44.9829H19.4777V15.0172Z" fill="black"/>
<path d="M91.4123 26.3372C91.4123 24.689 90.145 23.6887 88.4991 23.6887H84.0867V28.9557H88.4991C90.1472 28.9557 91.4123 27.9553 91.4123 26.3372ZM79.9084 39.9885V20.0114H89.0862C93.3528 20.0114 95.6786 22.8946 95.6786 26.3372C95.6786 29.7497 93.3263 32.6329 89.0862 32.6329H84.0862V39.9885H79.9084ZM98.2182 39.9885V25.4242H101.953V27.337C102.983 26.1009 104.72 25.0721 106.485 25.0721V28.7194C106.219 28.6607 105.896 28.632 105.455 28.632C104.219 28.632 102.571 29.3375 101.953 30.2502V39.9885H98.2182ZM119.053 32.5153C119.053 30.3089 117.754 28.396 115.407 28.396C113.081 28.396 111.787 30.3089 111.787 32.5153C111.787 34.7518 113.081 36.6606 115.407 36.6606C117.759 36.6606 119.053 34.749 119.053 32.5153ZM107.901 32.5153C107.901 28.4849 110.723 25.0721 115.404 25.0721C120.111 25.0721 122.936 28.4847 122.936 32.5153C122.936 36.546 120.112 39.9885 115.404 39.9885C110.726 39.9885 107.901 36.546 107.901 32.5153ZM135.509 35.0449V30.0142C134.89 29.0728 133.537 28.396 132.301 28.396C130.154 28.396 128.683 30.0731 128.683 32.5153C128.683 34.9865 130.157 36.6606 132.301 36.6606C133.537 36.6606 134.89 35.9864 135.509 35.0424M135.509 39.9858V37.8083C134.39 39.2204 132.862 39.9858 131.125 39.9858C127.565 39.9858 124.829 37.2789 124.829 32.5126C124.829 27.8939 127.507 25.0694 131.125 25.0694C132.801 25.0694 134.39 25.775 135.509 27.2459V20.0114H139.274V39.9885H135.509V39.9858ZM152.582 39.9883V37.8407C151.612 38.8995 149.906 39.9883 147.582 39.9883C144.461 39.9883 142.993 38.2815 142.993 35.5184V25.4267H146.728V34.0453C146.728 36.0168 147.758 36.6636 149.346 36.6636C150.788 36.6636 151.935 35.8695 152.582 35.0454V25.4244H156.319V39.9885H152.582V39.9883ZM159.125 32.5151C159.125 28.1611 162.301 25.0719 166.657 25.0719C169.57 25.0719 171.335 26.3367 172.277 27.6314L169.833 29.925C169.157 28.9249 168.128 28.3955 166.837 28.3955C164.57 28.3955 162.982 30.0437 162.982 32.5148C162.982 34.986 164.57 36.6601 166.837 36.6601C168.13 36.6601 169.16 36.072 169.833 35.1006L172.277 37.398C171.335 38.693 169.57 39.9875 166.657 39.9875C162.302 39.9875 159.125 36.8986 159.125 32.5143M175.489 36.0753V28.6907H173.137V25.4244H175.489V21.5414H179.226V25.4244H182.108V28.6907H179.226V35.0751C179.226 35.9866 179.696 36.6633 180.52 36.6633C181.078 36.6633 181.61 36.4573 181.813 36.2226L182.609 39.0758C182.05 39.5765 181.049 39.9885 179.487 39.9885C176.869 39.9885 175.487 38.6351 175.487 36.0755M206.039 39.9885V31.3679H196.77V39.9885H192.597V20.0114H196.773V27.7193H206.041V20.0114H210.248V39.9885H206.039ZM223.618 39.9885V37.841C222.648 38.8998 220.942 39.9885 218.619 39.9885C215.497 39.9885 214.029 38.2817 214.029 35.5186V25.4269H217.764V34.0453C217.764 36.0168 218.794 36.6636 220.382 36.6636C221.824 36.6636 222.972 35.8695 223.618 35.0454V25.4244H227.356V39.9885H223.618ZM240.661 39.9885V31.0445C240.661 29.0728 239.633 28.396 238.042 28.396C236.569 28.396 235.455 29.2201 234.806 30.0442V39.9885H231.071V25.4242H234.806V27.2486C235.719 26.1898 237.484 25.0721 239.779 25.0721C242.927 25.0721 244.424 26.8366 244.424 29.6019V39.9885H240.658H240.661ZM248.88 36.0755V28.691H246.528V25.4247H248.88V21.5416H252.618V25.4247H255.499V28.691H252.618V35.0754C252.618 35.9869 253.087 36.6636 253.911 36.6636C254.47 36.6636 255.001 36.4576 255.21 36.2228L256.003 39.0761C255.444 39.5767 254.443 39.9888 252.881 39.9888C250.263 39.9888 248.881 38.6353 248.881 36.0757" fill="black"/>
</g>
</g>
<defs>
<clipPath id="clip0_74_214">
<rect width="256" height="60" fill="white"/>
</clipPath>
</defs>
</svg>
