<svg width="79" height="19" viewBox="0 0 79 19" fill="none" xmlns="http://www.w3.org/2000/svg">
<path fill-rule="evenodd" clip-rule="evenodd" d="M3.10326 0V15.9319H8.93198V18.6799H0V0H3.10326ZM19.8868 7.92535V6.24516H22.8276V18.6799H19.8861V16.9984C19.4909 17.6211 18.9284 18.1106 18.1992 18.4661C17.4715 18.8216 16.7382 18.9993 16.0007 18.9993C15.0472 18.9993 14.1745 18.8257 13.3833 18.4793C12.6131 18.1476 11.9196 17.6617 11.3459 17.0518C10.7787 16.4463 10.3304 15.7403 10.0243 14.9703C9.70618 14.1722 9.54572 13.3205 9.55166 12.4619C9.55166 11.5905 9.70919 10.7588 10.0243 9.96656C10.3284 9.19187 10.7768 8.4814 11.3459 7.87258C11.9197 7.26256 12.6131 6.77646 13.3833 6.44442C14.1745 6.09727 15.0472 5.9237 16.0007 5.9237C16.7382 5.9237 17.4715 6.10213 18.1999 6.45831C18.9284 6.81378 19.4909 7.30326 19.8868 7.92535ZM19.6163 13.983C19.7974 13.4965 19.889 12.9814 19.8868 12.4625C19.8868 11.9279 19.7962 11.4211 19.6163 10.9407C19.4474 10.4785 19.1911 10.0529 18.8614 9.68676C18.5315 9.32672 18.1323 9.03632 17.6876 8.83279C17.2283 8.61964 16.7201 8.51272 16.1625 8.51272C15.6048 8.51272 15.1009 8.61964 14.6513 8.83279C14.2017 9.04663 13.8148 9.33129 13.4914 9.68676C13.1624 10.0511 12.9103 10.4775 12.7497 10.9407C12.5771 11.4293 12.4903 11.9439 12.4932 12.4619C12.4932 12.9958 12.5782 13.5033 12.7497 13.9824C12.9101 14.4458 13.1623 14.8724 13.4914 15.2369C13.8178 15.5949 14.212 15.8851 14.6513 16.0909C15.1009 16.3048 15.6048 16.411 16.1625 16.411C16.7201 16.411 17.229 16.3048 17.6876 16.0916C18.1324 15.8883 18.5316 15.5978 18.8614 15.2376C19.1913 14.8713 19.4475 14.4455 19.6163 13.983ZM25.1481 18.6792V6.24446H33.1356V9.10634H28.089V18.6792H25.1481ZM43.7942 7.92535V6.24516H46.735V18.6799H43.7935V16.9984C43.3975 17.6211 42.8357 18.1106 42.1066 18.4661C41.3789 18.8216 40.6456 18.9993 39.9081 18.9993C38.9539 18.9993 38.0819 18.8257 37.2907 18.4793C36.5205 18.1476 35.827 17.6617 35.2532 17.0518C34.686 16.4463 34.2378 15.7403 33.9316 14.9703C33.6136 14.1722 33.4531 13.3205 33.459 12.4619C33.459 11.5905 33.6159 10.7588 33.9316 9.96656C34.2358 9.19187 34.6842 8.4814 35.2532 7.87258C35.827 7.26256 36.5205 6.77646 37.2907 6.44442C38.0819 6.09727 38.9539 5.9237 39.9081 5.9237C40.6456 5.9237 41.3789 6.10213 42.1073 6.45831C42.8357 6.81378 43.3975 7.30326 43.7942 7.92535ZM43.5237 13.983C43.7045 13.4964 43.7959 12.9814 43.7935 12.4625C43.7935 11.9279 43.7029 11.4211 43.5237 10.9407C43.3545 10.4785 43.0981 10.0528 42.7681 9.68676C42.4382 9.32672 42.039 9.03632 41.5943 8.83279C41.1356 8.61964 40.6275 8.51272 40.0698 8.51272C39.5122 8.51272 39.0082 8.61964 38.5586 8.83279C38.109 9.04663 37.7222 9.33129 37.3987 9.68676C37.0696 10.0511 36.8171 10.4774 36.6564 10.9407C36.4837 11.4293 36.3969 11.9439 36.3999 12.4619C36.3999 12.9958 36.4849 13.5033 36.6564 13.9824C36.8169 14.4459 37.0694 14.8725 37.3987 15.2369C37.7252 15.5949 38.1193 15.8851 38.5586 16.0909C39.0082 16.3048 39.5122 16.411 40.0698 16.411C40.6275 16.411 41.1363 16.3048 41.5943 16.0916C42.0391 15.8883 42.4383 15.5978 42.7681 15.2376C43.0982 14.8714 43.3547 14.4455 43.5237 13.983ZM58.5263 6.24446H61.5055L56.6777 18.6792H52.982L48.1542 6.24446H51.1334L54.8298 15.7667L58.5263 6.24446ZM67.9197 5.92509C71.925 5.92509 74.656 9.43474 74.143 13.5429H64.3857C64.3857 14.6155 65.4807 16.6894 68.0814 16.6894C70.319 16.6894 71.8176 14.7433 71.819 14.7419L73.8056 16.2624C72.0295 18.1384 70.5748 19 68.2968 19C64.2261 19 61.4678 16.4533 61.4678 12.4625C61.4678 8.85223 64.3188 5.92509 67.9197 5.92509ZM64.3933 11.3815H71.4419C71.4203 11.142 71.0383 8.235 67.8967 8.235C64.7551 8.235 64.4164 11.142 64.3933 11.3815ZM76.0585 18.6792V0H79V18.6792H76.0585Z" fill="black"/>
</svg>
