<svg width="877" height="196" viewBox="0 0 877 196" fill="none" xmlns="http://www.w3.org/2000/svg">
<path d="M817.526 195.356C806.746 195.356 796.886 193.647 787.946 190.229C779.138 186.811 772.236 182.012 767.24 175.833L779.664 154.93C783.739 159.794 788.866 163.607 795.045 166.368C801.356 169.128 808.061 170.509 815.16 170.509C824.888 170.509 832.579 168.011 838.232 163.015C844.017 158.151 846.909 151.446 846.909 142.901V135.407H846.712C843.425 141.323 838.955 145.99 833.302 149.408C827.649 152.827 821.536 154.536 814.963 154.536C803.394 154.536 794.191 150.855 787.355 143.492C780.65 136.13 777.297 126.402 777.297 114.307V49.0337H807.075V109.574C807.075 115.753 808.652 120.749 811.807 124.561C815.094 128.242 819.63 130.083 825.414 130.083C831.462 130.083 836.523 128.045 840.599 123.97C844.674 119.763 846.712 114.438 846.712 107.996V49.0337H876.292L876.489 143.69C876.489 154.207 874.057 163.344 869.193 171.1C864.328 178.857 857.426 184.839 848.487 189.046C839.678 193.253 829.358 195.356 817.526 195.356Z" fill="black"/>
<path d="M714.739 153.944C703.564 153.944 693.704 151.709 685.159 147.239C676.745 142.77 670.171 136.459 665.439 128.308C660.837 120.026 658.537 110.429 658.537 99.517C658.537 88.6053 660.837 79.074 665.439 70.923C670.171 62.6406 676.745 56.2645 685.159 51.7946C693.704 47.3248 703.564 45.0898 714.739 45.0898C725.913 45.0898 735.708 47.3248 744.121 51.7946C752.535 56.2645 759.043 62.6406 763.644 70.923C768.377 79.074 770.743 88.6053 770.743 99.517C770.743 110.429 768.377 120.026 763.644 128.308C759.043 136.459 752.535 142.77 744.121 147.239C735.708 151.709 725.913 153.944 714.739 153.944ZM714.739 129.097C722.89 129.097 729.397 126.468 734.261 121.209C739.126 115.819 741.558 108.588 741.558 99.517C741.558 90.4458 739.126 83.2152 734.261 77.825C729.397 72.4349 722.89 69.7398 714.739 69.7398C706.456 69.7398 699.883 72.4349 695.019 77.825C690.286 83.2152 687.919 90.4458 687.919 99.517C687.919 108.588 690.286 115.819 695.019 121.209C699.883 126.468 706.456 129.097 714.739 129.097Z" fill="black"/>
<path d="M635.835 35.0325C630.577 35.0325 626.304 33.4549 623.017 30.2997C619.731 27.013 618.087 22.8061 618.087 17.6789C618.087 12.5517 619.731 8.41046 623.017 5.25526C626.304 2.10006 630.577 0.522461 635.835 0.522461C641.094 0.522461 645.367 2.10006 648.653 5.25526C651.94 8.41046 653.583 12.5517 653.583 17.6789C653.583 22.8061 651.94 27.013 648.653 30.2997C645.367 33.4549 641.094 35.0325 635.835 35.0325ZM614.143 195.356C605.204 195.356 597.776 194.239 591.86 192.004L594.818 170.903C598.236 172.086 602.048 172.678 606.255 172.678C610.857 172.678 614.472 171.232 617.101 168.34C619.731 165.447 621.045 161.372 621.045 156.113V49.0337H650.625V160.254C650.625 171.166 647.405 179.712 640.963 185.89C634.521 192.201 625.581 195.356 614.143 195.356Z" fill="black"/>
<path d="M576.275 45.8784C586.792 45.8784 595.009 49.0336 600.925 55.344C606.841 61.5229 609.799 70.134 609.799 81.1772V150H580.219V89.6568C580.219 83.8723 578.641 79.2709 575.486 75.8528C572.463 72.4347 568.321 70.7256 563.063 70.7256C556.489 70.7256 551.099 72.8948 546.892 77.2332C542.685 81.5716 540.582 87.2904 540.582 94.3896V150H510.805V49.0336H535.849L540.385 66.19H540.582C544.526 59.6167 549.456 54.6209 555.372 51.2028C561.419 47.6532 568.387 45.8784 576.275 45.8784Z" fill="black"/>
<path d="M439.372 195.356C428.854 195.356 418.797 193.581 409.2 190.032C399.603 186.482 392.175 181.749 386.917 175.833L398.551 154.141C402.758 159.137 408.346 163.081 415.313 165.973C422.413 168.997 429.643 170.509 437.005 170.509C447.26 170.509 455.476 167.682 461.655 162.029C467.834 156.376 470.924 148.883 470.924 139.548V132.252H470.727C467.045 137.379 462.115 141.52 455.937 144.676C449.758 147.831 443.316 149.408 436.611 149.408C427.671 149.408 419.783 147.305 412.947 143.098C406.242 138.891 401.049 132.909 397.368 125.153C393.687 117.396 391.847 108.391 391.847 98.1365C391.847 87.7506 393.621 78.6137 397.171 70.7257C400.852 62.8377 406.045 56.7902 412.75 52.5833C419.455 48.2449 427.145 46.0757 435.822 46.0757C442.921 46.0757 449.692 47.9819 456.134 51.7945C462.576 55.607 467.506 60.6028 470.924 66.7817H471.121L475.459 49.0337H500.504V140.337C500.504 151.38 497.94 161.043 492.813 169.326C487.817 177.608 480.718 183.984 471.515 188.454C462.313 193.055 451.598 195.356 439.372 195.356ZM446.865 125.153C454.359 125.153 460.406 122.655 465.008 117.659C469.741 112.532 472.107 106.024 472.107 98.1365C472.107 90.117 469.741 83.478 465.008 78.2193C460.406 72.9606 454.359 70.3313 446.865 70.3313C439.24 70.3313 433.061 72.8949 428.329 78.0221C423.727 83.0178 421.427 89.7226 421.427 98.1365C421.427 106.156 423.727 112.664 428.329 117.659C433.061 122.655 439.24 125.153 446.865 125.153Z" fill="black"/>
<path d="M369.136 35.0325C363.746 35.0325 359.408 33.4549 356.121 30.2997C352.966 27.1445 351.388 22.9375 351.388 17.6789C351.388 12.5517 353.032 8.41046 356.318 5.25526C359.605 2.10006 363.878 0.522461 369.136 0.522461C374.526 0.522461 378.865 2.10006 382.151 5.25526C385.438 8.41046 387.081 12.5517 387.081 17.6789C387.081 22.9375 385.438 27.1445 382.151 30.2997C378.865 33.4549 374.526 35.0325 369.136 35.0325ZM354.149 49.0337H383.729V150H354.149V49.0337Z" fill="black"/>
<path d="M298.719 153.549C284.521 153.549 272.755 150.46 263.42 144.281C254.218 138.102 249.288 129.425 248.63 118.251L274.858 115.293C275.384 120.683 277.947 125.021 282.549 128.308C287.282 131.595 293.198 133.238 300.297 133.238C306.081 133.238 310.946 132.12 314.89 129.885C318.965 127.651 321.003 124.824 321.003 121.406C321.003 118.514 319.359 116.147 316.073 114.307C312.786 112.466 307.593 111.02 300.494 109.968L284.915 107.602C273.741 105.761 265.655 102.54 260.66 97.9391C255.664 93.3378 253.166 86.8959 253.166 78.6135C253.297 68.4906 257.307 60.4711 265.195 54.5551C273.215 48.5076 283.666 45.4839 296.55 45.4839C308.645 45.4839 318.768 48.2447 326.919 53.7663C335.201 59.2879 340 66.4528 341.314 75.2611L315.876 79.4023C315.481 75.0639 313.378 71.6458 309.565 69.1479C305.884 66.5186 301.217 65.2039 295.564 65.2039C290.831 65.2039 286.887 66.2556 283.732 68.3591C280.577 70.4626 278.999 73.0262 278.999 76.0499C278.868 78.5478 280.117 80.5855 282.746 82.1631C285.507 83.7407 289.911 85.0554 295.958 86.1071L311.34 88.6707C324.092 90.9056 333.295 94.4552 338.948 99.3195C344.733 104.184 347.625 110.823 347.625 119.237C347.625 126.073 345.521 132.12 341.314 137.379C337.239 142.506 331.454 146.516 323.961 149.408C316.599 152.169 308.185 153.549 298.719 153.549Z" fill="black"/>
<path d="M198.394 153.944C186.825 153.944 176.504 151.644 167.433 147.042C158.362 142.309 151.263 135.736 146.136 127.322C141.008 118.908 138.445 109.377 138.445 98.7282C138.445 88.2109 140.745 78.9425 145.347 70.923C149.948 62.7721 156.324 56.4617 164.475 51.9918C172.758 47.3905 182.223 45.0898 192.872 45.0898C203.258 45.0898 212.395 47.259 220.283 51.5974C228.171 55.9358 234.218 62.049 238.425 69.937C242.764 77.6936 244.933 86.5676 244.933 96.559C244.933 100.897 244.538 104.644 243.75 107.799H169.011C169.931 115.03 173.152 120.815 178.674 125.153C184.327 129.491 191.294 131.661 199.577 131.661C205.756 131.661 211.54 130.412 216.93 127.914C222.321 125.416 226.462 122.129 229.354 118.054L247.102 130.675C243.158 137.642 236.782 143.295 227.974 147.634C219.165 151.841 209.305 153.944 198.394 153.944ZM214.761 90.0514C214.235 82.6893 212 76.9705 208.056 72.895C204.244 68.8196 199.182 66.7818 192.872 66.7818C186.562 66.7818 181.237 68.951 176.899 73.2894C172.692 77.4964 170.063 83.0837 169.011 90.0514H214.761Z" fill="black"/>
<path d="M0.272217 9.59375H58.4462C82.7675 9.59375 101.436 15.6412 114.451 27.7361C127.466 39.8311 133.974 57.1847 133.974 79.797C133.974 102.409 127.466 119.763 114.451 131.858C101.436 143.953 82.7675 150 58.4462 150H0.272217V9.59375ZM58.4462 123.378C72.1187 123.378 82.5704 119.631 89.801 112.138C97.1632 104.513 100.844 93.7324 100.844 79.797C100.844 65.8615 97.1632 55.1469 89.801 47.6533C82.5704 40.0283 72.1187 36.2157 58.4462 36.2157H32.613V123.378H58.4462Z" fill="black"/>
</svg>
