<svg width="318" height="318" viewBox="0 0 318 318" fill="none" xmlns="http://www.w3.org/2000/svg">
<circle cx="158.566" cy="159.109" r="141" transform="rotate(-7.67407 158.566 159.109)" fill="#FF0084"/>
<g clip-path="url(#clip0_32_62)">
<path d="M233.655 174.367C258.237 155.385 262.793 119.948 243.812 95.3662C242.022 93.0484 238.693 92.6204 236.375 94.4101C234.057 96.1999 233.629 99.5288 235.419 101.847C250.825 121.798 247.126 150.568 227.175 165.974C207.224 181.38 178.453 177.681 163.047 157.73C161.258 155.412 157.929 154.984 155.611 156.774C153.293 158.563 152.865 161.892 154.655 164.21C173.636 188.792 209.073 193.348 233.655 174.367Z" fill="black"/>
<path d="M205.019 81.2454C211.462 76.27 220.398 76.7457 226.272 81.9629C227.505 83.0583 227.427 85.0131 226.119 86.023L208.561 99.5804C204.516 102.704 198.637 99.892 198.534 94.7891C198.435 89.6822 200.671 84.6026 205.019 81.2454Z" fill="black"/>
<path d="M150.806 123.107C155.154 119.75 160.634 118.872 165.541 120.258C170.456 121.645 171.685 128.047 167.64 131.171L150.082 144.728C148.774 145.738 146.863 145.319 146.115 143.85C142.554 136.847 144.354 128.081 150.797 123.106L150.806 123.107Z" fill="black"/>
</g>
<defs>
<clipPath id="clip0_32_62">
<rect width="112.643" height="91.2066" fill="white" transform="matrix(-0.7915 0.611169 0.611169 0.7915 222.491 67.7544)"/>
</clipPath>
</defs>
</svg>
