<svg width="122" height="20" viewBox="0 0 122 20" fill="none" xmlns="http://www.w3.org/2000/svg">
<g clip-path="url(#clip0_11_366)">
<path d="M111.455 0H101.697V19.5152H121.212V9.75758C121.212 4.36364 116.848 0 111.455 0ZM3.43434 19.4949H0.020202V7.77778L0 4.50505H3.15152V6.06061H3.17172C3.77778 5.07071 5.29293 4.06061 7.43434 4.06061C11.0909 4.06061 13.8788 6.46465 13.8788 11.2727V19.4747H10.4444V11.2121C10.4444 8.74747 9.31313 7.11111 6.92929 7.11111C4.56566 7.11111 3.43434 8.76768 3.43434 11.2121V19.4949Z" fill="black"/>
<path d="M31.5152 15.0303C30.6061 17.8384 28.101 19.9394 24.1818 19.9394C19.7778 19.9394 16.5657 16.7879 16.5657 11.9394C16.5657 7.15151 19.899 4.06061 24.1212 4.06061C28.3233 4.06061 31.3738 7.11111 31.3738 11.9192V12.8687H20.0404C20.303 15.5152 21.9192 17.0909 24.3637 17.0909C26.303 17.0909 27.394 16.2222 27.8384 15.0303H31.5152ZM20.0404 10.2626H27.798C27.596 8.34343 26.3637 6.72727 24.0202 6.72727C21.798 6.72727 20.3435 8.38384 20.0404 10.2626ZM41.6768 19.9394C37.5152 19.9394 33.9192 17.1919 33.9192 12C33.9192 6.84848 37.6364 4.06061 41.798 4.06061C45.596 4.06061 48.3233 6.36364 48.9495 9.37374H45.3334C44.9091 8.14141 43.7374 7.15152 41.798 7.15152C39.1919 7.15152 37.3536 9.07071 37.3536 12C37.3536 14.9293 39.1919 16.8889 41.7576 16.8889C43.798 16.8889 45.0505 15.8182 45.4344 14.5859H49.0707C48.4445 17.5758 45.4546 19.9394 41.6768 19.9394ZM59.3132 19.6162C55.8182 19.6162 53.5556 17.8182 53.5556 13.7172V7.51515H50.5657V4.52525H53.5556V0H55.1111C56.1414 0 56.9697 0.828283 56.9697 1.85859V4.52525H61.1313V7.51515H56.9697V13.5354C56.9697 15.9394 58.4041 16.5253 59.9596 16.5253C60.4136 16.5275 60.8668 16.4869 61.3132 16.404V19.3939C60.8485 19.5354 60.0606 19.6162 59.3132 19.6162ZM63.7778 12.0404C63.7778 7.33333 66.7475 4.08081 71.3536 4.08081C73.1515 4.08081 75.5758 5.13131 76.202 6.60606H76.2222V4.54545H79.5152L79.495 7.81818V19.5354H76.202V17.4343H76.1818C75.5556 18.9091 73.1919 19.9596 71.3536 19.9596C66.7475 19.9394 63.7778 16.7475 63.7778 12.0404ZM76.1818 12.0404C76.1818 8.9899 74.202 7.21212 71.7172 7.21212C69.1717 7.21212 67.2525 8.9899 67.2525 12.0404C67.2525 15.0909 69.1717 16.8081 71.7172 16.8081C74.101 16.8081 76.1818 15.0909 76.1818 12.0404ZM91.7778 7.51515C88.9293 7.51515 87.1919 9.13131 87.1919 12.1818V19.4949H83.7778V7.77778L83.7374 4.50505H87.0303V6.9697H87.0909C87.6566 5.29293 89.3334 4.06061 91.4748 4.06061C92.0808 4.06061 92.4445 4.12121 92.4445 4.12121V7.51515H91.7778Z" fill="black"/>
</g>
<defs>
<clipPath id="clip0_11_366">
<rect width="121.212" height="20" fill="white"/>
</clipPath>
</defs>
</svg>
