<svg width="319" height="318" viewBox="0 0 319 318" fill="none" xmlns="http://www.w3.org/2000/svg">
<ellipse cx="159.748" cy="158.633" rx="141.5" ry="141" transform="rotate(-7.67407 159.748 158.633)" fill="#0000FE"/>
<g clip-path="url(#clip0_32_108)">
<path d="M91.0332 193.267C62.3041 181.469 48.531 148.501 60.3288 119.772C61.4412 117.063 64.5382 115.769 67.247 116.882C69.9559 117.994 71.2497 121.091 70.1373 123.8C60.5618 147.117 71.7438 173.883 95.0611 183.458C118.378 193.033 145.144 181.851 154.719 158.534C155.832 155.825 158.929 154.532 161.638 155.644C164.346 156.756 165.64 159.853 164.528 162.562C152.73 191.291 119.762 205.064 91.0332 193.267Z" fill="black"/>
<path d="M94.0003 95.8872C86.4698 92.7948 77.9789 95.6185 73.6949 102.204C72.796 103.587 73.3891 105.451 74.9176 106.079L95.4376 114.506C100.165 116.447 105.09 112.18 103.839 107.231C102.582 102.281 99.0816 97.9739 94.0003 95.8872Z" fill="black"/>
<path d="M157.36 121.907C152.279 119.82 146.762 120.424 142.397 123.059C138.023 125.698 138.534 132.197 143.261 134.138L163.781 142.565C165.309 143.193 167.042 142.283 167.374 140.668C168.955 132.972 164.899 124.996 157.369 121.903L157.36 121.907Z" fill="black"/>
</g>
<defs>
<clipPath id="clip0_32_108">
<rect width="112.643" height="91.2066" fill="white" transform="translate(73.5808 87.502) rotate(22.3259)"/>
</clipPath>
</defs>
</svg>
