<?xml version="1.0" encoding="UTF-8"?>
<svg id="Layer_1" xmlns="http://www.w3.org/2000/svg" version="1.1" viewBox="0 0 1178 488">
  <!-- Generator: Adobe Illustrator 29.8.3, SVG Export Plug-In . SVG Version: 2.1.1 Build 3)  -->
  <defs>
    <style>
      .st0, .st1 {
        fill: #021806;
      }

      .st2 {
        fill: #ff0084;
      }

      .st3 {
        fill: #ff5a00;
      }

      .st4 {
        fill: #43ff6c;
      }

      .st5 {
        fill: #ffd817;
      }

      .st1 {
        fill-rule: evenodd;
      }

      .st6 {
        fill: #ff9f00;
      }

      .st7 {
        fill: #fff;
      }

      .st8 {
        fill: #021b07;
      }

      .st9 {
        fill: #021305;
      }

      .st10 {
        fill: #0000fe;
      }
    </style>
  </defs>
  <circle class="st5" cx="833.6" cy="267.8" r="141"/>
  <ellipse class="st5" cx="515.9" cy="302" rx="117" ry="117.5" transform="translate(-35.7 71.6) rotate(-7.7)"/>
  <circle class="st2" cx="1018.6" cy="285.6" r="141"/>
  <ellipse class="st4" cx="159.1" cy="268.6" rx="141.5" ry="141" transform="translate(-34.4 23.6) rotate(-7.7)"/>
  <ellipse class="st10" cx="684.7" cy="158.6" rx="141.5" ry="141" transform="translate(-15.1 92.9) rotate(-7.7)"/>
  <circle class="st2" cx="317.6" cy="208.1" r="141"/>
  <circle class="st3" cx="494.2" cy="140.9" r="92"/>
  <ellipse class="st6" cx="699.7" cy="307" rx="117.5" ry="117" transform="translate(-34.7 96.2) rotate(-7.7)"/>
  <g>
    <path class="st0" d="M672.9,137.5l-7.4,17.7,7.2,3c4.4-6.4,7.9-12.3,10.8-17.4-2.3-.9-6-2.1-10.6-3.3Z"/>
    <path class="st0" d="M642.9,134.5c0-.4.1-.7.2-1.1,1.5,0,2.9-.1,4.3-.1l1.5-3.5c-1.6,0-3.3,0-5,.1.1-.5.3-1.1.4-1.7,1.8,0,3.5,0,5.2-.2l5.5-13.3-1.2-.5,4-3.9v5.6s-1.2-.5-1.2-.5l-5.2,12.6c3.5.1,6.9.4,10,.7l5.6-13.5-1.2-.5,4.5-4.5v6.3c-.1,0-1.3-.5-1.3-.5l-5.4,13c3.5.5,6.5,1.1,9.2,1.7l6.4-15.5-1.7-.7,5.4-4.9.3,7.3-1.6-.7-6.3,15.1c5,1.3,8.9,2.6,11.2,3.6,5-9.6,7.3-16.1,7.9-17.8-.3-.8-.3-1.7,0-2.4l.2-.4-1.6-.7,9.3-9.4h0c0,0,4.1-9.7,4.1-9.7,0,0-23,3.4-44-4.6,0,0-18.5,24-21.4,54.9l1.2.5,4.7-11.2c-1.2,0-2.6,0-4,.2Z"/>
    <path class="st0" d="M661.2,135.2l-6.4,15.5,8.5,3.5,7.2-17.4c-2.8-.6-5.9-1.1-9.3-1.6Z"/>
    <path class="st0" d="M649,134.4l-4.9,11.9,8.7,3.6,6.2-14.9c-3.1-.3-6.5-.6-10-.6Z"/>
    <path class="st0" d="M672.3,132.5c-2.8-.7-5.9-1.2-9.2-1.7l-1.4,3.5c3.4.4,6.5,1.1,9.2,1.7,0,0,1.4-3.5,1.4-3.5Z"/>
    <path class="st0" d="M686,136.5c-2.4-.9-6.2-2.3-11.1-3.5l-1.4,3.5c4.6,1.2,8.3,2.5,10.8,3.4.6-1.2,1.2-2.3,1.8-3.4Z"/>
    <path class="st0" d="M660.9,130.4c-3.1-.3-6.5-.6-10-.7l-1.4,3.5c3.6,0,6.9.3,10.1.6,0,0,1.4-3.4,1.4-3.4Z"/>
    <path class="st0" d="M721.2,159.1c-2.5-2.5-5-4.6-7.6-6.6l-1.4,3.5c2.5,2,5,4.2,7.5,6.7l1.5-3.5Z"/>
    <path class="st0" d="M690.2,143.5c-1.6,5.7-3.2,12.4-4.7,20l7.2,3,7.4-17.7c-4-2.4-7.4-4.2-9.9-5.3Z"/>
    <path class="st0" d="M711.9,151.1c-2.7-2-5.3-3.8-7.7-5.3l-1.4,3.4c2.3,1.4,4.9,3.2,7.7,5.4,0,0,1.4-3.5,1.4-3.5Z"/>
    <path class="st0" d="M716,176.2l1,.4c2.3-2.8,4.5-5.7,6.4-8.6-.9-1.1-1.8-2-2.7-3l-4.7,11.2h0Z"/>
    <path class="st0" d="M702.3,150.2l-7.2,17.4,8.5,3.5,6.4-15.5c-2.7-2.1-5.2-3.9-7.7-5.4Z"/>
    <path class="st0" d="M711.8,156.9l-6.2,14.9,8.8,3.7,4.9-11.9c-2.6-2.4-5.1-4.7-7.5-6.7Z"/>
    <path class="st0" d="M702.6,117.7l-1.6-.7-.2.4c-.3.8-.9,1.3-1.6,1.8-.7,1.5-3.7,7.7-7.1,18.2,2.4,1.1,6.1,2.8,10.6,5.5l6.3-15.1-1.7-.7,5.3-4.9.3,7.3-1.6-.7-6.4,15.5c2.3,1.4,4.9,3.2,7.7,5.3l5.4-12.9-1.2-.5,4.4-4.5v6.4s-1.2-.5-1.2-.5l-5.6,13.5c2.5,2,5,4.1,7.6,6.6l5.2-12.6-1.2-.5,4-4v5.6c0,0-1.1-.5-1.1-.5l-5.5,13.2c1.2,1.2,2.4,2.4,3.5,3.7,11.5-20.1,14.1-39.8,14.1-39.8-19.7-8.9-33.1-26.4-34.2-27.8l-4,9.7-.2,13.1Z"/>
    <path class="st0" d="M702,144.3c-4.3-2.6-8-4.4-10.4-5.5-.4,1.2-.7,2.3-1.1,3.6,2.4,1.1,5.9,2.8,10.1,5.3l1.4-3.4h0Z"/>
    <path class="st0" d="M721.1,164c.9,1,1.9,2.1,2.9,3.1.6-1,1.3-2.1,1.9-3.1-1.1-1.2-2.2-2.4-3.3-3.6l-1.5,3.5h0Z"/>
  </g>
  <ellipse cx="339.9" cy="355.4" rx="117.5" ry="117" transform="translate(-44.4 48.6) rotate(-7.7)"/>
  <g>
    <path class="st1" d="M154,269.9c-2.2.3-3.9,2-5.3,3.5-3.2,3.6-4.9,8.7-3.8,13.5.3,1.3,1.1,2.7,2.5,3.1,1.5.4,3.1-.3,4.4-1.1,2.8-1.8,4.6-4.8,5.7-8,1-2.9,1.2-6.2,0-9.1-.5-1.3-2-2.2-3.4-2h0Z"/>
    <path class="st1" d="M122.5,263.1c-2,.2-3.6,1.7-5,3.1-3.4,3.5-5.3,8.8-4.3,13.7.3,1.3.9,2.7,2.2,3.3,1.4.6,2.9,0,4.2-.7,2.8-1.5,4.6-4.2,5.8-7,1.4-3.2,1.8-7,.5-10.3-.5-1.3-2-2.2-3.4-2h0Z"/>
    <path class="st1" d="M176.4,265.2c.8-3.3,0-6.8-1.9-9.6-1.7-2.4-4.4-4.1-7.3-4.7-33.4-7.2-66.8-14.5-100.2-21.7-4.4-1-9.3,1-11.9,4.7-1.1,1.6-1.7,3.5-2.1,5.4-2.7,12.5-5.5,25.1-8.1,37.6-1.2,5.8,2.7,12,8.4,13.4,16,3.6,32.1,6.9,48.1,10.5,6.5,5.5,12.7,11.2,19.1,16.8-.8-4.4-1.5-8.8-2.3-13.2,12.2,2.6,24.4,5.3,36.6,7.9,5.8,1.1,12-3,13.3-8.8,2.8-12.8,5.6-25.6,8.3-38.4ZM95.2,288.7c-.3,1.9-1.7,4-3.8,4-2,0-3.5-1.6-4.4-3.2-4.2-7.1-5.6-15.3-6.2-23.4-3.2,4-6.4,7.9-9.6,11.9-2.2,2.7-4.5,5.4-7.4,7.3-1.3.8-3.2,1.3-4.3,0-1.6-2.2-1.5-5.1-1.8-7.7-.8-11.8-.2-23.7.4-35.5,0-2,1.3-4.1,3.3-4.4,1.7-.2,3.6.1,4.7,1.5.7,1,.7,2.3.6,3.5-.6,9.1-.9,18.2-.7,27.4,5.1-6.1,10.3-12.3,15.4-18.4.8-.9,1.6-1.8,2.8-2.2,1.5-.6,3.5,0,4.3,1.4.7,1.2.7,2.6.7,4-.2,6,0,12,1,17.8,2.7-8,5.6-16,10.3-23.1,1-1.4,2-2.9,3.3-4,2.3-1.6,5.7-.2,6.5,2.4.5,1.3.2,2.9-.7,4-3.7,4.5-6,9.9-8.2,15.2-2.7,7-5.3,14.1-6.5,21.5ZM128.9,285.8c-2.1,2.5-4.7,4.7-7.8,5.8-4.6,1.6-10,.1-13.4-3.4-2.7-2.8-3.6-6.9-3.6-10.7.3-8.6,4.8-17.3,12.3-21.7,2.1-1.2,4.6-1.7,7-1.5,4,.4,8,2.6,10,6.2,1.6,2.9,2.2,6.4,1.9,9.7-.5,5.7-2.8,11.2-6.5,15.6h0ZM160.6,292.6c-2.2,2.6-4.8,4.9-8,5.9-4.4,1.5-9.5.2-12.9-3-2.3-2.1-3.4-5.2-3.8-8.3-.9-9.2,3.7-18.9,11.4-24.1,2.3-1.4,5-2.2,7.8-2,3.9.4,7.9,2.4,9.9,5.9,1.8,3.1,2.4,6.9,2,10.4-.6,5.5-2.8,10.8-6.4,15Z"/>
  </g>
  <path class="st8" d="M536.4,265.1l-22.2,61.6-10.7-33.3h-15.8l17.7,45.5c1.5,3.9,1.5,8.2,0,12-2,5.1-5.3,9.4-13.3,10.5v13.5c15.6,0,24.1-9.6,31.6-30.7l29.5-79.2h-16.9Z"/>
  <path class="st7" d="M364.7,356.5c0,1.8-.9,2-3.2,2s-2.9-.5-3.2-2.3c-.5-4.8-3.6-8.8-9.1-9.1-1.6-.2-2-.7-2-2.9s.2-2.9,1.8-2.9c9.1.2,15.7,7.7,15.7,15.2ZM378,356.5c0-14.1-9.5-29-31.8-29h-43.8c-.9,0-1.6.5-1.6,1.4s.2.9.7,1.1c1.6,1.4,3.9,2.7,7,4.3,2.9,1.6,5.4,2.5,7.7,3.4.9.5,1.4.9,1.4,1.4,0,.7-.5,1.4-1.6,1.4h-34.7c-1.1-.2-1.6.5-1.6,1.1s.2,1.1.7,1.6c2.7,2.9,7.3,6.6,13.8,10.7,5.7,3.6,12.9,7.5,18.6,10.2.9.5,1.4.9,1.4,1.6s-.5,1.1-1.6,1.1h-16.1c-.9,0-1.4.5-1.4,1.1s.2.9.7,1.4c3.6,3.4,9.5,6.8,17.2,10.2,10.4,4.3,20.9,7,32.7,7,22.5,0,32.2-16.8,32.2-29.9ZM348.8,376.7c-10.9,0-20.2-8.8-20.2-20.2s9.1-19.7,20.2-19.7,20.2,8.8,20.2,19.7-8.8,20.2-20.2,20.2Z"/>
  <g>
    <path class="st9" d="M542.9,132.7l-17,.7,3,4.6-28.3,18.1-28-11.8-32.6,13.6,2.2,5.5,30.3-12.6,28.6,12,30.9-19.7,3,4.7,7.9-15.1Z"/>
    <path class="st9" d="M452,150l20.5-8.6,1,.4v-12.1h-21.5v20.3ZM499,100.3v52.3l1.6.7,19.9-12.7v-40.3h-21.5ZM475.5,142.7l21.5,9v-36.8h-21.5v27.7Z"/>
  </g>
  <path class="st0" d="M342.8,151.3c-.7-4.9-4.3-9.1-8.8-11.1l-32.9-12.5c-4.8-1.7-9.8-1-14,1.9l-27.9,21.5c-3.8,3.2-5.8,8.1-5.2,13l4.6,34.4c1,4.9,4.3,9.1,8.8,11.1l32.6,13c4.8,1.7,10.1.9,14-1.9l27.9-21.5c3.8-3.2,5.8-8.1,5.2-13h0l-4.6-34.4.3-.4ZM331.2,162.5l-40.1,5.4c-2.3.3-4.1,1.3-5.4,3-2.6,3.8-3.6,10.5-3.5,14.3l39.4-5.3-1.3-9.8,11.4-1.5,2.8,20.8-62.8,8.5s-3.1-23.1,4.7-33.8c3.3-4.3,7.9-7.2,13.2-7.6l39.7-5.4,1.5,11,.4.3Z"/>
  <path class="st0" d="M660.9,310.3c1.1,15.4,10.9,28,24.3,33.4l-22-49.4c-1.8,5-2.7,10.4-2.3,16h0ZM725.7,303.9c-.3-4.8-2.3-8-3.9-10.5-2.2-3.1-4.2-5.6-4.4-8.8s2.2-7.1,6-7.3c3.8-.3.3,0,.5,0-7.4-5.8-16.8-9.1-26.9-8.4-10.1.7-25,8.7-31.2,19.7.9,0,1.8,0,2.5-.1,4-.3,10.3-1.2,10.3-1.2,2.1-.3,2.5,2.8.5,3.2,0,0-2.1.4-4.4.7l17,41,6.7-26-7.2-16.1c-2.1,0-4.1,0-4.1,0-2.1,0-2.1-3.2,0-3.2,0,0,6.5,0,10.2-.2s10.3-1.2,10.3-1.2c2.1-.3,2.5,2.8.5,3.2,0,0-2.1.4-4.4.7l16.9,40.7,3-13.2c1.3-5.5,2.3-9.4,2.1-12.8h0ZM700.6,311l-9.3,34.6c3.5.8,7.3,1.1,11.1.8s8.8-1.4,12.7-3.1c-.1-.2-.2-.3-.3-.5l-14.2-31.8h0ZM732.4,286.7c.3,1.2.4,2.5.5,4,.3,3.9-.2,8.4-2,14.1l-9.5,35.1c11.1-7.5,18-20.6,17-34.8-.5-6.7-2.6-13-6-18.3h0ZM696.6,262.4c-24.9,1.7-43.8,23.4-42.1,48.3,1.7,24.9,23.4,43.8,48.3,42.1,24.9-1.7,43.8-23.4,42.1-48.3-1.7-24.9-23.4-43.8-48.3-42.1h0ZM702.7,350.8c-23.8,1.6-44.5-16.4-46.1-40.2-1.6-23.8,16.4-44.5,40.2-46.1,23.8-1.6,44.5,16.4,46.1,40.2,1.6,23.8-16.4,44.5-40.2,46.1h0Z"/>
  <g>
    <g>
      <path class="st1" d="M858.8,273.5c-.5,0-.9,0-1.3-.2l-5.2,28.6c-.3.5-.9.5-1.2,0l-5.4-8.9-5.9,8.9c-.3.5-.9.5-1.2,0l-4.6-28.6s0,0,0,0c-.3,0-.7.1-1,.1h-.8l6.1,46.3c.3.9.9.9,1.2,0l6-14.8,5.3,14.8c.3.9.9.9,1.2,0l7-46.2h-.3Z"/>
      <path class="st1" d="M856.5,272.9s0,0,0,0c0,0,0,0,0,0Z"/>
      <polygon class="st1" points="854.4 270.8 853 267.6 853 267.6 854.4 270.8"/>
      <path class="st1" d="M837.4,270.8l1.4-3.2h0l-1.4,3.2c-.6,1.2-1.7,2.1-2.9,2.5,1.3-.4,2.3-1.3,3-2.5Z"/>
      <path class="st1" d="M854.9,271.6s0,0,.1.1c0,0,0,0-.1-.1Z"/>
    </g>
    <path class="st1" d="M854.4,270.8l-8.6-19.1-8.5,19.1c-.3.5-.7,1-1.1,1.5l3.5,19c.2.2.7.3,1,0l4.7-6.3,4.8,6.2c.3.4.8.3,1,0l3.9-19.2c-.3-.4-.6-.8-.8-1.2Z"/>
    <path class="st1" d="M818.5,225.7c-.3-.9.3-1.6,1.2-1.6h7.5c.5,0,1,.4,1.2.9l5.5,21.7h.3l9.9-22.5c.2-.4.6-.7,1.1-.7h1.2c.6,0,1,.3,1.1.7l9.9,22.5h.3l5.5-21.7c.2-.5.6-.9,1.2-.9h7.5c.9,0,1.4.6,1.2,1.6l-12.1,43c-.1.5-.6.9-1.2.9h-1c-.5,0-.9-.3-1.1-.7l-11.7-26.2h-.2l-11.7,26.2c-.2.4-.6.7-1.1.7h-1c-.5,0-1-.4-1.2-.9l-12.2-43h0Z"/>
  </g>
  <path d="M1018.6,238.8c-27.1,0-49,21.9-49,49s21.9,49,49,49,49-21.9,49-49c0-27.1-21.9-49-49-49ZM1006.3,308.1h0s-8.2,0-8.2,0v-40.8h8.2v40.8ZM1039,308.2h-24.5v-8.2h24.5v8.2ZM1039,291.8h-24.5v-8.2h24.5v8.2ZM1039,275.5h-24.5v-8.2h24.5v8.2Z"/>
</svg>