<?xml version="1.0" encoding="UTF-8"?>
<svg id="Layer_2" data-name="Layer 2" xmlns="http://www.w3.org/2000/svg" viewBox="0 0 98 98.01">
  <g id="Layer_1-2" data-name="Layer 1">
    <path d="M65.48,2.87C39.99-6.23,11.96,7.05,2.87,32.53s4.18,53.51,29.67,62.61c25.48,9.1,53.51-4.18,62.61-29.67,9.09-25.49-4.19-53.52-29.67-62.61ZM30.61,64.1h0s-7.68-2.74-7.68-2.74l13.73-38.45,7.68,2.74-13.73,38.44ZM61.36,75.09l-23.07-8.24,2.74-7.69,23.07,8.24-2.74,7.69ZM66.85,59.7l-23.07-8.24,2.74-7.68,23.07,8.24-2.74,7.68ZM72.34,44.33l-23.07-8.24,2.74-7.68,23.07,8.24-2.74,7.68Z"/>
  </g>
</svg>