<svg xmlns="http://www.w3.org/2000/svg" width="440" height="280" fill="none"><g clip-path="url(#a)"><mask id="b" width="440" height="280" x="0" y="0" maskUnits="userSpaceOnUse" style="mask-type:luminance"><path fill="#fff" d="M440 0H0v280h440z"/></mask><g mask="url(#b)"><mask id="c" width="440" height="280" x="0" y="0" maskUnits="userSpaceOnUse" style="mask-type:alpha"><path fill="#D9D9D9" d="M440 280H0V0h440zM295.475 12C289.69 12 285 16.69 285 22.475V116c0 11.046 8.954 20 20 20h79c11.046 0 20-8.954 20-20V32c0-11.046-8.954-20-20-20z"/></mask><g mask="url(#c)"><path fill="url(#d)" d="M36 74c0-21.213 0-31.82 6.59-38.41S59.787 29 81 29h263c21.213 0 31.82 0 38.41 6.59S389 52.787 389 74v111c0 21.213 0 31.82-6.59 38.41S365.213 230 344 230H81c-21.213 0-31.82 0-38.41-6.59S36 206.213 36 185z"/></g><path fill="url(#e)" d="M40.935 61.626C44.312 63.569 46 64.54 46 66c0 1.46-1.688 2.43-5.065 4.374L7.572 89.58c-3.366 1.938-5.049 2.906-6.31 2.177C0 91.03 0 89.087 0 85.206V46.794c0-3.882 0-5.823 1.262-6.551 1.261-.73 2.944.24 6.31 2.177z" opacity=".5"/><path fill="url(#f)" fill-opacity=".6" d="M64.935 61.626C68.312 63.569 70 64.54 70 66c0 1.46-1.688 2.43-5.065 4.374L31.572 89.58c-3.366 1.938-5.049 2.906-6.31 2.177C24 91.03 24 89.087 24 85.206V46.794c0-3.882 0-5.823 1.262-6.551 1.261-.73 2.944.24 6.31 2.177z"/><path fill="#fff" d="M111.49 49.855c.154.335.415.6.759.749l1.432.62a.533.533 0 0 1 0 .978l-1.421.622c-.339.144-.61.411-.757.749l-1.125 2.554c-.2.401-.805.401-1.006 0l-1.125-2.554a1.48 1.48 0 0 0-.757-.749l-1.421-.62a.53.53 0 0 1-.319-.49.53.53 0 0 1 .319-.49l1.421-.62c.339-.143.61-.411.757-.749l1.125-2.554c.2-.401.805-.401 1.006 0zm-14.01.875c.111.232.303.415.54.516l1.018.424a.364.364 0 0 1 0 .677l-1.018.424c-.24.096-.433.281-.54.516l-.797 1.757c-.147.274-.577.274-.724 0l-.796-1.757a1.06 1.06 0 0 0-.54-.516l-1.018-.424a.365.365 0 0 1 0-.677l1.018-.424c.24-.096.433-.28.54-.516l.797-1.756c.147-.275.577-.275.723 0zM83.357 75.286l-1.959 1.917a1.35 1.35 0 0 0 0 1.915l.483.484a1.316 1.316 0 0 0 1.898-.012l1.935-1.939-.003-.004 16.503-16.504 1.973-1.965c.513-.524.513-1.461 0-1.974l-.389-.39c-.523-.515-1.584-.386-2.173.204zM114 59.964a1.178 1.178 0 1 1-2.357 0 1.178 1.178 0 0 1 2.357 0m-11.786 9.429a1.178 1.178 0 1 1-2.357 0 1.178 1.178 0 0 1 2.357 0"/><path fill="#3D96A0" fill-opacity=".8" d="M109.228 63.851a1.12 1.12 0 0 1-.542-.565l-.808-1.912c-.151-.308-.58-.308-.719 0l-.807 1.913a1.12 1.12 0 0 1-.542.564l-1.01.462c-.303.154-.303.59 0 .731l1.009.462c.243.117.435.318.542.566l.808 1.912c.151.307.58.307.719 0l.808-1.912c.106-.248.299-.449.542-.566l1.01-.462c.303-.153.303-.59 0-.73zm-16.442-2.708a1.179 1.179 0 1 0 0-2.357 1.179 1.179 0 0 0 0 2.357m8.251-11.786a1.179 1.179 0 1 0 0-2.357 1.179 1.179 0 0 0 0 2.357"/><path fill="url(#g)" d="M378.935 225.626c3.377 1.943 5.065 2.915 5.065 4.374s-1.688 2.431-5.065 4.375l-33.363 19.205c-3.366 1.938-5.049 2.906-6.31 2.178-1.262-.729-1.262-2.67-1.262-6.552v-38.412c0-3.882 0-5.823 1.262-6.552 1.261-.728 2.944.24 6.31 2.178z" opacity=".5"/><path fill="url(#h)" fill-opacity=".6" d="M402.935 225.626c3.377 1.943 5.065 2.915 5.065 4.374s-1.688 2.431-5.065 4.375l-33.363 19.205c-3.366 1.938-5.049 2.906-6.31 2.178-1.262-.729-1.262-2.67-1.262-6.552v-38.412c0-3.882 0-5.823 1.262-6.552 1.261-.728 2.944.24 6.31 2.178z"/><mask id="i" width="135" height="65" x="51" y="150" maskUnits="userSpaceOnUse" style="mask-type:luminance"><path fill="#fff" d="M176 150H61c-5.523 0-10 4.477-10 10v44.6c0 5.523 4.477 10 10 10h115c5.523 0 10-4.477 10-10V160c0-5.523-4.477-10-10-10"/></mask><g mask="url(#i)"><path fill="#fff" fill-opacity=".1" d="M176 150H61c-5.523 0-10 4.477-10 10v44.6c0 5.523 4.477 10 10 10h115c5.523 0 10-4.477 10-10V160c0-5.523-4.477-10-10-10"/><path fill="#fff" d="m100.468 158.575-1.354 4.125h-1.09l1.849-4.977h.694zm1.124 4.125-1.357-4.125-.109-.852h.701l1.859 4.977zm-.061-1.853v.804h-2.63v-.804zm3.809.968v-2.813h.985v3.698h-.926zm.11-.759.29-.007q0 .369-.085.687-.086.315-.256.547a1.2 1.2 0 0 1-.431.359 1.4 1.4 0 0 1-.612.126q-.27 0-.499-.075a1 1 0 0 1-.39-.242 1.2 1.2 0 0 1-.253-.428 2 2 0 0 1-.088-.632v-2.389h.984v2.396q0 .163.038.277a.5.5 0 0 0 .112.184.4.4 0 0 0 .168.103q.099.03.219.03.303 0 .478-.123a.65.65 0 0 0 .25-.335q.075-.215.075-.478m3.546-2.054v.697h-2.153v-.697zm-1.62-.913h.985v3.497q0 .16.041.246a.24.24 0 0 0 .129.119.6.6 0 0 0 .216.031q.092 0 .164-.007a2 2 0 0 0 .126-.02l.004.725a2 2 0 0 1-.598.088q-.325 0-.568-.106a.8.8 0 0 1-.369-.348q-.13-.24-.13-.629zm2.043 2.799v-.071q0-.407.116-.749.116-.345.338-.598.222-.254.547-.393.325-.144.745-.144.421 0 .749.144.328.14.55.393.226.253.342.598.116.342.116.749v.071q0 .404-.116.749a1.7 1.7 0 0 1-.342.598q-.222.254-.547.393-.325.14-.745.14t-.748-.14a1.54 1.54 0 0 1-.551-.393 1.8 1.8 0 0 1-.338-.598 2.3 2.3 0 0 1-.116-.749m.984-.071v.071q0 .233.041.435t.13.355q.093.15.239.236a.7.7 0 0 0 .359.085.7.7 0 0 0 .352-.085.65.65 0 0 0 .236-.236q.089-.154.13-.355.045-.202.044-.435v-.071a2 2 0 0 0-.044-.424 1.1 1.1 0 0 0-.133-.356.7.7 0 0 0-.236-.246.7.7 0 0 0-.356-.089.7.7 0 0 0-.355.089.7.7 0 0 0-.236.246 1.2 1.2 0 0 0-.13.356 2 2 0 0 0-.041.424m7.893-3.094h1.022v3.289q0 .574-.246.967a1.5 1.5 0 0 1-.674.591 2.3 2.3 0 0 1-.984.198q-.557 0-.991-.198a1.54 1.54 0 0 1-.677-.591q-.243-.393-.243-.967v-3.289h1.026v3.289q0 .334.106.546.105.212.304.311.202.1.475.1.28 0 .475-.1a.65.65 0 0 0 .301-.311q.106-.212.106-.546zm2.897 1.99v4.409h-.984v-5.12h.912zm2.341 1.097v.072q0 .403-.095.748-.093.345-.274.602a1.3 1.3 0 0 1-.451.396q-.267.14-.615.14-.339 0-.588-.136a1.2 1.2 0 0 1-.421-.383 2.3 2.3 0 0 1-.27-.578 5 5 0 0 1-.157-.704v-.188q.055-.404.157-.738.104-.339.27-.585.171-.25.417-.386.25-.137.585-.137.352 0 .619.134.27.133.451.383.184.249.277.594a3 3 0 0 1 .095.766m-.988.072v-.072q0-.236-.041-.434a1.1 1.1 0 0 0-.123-.352.59.59 0 0 0-.543-.318.8.8 0 0 0-.345.065.57.57 0 0 0-.229.188.9.9 0 0 0-.134.294 2 2 0 0 0-.054.386v.475q.017.253.095.455a.7.7 0 0 0 .243.314.73.73 0 0 0 .431.116q.195 0 .328-.085a.64.64 0 0 0 .215-.243q.085-.154.12-.355a2.4 2.4 0 0 0 .037-.434m3.892 1.011v-4.443h.991v5.25h-.892zm-2.338-.998v-.071q0-.424.096-.769.096-.349.28-.599a1.3 1.3 0 0 1 .455-.386q.27-.137.615-.137a1.13 1.13 0 0 1 .984.527q.175.249.281.591.106.339.153.742v.157a4 4 0 0 1-.153.718 2.2 2.2 0 0 1-.281.581 1.24 1.24 0 0 1-.417.383 1.16 1.16 0 0 1-.574.136q-.345 0-.615-.14a1.3 1.3 0 0 1-.451-.393 1.9 1.9 0 0 1-.277-.595 2.7 2.7 0 0 1-.096-.745m.985-.071v.071q0 .229.034.428.038.198.119.352.085.15.219.235a.63.63 0 0 0 .332.082.72.72 0 0 0 .417-.112.73.73 0 0 0 .249-.318q.089-.202.103-.465v-.448a1.6 1.6 0 0 0-.062-.386.9.9 0 0 0-.143-.297.64.64 0 0 0-.233-.192.7.7 0 0 0-.324-.068.6.6 0 0 0-.329.089.65.65 0 0 0-.222.236q-.081.15-.123.355-.037.201-.037.438m5.217 1.042v-1.647a.7.7 0 0 0-.058-.305.43.43 0 0 0-.181-.201.6.6 0 0 0-.311-.072.64.64 0 0 0-.284.058.4.4 0 0 0-.184.161.44.44 0 0 0-.065.242h-.984q0-.236.109-.447.11-.213.318-.373.208-.164.495-.256a2.1 2.1 0 0 1 .65-.093q.43 0 .765.144.335.143.527.431.195.287.195.717v1.583q0 .304.037.499.038.191.11.335v.058h-.995a1.4 1.4 0 0 1-.109-.376 3 3 0 0 1-.035-.458m.13-1.418.007.557h-.55q-.195 0-.338.044a.6.6 0 0 0-.236.127.5.5 0 0 0-.137.184.7.7 0 0 0-.041.233q0 .126.058.229a.4.4 0 0 0 .168.157.6.6 0 0 0 .256.055.8.8 0 0 0 .386-.089.7.7 0 0 0 .253-.219.46.46 0 0 0 .096-.246l.26.417a1.7 1.7 0 0 1-.151.29 1.3 1.3 0 0 1-.236.284 1.2 1.2 0 0 1-.345.215 1.3 1.3 0 0 1-.478.082q-.352 0-.64-.14a1.16 1.16 0 0 1-.451-.393 1.03 1.03 0 0 1-.164-.574q0-.291.11-.516.109-.226.321-.38a1.5 1.5 0 0 1 .536-.235q.322-.082.746-.082zm3.54-1.446v.697h-2.153v-.697zm-1.62-.913h.984v3.497a.6.6 0 0 0 .041.246q.045.086.13.119a.6.6 0 0 0 .215.031q.093 0 .165-.007a2 2 0 0 0 .126-.02l.003.725a1.9 1.9 0 0 1-.598.088q-.324 0-.567-.106a.78.78 0 0 1-.369-.348q-.13-.24-.13-.629zm3.991 4.679q-.43 0-.773-.136a1.7 1.7 0 0 1-.581-.387 1.7 1.7 0 0 1-.362-.57 1.9 1.9 0 0 1-.127-.698v-.136q0-.421.12-.769a1.8 1.8 0 0 1 .342-.605q.226-.256.547-.393.32-.141.724-.141.393 0 .698.13.303.13.509.369.209.24.314.575.106.332.106.738v.41h-2.939v-.656h1.972v-.075a.86.86 0 0 0-.075-.366.6.6 0 0 0-.219-.26.68.68 0 0 0-.376-.096.63.63 0 0 0-.335.086.67.67 0 0 0-.229.239q-.085.154-.13.362a2.3 2.3 0 0 0-.041.452v.136q0 .222.062.411a1 1 0 0 0 .181.324q.12.137.287.212.171.075.386.075.267 0 .496-.102.232-.106.4-.318l.478.519a1.4 1.4 0 0 1-.318.322 1.7 1.7 0 0 1-.478.253q-.28.095-.639.095"/><path fill="#fff" fill-opacity=".3" d="M186 171.4H51V193h135z"/><g filter="url(#j)"><path fill="url(#k)" d="M60 182.2c0-2.651 2.015-4.801 4.5-4.801 2.486 0 4.5 2.15 4.5 4.801 0 2.65-2.014 4.8-4.5 4.8-2.485 0-4.5-2.15-4.5-4.8"/></g><path fill="url(#l)" d="M59.1 182.2a5.4 5.4 0 1 1 10.8 0 5.4 5.4 0 0 1-10.8 0"/><g filter="url(#m)"><path fill="url(#n)" d="M67 182.2c0 1.546-1.119 2.8-2.5 2.8-1.38 0-2.5-1.254-2.5-2.8s1.12-2.8 2.5-2.8c1.381 0 2.5 1.254 2.5 2.8"/></g><path fill="url(#o)" d="M67.74 182.2a3.24 3.24 0 1 1-6.48 0 3.24 3.24 0 0 1 6.48 0"/><path fill="#fff" d="m80.094 180.103-1.275 3.697h-.77l1.605-4.266h.493zm1.066 3.697-1.277-3.697-.056-.569h.495l1.612 4.266zm-.061-1.582v.583h-2.32v-.583zm3.222.835v-2.423h.709v3.17h-.668zm.1-.659.237-.006q0 .32-.07.589-.071.266-.217.466a1 1 0 0 1-.375.307 1.3 1.3 0 0 1-.548.109q-.231 0-.425-.068a.9.9 0 0 1-.334-.208.95.95 0 0 1-.214-.366 1.7 1.7 0 0 1-.076-.539v-2.048h.706v2.054q0 .173.041.29a.5.5 0 0 0 .111.184.4.4 0 0 0 .164.1.7.7 0 0 0 .2.029q.3 0 .474-.117.176-.12.25-.322a1.3 1.3 0 0 0 .076-.454m2.894-1.764v.516h-1.787v-.516zm-1.272-.776h.706v3.07q0 .147.041.226.045.075.12.102.076.026.179.026a1 1 0 0 0 .249-.026l.003.539a2 2 0 0 1-.205.047 1.5 1.5 0 0 1-.264.021q-.243 0-.43-.085a.64.64 0 0 1-.293-.285q-.105-.195-.106-.521zm1.72 2.396v-.067q0-.344.1-.636.099-.296.286-.513.19-.219.463-.34.275-.123.621-.123.35 0 .621.123.276.121.466.34.19.218.29.513.1.293.1.636v.067q0 .344-.1.636a1.5 1.5 0 0 1-.29.513 1.35 1.35 0 0 1-.463.339 1.5 1.5 0 0 1-.618.121q-.348 0-.624-.121a1.35 1.35 0 0 1-.463-.339 1.5 1.5 0 0 1-.29-.513 2 2 0 0 1-.1-.636m.706-.067v.067q0 .214.044.404t.137.334a.7.7 0 0 0 .24.226.7.7 0 0 0 .349.082.67.67 0 0 0 .58-.308q.094-.143.138-.334.047-.19.047-.404v-.067q0-.212-.047-.399a1 1 0 0 0-.14-.337.68.68 0 0 0-.584-.313.7.7 0 0 0-.346.085.7.7 0 0 0-.237.228q-.093.147-.138.337-.043.188-.043.399m7.007-2.649h.732v2.851q0 .487-.211.814-.21.328-.574.495-.36.165-.806.165a1.95 1.95 0 0 1-.82-.165 1.3 1.3 0 0 1-.569-.495q-.204-.327-.205-.814v-2.851h.733v2.851q0 .308.105.507.105.196.3.29.192.094.456.094t.454-.094a.66.66 0 0 0 .3-.29 1.1 1.1 0 0 0 .105-.507zm2.278 1.705v3.78h-.706v-4.389h.65zm2.066.947v.061q0 .346-.082.642a1.6 1.6 0 0 1-.237.512 1.1 1.1 0 0 1-.384.337q-.229.12-.528.121-.296 0-.518-.109a1.1 1.1 0 0 1-.372-.313 1.7 1.7 0 0 1-.246-.475 3 3 0 0 1-.13-.603v-.238a3.2 3.2 0 0 1 .13-.633q.093-.284.246-.489.151-.205.372-.316.219-.112.513-.112.299 0 .53.118.231.114.39.328.157.21.237.509.079.296.079.66m-.706.061v-.061q0-.22-.041-.408a1.1 1.1 0 0 0-.13-.334.64.64 0 0 0-.225-.222.6.6 0 0 0-.325-.082.74.74 0 0 0-.322.064.6.6 0 0 0-.226.173.8.8 0 0 0-.14.261 1.6 1.6 0 0 0-.07.319v.569q.035.21.12.386a.7.7 0 0 0 .24.281q.158.103.404.103a.6.6 0 0 0 .325-.082.64.64 0 0 0 .22-.226q.087-.146.129-.337.04-.19.04-.404m3.348.897V179.3h.709v4.5h-.642zm-2.062-.894v-.061q0-.36.084-.657.085-.299.247-.512.16-.217.392-.331.231-.118.522-.118.286 0 .504.112.216.11.369.319.151.205.243.492.09.285.129.633v.196a3.2 3.2 0 0 1-.129.621q-.092.282-.243.487a1.05 1.05 0 0 1-.372.316 1.1 1.1 0 0 1-.507.112q-.287 0-.519-.121a1.14 1.14 0 0 1-.389-.337 1.6 1.6 0 0 1-.247-.509 2.4 2.4 0 0 1-.084-.642m.706-.061v.061q0 .217.038.404.04.188.126.331a.65.65 0 0 0 .219.223.65.65 0 0 0 .329.079q.24 0 .395-.105a.7.7 0 0 0 .243-.284q.092-.182.123-.405v-.53a1.3 1.3 0 0 0-.073-.322.9.9 0 0 0-.144-.261.6.6 0 0 0-.225-.176.7.7 0 0 0-.314-.064.6.6 0 0 0-.328.082.66.66 0 0 0-.222.225 1.1 1.1 0 0 0-.126.334 2 2 0 0 0-.041.408m4.698.975v-1.512q0-.169-.061-.293a.43.43 0 0 0-.188-.19.64.64 0 0 0-.31-.067.7.7 0 0 0-.299.058.5.5 0 0 0-.196.158.4.4 0 0 0-.071.226h-.703q0-.187.091-.363a1 1 0 0 1 .264-.314q.173-.137.413-.216.24-.08.539-.08.357 0 .633.121a.96.96 0 0 1 .436.363q.161.24.161.603v1.41q0 .216.03.389a1.2 1.2 0 0 0 .091.296v.047h-.724a1.2 1.2 0 0 1-.079-.29 2.3 2.3 0 0 1-.027-.346m.103-1.292.006.437h-.507q-.196 0-.346.038a.7.7 0 0 0-.249.105.46.46 0 0 0-.199.396q0 .126.059.231a.4.4 0 0 0 .17.161.6.6 0 0 0 .275.059.78.78 0 0 0 .636-.308.5.5 0 0 0 .099-.249l.229.314q-.036.12-.12.258a1.3 1.3 0 0 1-.223.263q-.135.124-.325.202-.188.08-.434.08-.31 0-.553-.124a1 1 0 0 1-.381-.336.87.87 0 0 1-.138-.484 1 1 0 0 1 .094-.445.87.87 0 0 1 .281-.328q.187-.132.457-.199a2.4 2.4 0 0 1 .615-.071zm2.906-1.242v.516h-1.787v-.516zm-1.272-.776h.706v3.07q0 .147.041.226.045.075.121.102a.5.5 0 0 0 .178.026 1 1 0 0 0 .249-.026l.003.539a2 2 0 0 1-.205.047 1.5 1.5 0 0 1-.264.021 1 1 0 0 1-.43-.085.64.64 0 0 1-.293-.285q-.106-.195-.106-.521zm3.322 4.005q-.351 0-.636-.115a1.4 1.4 0 0 1-.48-.325 1.5 1.5 0 0 1-.302-.489 1.7 1.7 0 0 1-.105-.607v-.117q0-.371.108-.674.108-.302.302-.515.193-.217.457-.331t.571-.115q.34 0 .595.115.255.114.422.322.17.206.252.489.084.285.085.627v.302h-2.449v-.507h1.751v-.056a1 1 0 0 0-.076-.357.6.6 0 0 0-.208-.27.62.62 0 0 0-.375-.102.623.623 0 0 0-.539.29q-.09.14-.14.34a2 2 0 0 0-.047.442v.117q0 .209.055.387.059.176.17.308a.8.8 0 0 0 .27.208.84.84 0 0 0 .36.073.97.97 0 0 0 .8-.393l.372.361a1.336 1.336 0 0 1-.668.507 1.6 1.6 0 0 1-.545.085m5.261-3.756-1.274 3.697h-.771l1.606-4.266h.492zm1.067 3.697-1.278-3.697-.055-.569h.495l1.611 4.266zm-.062-1.582v.583h-2.32v-.583zm2.106-2.918v4.5h-.709v-4.5zm1.637 0v4.5h-.709v-4.5z"/><path fill="#fff" fill-opacity=".3" d="M51 193h135v16.2a5.4 5.4 0 0 1-5.4 5.4H56.4a5.4 5.4 0 0 1-5.4-5.4z"/><path stroke="#fff" d="M69.4 203.8a4.9 4.9 0 1 0-9.8 0 4.9 4.9 0 0 0 9.8 0Z" opacity=".8"/><path fill="#fff" d="M78.732 201.134h.657l1.233 3.29 1.23-3.29h.657l-1.63 4.266h-.52zm-.298 0h.624l.108 2.848v1.418h-.732zm3.75 0h.627v4.266h-.736v-1.418zm3.324 3.63v-1.511a.65.65 0 0 0-.061-.293.43.43 0 0 0-.188-.191.64.64 0 0 0-.31-.067.7.7 0 0 0-.299.058.5.5 0 0 0-.196.159.38.38 0 0 0-.07.225h-.704a.8.8 0 0 1 .091-.363 1 1 0 0 1 .264-.314q.173-.137.413-.216.24-.08.539-.079.358 0 .633.12.277.12.436.363.162.24.161.603v1.41q0 .216.03.389.031.17.09.296v.047h-.723a1.3 1.3 0 0 1-.08-.29 2.4 2.4 0 0 1-.026-.346m.103-1.292.006.437h-.507q-.195 0-.346.038a.7.7 0 0 0-.249.105.46.46 0 0 0-.199.396q0 .126.059.231.058.103.17.162a.6.6 0 0 0 .275.058.77.77 0 0 0 .636-.308.47.47 0 0 0 .1-.249l.228.314q-.036.12-.12.258-.085.138-.223.263-.135.123-.325.203-.188.078-.434.079a1.2 1.2 0 0 1-.553-.123 1 1 0 0 1-.381-.337.9.9 0 0 1-.138-.484q0-.252.094-.445a.9.9 0 0 1 .281-.328 1.4 1.4 0 0 1 .457-.199q.27-.07.615-.071zm2.153-.565v2.493h-.706v-3.17h.665zm-.126.791-.229-.003q.004-.338.094-.618.094-.282.258-.484.167-.202.398-.31.232-.111.516-.111.228 0 .413.064a.75.75 0 0 1 .32.202q.135.141.204.366.07.223.07.548v2.048h-.708v-2.051a.8.8 0 0 0-.068-.36.38.38 0 0 0-.19-.19.7.7 0 0 0-.308-.059.68.68 0 0 0-.568.284q-.096.132-.15.305a1.3 1.3 0 0 0-.052.369m4.78.955v-2.423h.71v3.17h-.668zm.1-.659.238-.006q0 .32-.07.589-.072.267-.218.466a1 1 0 0 1-.374.307 1.26 1.26 0 0 1-.548.109q-.232 0-.425-.068a.9.9 0 0 1-.334-.208.94.94 0 0 1-.214-.366 1.7 1.7 0 0 1-.076-.539v-2.048h.706v2.054q0 .173.04.29a.5.5 0 0 0 .112.184.4.4 0 0 0 .164.1.7.7 0 0 0 .2.029q.3 0 .474-.117.175-.12.25-.322t.075-.454m3.228.77v-1.511a.65.65 0 0 0-.061-.293.43.43 0 0 0-.188-.191.64.64 0 0 0-.31-.067.7.7 0 0 0-.299.058.5.5 0 0 0-.196.159.38.38 0 0 0-.07.225h-.704q0-.187.091-.363a1 1 0 0 1 .264-.314q.173-.137.413-.216.24-.08.539-.079.358 0 .633.12.277.12.436.363.161.24.161.603v1.41q0 .216.03.389.032.17.09.296v.047h-.723a1.3 1.3 0 0 1-.08-.29 2.4 2.4 0 0 1-.026-.346m.103-1.292.006.437h-.507q-.195 0-.346.038a.7.7 0 0 0-.249.105.46.46 0 0 0-.199.396q0 .126.059.231a.4.4 0 0 0 .17.162.6.6 0 0 0 .275.058.77.77 0 0 0 .636-.308.47.47 0 0 0 .1-.249l.228.314q-.036.12-.12.258a1.2 1.2 0 0 1-.223.263q-.135.123-.325.203-.188.078-.434.079a1.2 1.2 0 0 1-.553-.123 1 1 0 0 1-.381-.337.88.88 0 0 1-.138-.484q0-.252.094-.445a.9.9 0 0 1 .281-.328 1.4 1.4 0 0 1 .457-.199q.27-.07.615-.071zm2.209-2.572v4.5h-.71v-4.5zm4.798 3.401a.6.6 0 0 0-.041-.234.46.46 0 0 0-.138-.187 1.1 1.1 0 0 0-.281-.164 4 4 0 0 0-.457-.167 5 5 0 0 1-.563-.208 2.2 2.2 0 0 1-.445-.27 1.2 1.2 0 0 1-.296-.355 1 1 0 0 1-.106-.465q0-.26.109-.475.112-.214.313-.369.205-.159.484-.243.278-.088.615-.088.474 0 .817.176a1.3 1.3 0 0 1 .531.471q.187.296.187.654h-.729a.75.75 0 0 0-.091-.372.6.6 0 0 0-.27-.258.97.97 0 0 0-.454-.094q-.26 0-.433.079a.57.57 0 0 0-.258.214.56.56 0 0 0-.085.305q0 .12.055.219a.6.6 0 0 0 .17.182q.115.082.287.155.173.073.408.141.354.105.618.234.264.126.439.287a1.06 1.06 0 0 1 .352.827q0 .269-.109.486a1.04 1.04 0 0 1-.31.366q-.2.15-.481.232a2.3 2.3 0 0 1-.621.079q-.307 0-.606-.082a1.8 1.8 0 0 1-.539-.249 1.3 1.3 0 0 1-.387-.422 1.2 1.2 0 0 1-.143-.595h.735q0 .208.07.355a.66.66 0 0 0 .202.24 1 1 0 0 0 .299.135q.173.043.369.043.258 0 .431-.073a.57.57 0 0 0 .264-.205.54.54 0 0 0 .088-.305m2.823 1.158a1.7 1.7 0 0 1-.635-.115 1.4 1.4 0 0 1-.481-.325 1.45 1.45 0 0 1-.302-.489 1.7 1.7 0 0 1-.105-.606v-.118q0-.372.108-.673.109-.303.302-.516.193-.217.457-.331t.571-.114q.34 0 .595.114t.422.322q.17.206.252.489.085.285.085.627v.302h-2.449v-.507h1.752v-.055a1 1 0 0 0-.076-.358.6.6 0 0 0-.208-.269.62.62 0 0 0-.375-.103.623.623 0 0 0-.54.29q-.09.14-.14.34a2 2 0 0 0-.047.442v.118q0 .207.056.386.058.176.17.308a.8.8 0 0 0 .269.208.85.85 0 0 0 .36.073q.255 0 .455-.102.199-.103.345-.29l.372.36a1.341 1.341 0 0 1-.668.507 1.6 1.6 0 0 1-.545.085m2.684-4.559v4.5h-.709v-4.5zm2.279 4.559q-.352 0-.636-.115a1.4 1.4 0 0 1-.481-.325 1.4 1.4 0 0 1-.301-.489 1.7 1.7 0 0 1-.106-.606v-.118q0-.372.108-.673.109-.303.302-.516.193-.217.457-.331.263-.114.572-.114.339 0 .594.114t.422.322q.17.206.252.489.085.285.085.627v.302h-2.449v-.507h1.752v-.055a1 1 0 0 0-.076-.358.6.6 0 0 0-.208-.269.62.62 0 0 0-.375-.103.613.613 0 0 0-.539.29 1.1 1.1 0 0 0-.141.34 2 2 0 0 0-.047.442v.118q0 .207.056.386.058.176.17.308a.8.8 0 0 0 .269.208.85.85 0 0 0 .361.073 1 1 0 0 0 .454-.102q.199-.103.345-.29l.372.36a1.341 1.341 0 0 1-.668.507 1.6 1.6 0 0 1-.544.085m3.222-.563a.7.7 0 0 0 .31-.067.6.6 0 0 0 .226-.194.52.52 0 0 0 .097-.284h.665a1 1 0 0 1-.182.56 1.25 1.25 0 0 1-.466.401 1.4 1.4 0 0 1-.641.147q-.364 0-.633-.123-.27-.126-.448-.346a1.5 1.5 0 0 1-.27-.507 2 2 0 0 1-.088-.615v-.103q0-.328.088-.615a1.5 1.5 0 0 1 .27-.51q.178-.219.448-.342a1.5 1.5 0 0 1 .63-.126q.38 0 .668.152.286.15.451.419.167.267.173.621h-.665a.7.7 0 0 0-.088-.316.6.6 0 0 0-.217-.229.6.6 0 0 0-.331-.085.66.66 0 0 0-.355.088.6.6 0 0 0-.219.234 1.2 1.2 0 0 0-.115.331 2 2 0 0 0-.032.378v.103q0 .197.032.381.033.184.112.331a.65.65 0 0 0 .222.231.7.7 0 0 0 .358.085m3.401-2.666v.516h-1.787v-.516zm-1.272-.776h.706v3.07q0 .147.041.226.045.076.12.102a.5.5 0 0 0 .179.027 1 1 0 0 0 .249-.027l.003.539a2 2 0 0 1-.205.047 1.5 1.5 0 0 1-.264.021 1 1 0 0 1-.43-.085.64.64 0 0 1-.293-.284q-.106-.197-.106-.522zm2.681.776v3.17h-.709v-3.17zm-.756-.832q0-.16.105-.266a.4.4 0 0 1 .299-.109q.188 0 .296.109.108.105.108.266a.35.35 0 0 1-.108.264.4.4 0 0 1-.296.105.4.4 0 0 1-.299-.105.36.36 0 0 1-.105-.264m1.502 2.452v-.067q0-.344.1-.636.1-.296.287-.513.19-.219.463-.339.275-.123.621-.123.348 0 .621.123.276.12.466.339.19.218.29.513.099.293.099.636v.067q0 .344-.099.636a1.5 1.5 0 0 1-.29.513 1.35 1.35 0 0 1-.463.34q-.273.12-.618.12-.35 0-.624-.12a1.35 1.35 0 0 1-.463-.34 1.5 1.5 0 0 1-.29-.513 2 2 0 0 1-.1-.636m.706-.067v.067q0 .215.044.405t.138.334a.7.7 0 0 0 .24.225.7.7 0 0 0 .349.082.67.67 0 0 0 .58-.307q.093-.144.138-.334t.046-.405v-.067q0-.212-.046-.399a1 1 0 0 0-.141-.336.659.659 0 0 0-.583-.314.7.7 0 0 0-.346.085.7.7 0 0 0-.237.229q-.094.146-.138.336a1.8 1.8 0 0 0-.044.399m3.641-.876v2.493h-.706v-3.17h.665zm-.126.791-.228-.003q.003-.338.094-.618.093-.282.258-.484a1.14 1.14 0 0 1 .398-.31q.231-.111.516-.111.228 0 .413.064a.75.75 0 0 1 .319.202q.135.141.205.366.07.223.07.548v2.048h-.709v-2.051a.8.8 0 0 0-.067-.36.37.37 0 0 0-.19-.19.7.7 0 0 0-.308-.059.7.7 0 0 0-.325.076.7.7 0 0 0-.243.208 1 1 0 0 0-.15.305 1.3 1.3 0 0 0-.053.369"/></g><path stroke="url(#p)" d="M176 150.5H61a9.5 9.5 0 0 0-9.5 9.5v44.6a9.5 9.5 0 0 0 9.5 9.5h115a9.5 9.5 0 0 0 9.5-9.5V160a9.5 9.5 0 0 0-9.5-9.5Z"/><g filter="url(#q)"><path fill="#fff" d="M338.259 145H219.741C208.286 145 199 153.954 199 165s9.286 20 20.741 20h118.518c11.455 0 20.741-8.954 20.741-20s-9.286-20-20.741-20"/></g><path fill="#fff" d="M339 144H219c-11.598 0-21 9.402-21 21s9.402 21 21 21h120c11.598 0 21-9.402 21-21s-9.402-21-21-21"/><path fill="#9CE0DF" d="M234 165c0-8.284-6.716-15-15-15s-15 6.716-15 15 6.716 15 15 15 15-6.716 15-15"/><path fill="#010181" d="m216.742 168.223 7.504-7.504.996 1.062-8.5 8.5-3.984-3.984.996-.996z"/><path fill="#1A1A1A" d="M246.895 166.954q0-.21-.064-.376a.7.7 0 0 0-.226-.312 2 2 0 0 0-.467-.285q-.3-.139-.779-.29a10 10 0 0 1-1.01-.386 4.2 4.2 0 0 1-.837-.5 2.3 2.3 0 0 1-.57-.671 1.85 1.85 0 0 1-.204-.886q0-.49.215-.887.215-.402.602-.687.386-.29.913-.446a4.1 4.1 0 0 1 1.165-.156q.866 0 1.509.312.645.31.999.854.36.542.36 1.241h-1.6q0-.345-.145-.602a1 1 0 0 0-.43-.414q-.285-.15-.72-.15-.419 0-.698.129a.93.93 0 0 0-.419.338.84.84 0 0 0-.14.473q0 .198.097.36.102.16.301.301.198.139.489.263.29.123.671.241.639.193 1.123.436.489.241.816.542t.494.682.167.865q0 .51-.199.913a1.9 1.9 0 0 1-.575.682q-.375.28-.897.424a4.3 4.3 0 0 1-1.165.145 4.4 4.4 0 0 1-1.144-.15 3.5 3.5 0 0 1-1.026-.467 2.36 2.36 0 0 1-.731-.795q-.273-.483-.274-1.144h1.617q0 .365.113.617.113.253.317.409.209.156.494.225.29.07.634.07.418 0 .687-.118a.85.85 0 0 0 .403-.328.85.85 0 0 0 .134-.472m5.981.735v-2.588q0-.28-.091-.478a.68.68 0 0 0-.285-.317.93.93 0 0 0-.488-.113q-.258 0-.446.091a.64.64 0 0 0-.29.253.7.7 0 0 0-.102.381h-1.547q0-.37.172-.704t.499-.585q.328-.258.779-.403a3.4 3.4 0 0 1 1.02-.145q.678 0 1.204.226t.827.676q.306.452.306 1.128v2.487q0 .478.059.784.059.301.172.527V169h-1.563a2.2 2.2 0 0 1-.172-.591 5 5 0 0 1-.054-.72m.204-2.229.011.876h-.865q-.306 0-.531.07a1 1 0 0 0-.371.198.8.8 0 0 0-.215.291 1 1 0 0 0-.064.365q0 .198.091.36a.66.66 0 0 0 .263.247.9.9 0 0 0 .403.086q.35 0 .607-.14.258-.14.397-.344a.7.7 0 0 0 .151-.386l.408.655a2.6 2.6 0 0 1-.236.456q-.145.237-.371.446a1.9 1.9 0 0 1-.542.339 2 2 0 0 1-.752.128 2.26 2.26 0 0 1-1.005-.22 1.84 1.84 0 0 1-.709-.617 1.6 1.6 0 0 1-.257-.903q0-.456.171-.811.172-.354.505-.596.339-.247.844-.371a4.8 4.8 0 0 1 1.17-.129zm4.751 3.54h-1.557v-6.327q0-.661.258-1.112.262-.456.735-.687.478-.237 1.134-.237.215 0 .413.032.2.028.387.07l-.016 1.166a1.3 1.3 0 0 0-.215-.038 3 3 0 0 0-.263-.011 1.1 1.1 0 0 0-.478.097.65.65 0 0 0-.296.274.9.9 0 0 0-.102.446zm1.16-5.812v1.096h-3.582v-1.096zm3.591 5.919q-.677 0-1.214-.214a2.7 2.7 0 0 1-.913-.607 2.7 2.7 0 0 1-.569-.897 3 3 0 0 1-.199-1.096v-.215q0-.66.188-1.208.189-.548.537-.951.355-.403.86-.618.505-.22 1.138-.22.618 0 1.096.204t.8.58a2.5 2.5 0 0 1 .495.903q.166.52.166 1.16v.644h-4.619v-1.031h3.099v-.118q0-.323-.118-.575a.9.9 0 0 0-.344-.408q-.231-.15-.591-.15a1 1 0 0 0-.526.134 1.03 1.03 0 0 0-.36.376 2 2 0 0 0-.204.569 3.6 3.6 0 0 0-.065.709v.215q0 .35.097.645.102.295.285.51.188.215.451.333.268.118.607.118.419 0 .779-.161.365-.167.628-.5l.752.817a2.3 2.3 0 0 1-.499.505 2.7 2.7 0 0 1-.752.397q-.441.15-1.005.15m10.888-7.927h1.606v5.167q0 .902-.387 1.52a2.4 2.4 0 0 1-1.058.929q-.671.312-1.547.311-.876 0-1.558-.311a2.43 2.43 0 0 1-1.063-.929q-.381-.618-.381-1.52v-5.167h1.611v5.167q0 .526.166.859.167.333.479.489.317.156.746.156.441 0 .747-.156.311-.156.472-.489.167-.333.167-.859zm4.616 3.126v6.928h-1.546v-8.046h1.434zm3.68 1.724v.113q0 .633-.151 1.176-.145.543-.429.945-.285.398-.709.623-.42.22-.967.22-.533 0-.924-.214a1.94 1.94 0 0 1-.661-.602 3.5 3.5 0 0 1-.424-.908 7 7 0 0 1-.247-1.106v-.296q.086-.633.247-1.16.161-.531.424-.918.269-.393.656-.607.392-.215.918-.215.553 0 .972.21.424.209.709.601.291.392.435.935.151.541.151 1.203m-1.553.113v-.113q0-.371-.064-.682a1.8 1.8 0 0 0-.193-.554.932.932 0 0 0-.854-.499q-.317 0-.543.102a.9.9 0 0 0-.36.295 1.4 1.4 0 0 0-.209.462 3 3 0 0 0-.086.607v.747q.027.397.15.714.124.312.382.494.257.183.676.183a.94.94 0 0 0 .516-.134 1 1 0 0 0 .338-.382q.135-.242.188-.558.06-.318.059-.682m6.18 1.589v-6.982h1.558V169h-1.402zm-3.674-1.568v-.113q0-.666.151-1.208.15-.548.44-.94.29-.393.714-.607.425-.215.967-.215.51 0 .892.215.387.214.655.612.274.393.441.929.166.532.241 1.166v.247q-.075.608-.241 1.128a3.4 3.4 0 0 1-.441.913 1.95 1.95 0 0 1-.655.602 1.83 1.83 0 0 1-.903.214q-.541 0-.966-.22a2.04 2.04 0 0 1-.709-.617 3 3 0 0 1-.435-.935 4.3 4.3 0 0 1-.151-1.171m1.547-.113v.113q0 .36.054.671.059.312.188.554.134.236.344.37a1 1 0 0 0 .521.129q.397 0 .655-.177.258-.183.392-.5.14-.316.161-.73v-.704a2.5 2.5 0 0 0-.097-.607 1.3 1.3 0 0 0-.225-.467 1 1 0 0 0-.365-.301 1.14 1.14 0 0 0-.511-.107q-.3 0-.515.14a1 1 0 0 0-.349.37 2 2 0 0 0-.194.559q-.059.316-.059.687m8.264 1.638v-2.588q0-.28-.092-.478a.67.67 0 0 0-.284-.317.93.93 0 0 0-.489-.113q-.257 0-.446.091a.65.65 0 0 0-.29.253.7.7 0 0 0-.102.381h-1.547q0-.37.172-.704a1.75 1.75 0 0 1 .5-.585 2.5 2.5 0 0 1 .778-.403 3.4 3.4 0 0 1 1.021-.145q.677 0 1.203.226.527.226.827.676.306.452.306 1.128v2.487q0 .478.059.784.06.301.172.527V169h-1.563a2.3 2.3 0 0 1-.172-.591 5 5 0 0 1-.053-.72m.204-2.229.011.876h-.865q-.306 0-.532.07a1 1 0 0 0-.37.198.8.8 0 0 0-.215.291 1 1 0 0 0-.065.365.648.648 0 0 0 .355.607.9.9 0 0 0 .403.086q.349 0 .606-.14a1.1 1.1 0 0 0 .398-.344.7.7 0 0 0 .15-.386l.409.655a2.7 2.7 0 0 1-.237.456q-.144.237-.37.446a2 2 0 0 1-.543.339 2 2 0 0 1-.752.128q-.553 0-1.004-.22a1.8 1.8 0 0 1-.709-.617 1.6 1.6 0 0 1-.258-.903q0-.456.172-.811.171-.354.505-.596.337-.247.843-.371a4.8 4.8 0 0 1 1.171-.129zm5.626-2.272v1.096h-3.384v-1.096zm-2.546-1.434h1.547v5.495q0 .252.065.387a.4.4 0 0 0 .204.188q.134.048.338.048.145 0 .258-.011a3 3 0 0 0 .199-.032l.005 1.139a3 3 0 0 1-.43.102 3 3 0 0 1-.51.037 2.2 2.2 0 0 1-.891-.166 1.23 1.23 0 0 1-.581-.548q-.204-.376-.204-.988zm6.336 7.353q-.677 0-1.214-.214a2.7 2.7 0 0 1-.913-.607 2.7 2.7 0 0 1-.57-.897 3 3 0 0 1-.198-1.096v-.215q0-.66.188-1.208a2.8 2.8 0 0 1 .537-.951q.355-.403.859-.618.505-.22 1.139-.22.618 0 1.096.204.477.204.8.58.327.376.494.903.167.52.167 1.16v.644h-4.62v-1.031h3.1v-.118q0-.323-.119-.575a.9.9 0 0 0-.343-.408q-.231-.15-.591-.15a1 1 0 0 0-.527.134 1.04 1.04 0 0 0-.359.376q-.135.242-.205.569a3.6 3.6 0 0 0-.064.709v.215q0 .35.097.645.102.295.284.51.188.215.452.333.268.118.606.118.42 0 .779-.161a1.7 1.7 0 0 0 .629-.5l.752.817a2.3 2.3 0 0 1-.5.505 2.7 2.7 0 0 1-.752.397q-.44.15-1.004.15m11.102-2.701h1.606a2.9 2.9 0 0 1-.435 1.402q-.38.612-1.069.956-.681.343-1.643.343-.753 0-1.348-.257a2.9 2.9 0 0 1-1.021-.752 3.4 3.4 0 0 1-.639-1.182 5.1 5.1 0 0 1-.22-1.552v-.543q0-.86.225-1.552.231-.698.656-1.187a2.9 2.9 0 0 1 1.025-.752 3.3 3.3 0 0 1 1.332-.263q.978 0 1.649.354.678.355 1.048.978.375.623.451 1.418h-1.611a2.1 2.1 0 0 0-.188-.8 1.07 1.07 0 0 0-.489-.5q-.322-.172-.86-.172-.402 0-.703.151a1.3 1.3 0 0 0-.505.456 2.3 2.3 0 0 0-.306.774 5.3 5.3 0 0 0-.097 1.085v.553q0 .606.091 1.069.091.456.28.773a1.3 1.3 0 0 0 .494.473q.306.156.736.155.505 0 .832-.161.328-.16.5-.478.177-.317.209-.789m4.311-5.656V169h-1.547v-8.25zm-.22 5.14h-.425q.005-.606.161-1.117.156-.516.446-.892.29-.381.693-.59.408-.21.902-.21.43 0 .779.124.355.117.607.386.257.264.398.693.14.43.139 1.042V169h-1.557v-3.685q0-.386-.113-.607a.62.62 0 0 0-.317-.316 1.2 1.2 0 0 0-.505-.097q-.333 0-.569.123a1 1 0 0 0-.371.344 1.5 1.5 0 0 0-.204.505 3 3 0 0 0-.064.623m7.785 3.217q-.677 0-1.214-.214a2.7 2.7 0 0 1-.913-.607 2.7 2.7 0 0 1-.569-.897 3 3 0 0 1-.199-1.096v-.215q0-.66.188-1.208a2.8 2.8 0 0 1 .537-.951q.355-.403.86-.618.505-.22 1.138-.22.618 0 1.096.204t.8.58a2.5 2.5 0 0 1 .494.903q.167.52.167 1.16v.644h-4.619v-1.031h3.099v-.118q0-.323-.118-.575a.9.9 0 0 0-.344-.408q-.231-.15-.591-.15a1 1 0 0 0-.526.134 1.03 1.03 0 0 0-.36.376q-.135.242-.204.569a3.6 3.6 0 0 0-.065.709v.215q0 .35.097.645.102.295.285.51.187.215.451.333.268.118.607.118.419 0 .779-.161.365-.167.628-.5l.752.817a2.3 2.3 0 0 1-.5.505 2.7 2.7 0 0 1-.752.397q-.44.15-1.004.15m5.9-1.208q.285 0 .505-.107a.86.86 0 0 0 .344-.312.9.9 0 0 0 .134-.478h1.456a1.94 1.94 0 0 1-.328 1.09 2.26 2.26 0 0 1-.864.747 2.7 2.7 0 0 1-1.214.268q-.676 0-1.182-.225a2.3 2.3 0 0 1-.832-.623 2.7 2.7 0 0 1-.5-.935 3.9 3.9 0 0 1-.166-1.149v-.156q0-.618.166-1.149a2.7 2.7 0 0 1 .5-.935q.333-.403.832-.628.5-.226 1.171-.226.714 0 1.251.274.543.274.849.784.312.505.317 1.198h-1.456a1.2 1.2 0 0 0-.123-.526.928.928 0 0 0-.865-.521q-.339 0-.553.145a.93.93 0 0 0-.333.386 2 2 0 0 0-.167.554 5 5 0 0 0-.043.644v.156q0 .338.043.65.044.311.161.553a1 1 0 0 0 .339.381q.214.14.558.14m5.117-7.154V169h-1.547v-8.255zm3.663 2.443-2.525 2.879-1.353 1.37-.564-1.117 1.074-1.364 1.509-1.768zM338.202 169l-1.719-2.686 1.069-.934 2.433 3.62z"/><g filter="url(#r)"><path fill="#fff" d="M309.23 195H169.77c-11.471 0-20.77 8.954-20.77 20s9.299 20 20.77 20h139.46c11.471 0 20.77-8.954 20.77-20s-9.299-20-20.77-20"/></g><path fill="#fff" d="M310 194H169c-11.598 0-21 9.402-21 21s9.402 21 21 21h141c11.598 0 21-9.402 21-21s-9.402-21-21-21"/><path fill="#9CE0DF" d="M184 215c0-8.284-6.716-15-15-15s-15 6.716-15 15 6.716 15 15 15 15-6.716 15-15"/><path fill="#010181" d="M174.18 214.105q1.394.133 2.324 1.129.996.996.996 2.391 0 .93-.465 1.793-.465.797-1.328 1.262a3.37 3.37 0 0 1-1.727.465h-9.23a4.45 4.45 0 0 1-2.125-.532 4.8 4.8 0 0 1-1.594-1.527 4.6 4.6 0 0 1-.531-2.191 4.07 4.07 0 0 1 1.062-2.79q1.13-1.262 2.723-1.394a4.8 4.8 0 0 1 1.926-2.059 5.1 5.1 0 0 1 2.789-.797q1.926 0 3.387 1.196a4.96 4.96 0 0 1 1.793 3.054m-.2 5.645q.864 0 1.461-.598.664-.663.664-1.527t-.597-1.461q-.598-.597-1.395-.664l-1.062-.066-.266-1.063a3.67 3.67 0 0 0-1.328-2.191 3.62 3.62 0 0 0-2.457-.93q-1.062 0-1.992.598a3.74 3.74 0 0 0-1.461 1.527l-.332.664-.797.066a2.85 2.85 0 0 0-1.793.93q-.73.797-.73 1.926t.796 1.992a2.93 2.93 0 0 0 2.059.797zm-5.976-3.52v2.125h1.992v-2.125h1.859L169 213.375l-2.855 2.855z"/><path fill="#1A1A1A" d="M195.793 215.568h-2.008l-.011-1.107h1.686q.446 0 .731-.112a.9.9 0 0 0 .424-.339 1 1 0 0 0 .145-.548q0-.365-.139-.59a.77.77 0 0 0-.425-.328 2.2 2.2 0 0 0-.736-.102h-1.117V219h-1.611v-7.82h2.728q.683 0 1.22.129.542.129.918.392t.575.666q.198.398.199.945 0 .483-.221.892a1.63 1.63 0 0 1-.682.666q-.462.257-1.208.284zm-.069 3.432h-2.38l.629-1.257h1.751q.423 0 .692-.134a.9.9 0 0 0 .398-.376q.129-.236.129-.543 0-.343-.118-.596a.8.8 0 0 0-.366-.386q-.252-.14-.666-.14h-1.552l.011-1.107h1.934l.37.435q.714-.01 1.15.253.44.258.639.671.204.413.204.887 0 .751-.328 1.267-.327.51-.961.768-.629.258-1.536.258m7.307-1.311v-2.588q0-.28-.091-.478a.68.68 0 0 0-.285-.317.93.93 0 0 0-.489-.113q-.257 0-.445.091a.64.64 0 0 0-.29.253.7.7 0 0 0-.102.381h-1.547q0-.37.172-.704t.499-.585q.327-.258.779-.403a3.4 3.4 0 0 1 1.02-.145q.678 0 1.203.226.526.226.828.676.306.452.306 1.128v2.487q0 .478.059.784.059.301.172.527V219h-1.563a2.2 2.2 0 0 1-.172-.591 5 5 0 0 1-.054-.72m.204-2.229.011.876h-.865q-.306 0-.531.07a1 1 0 0 0-.371.198.8.8 0 0 0-.215.291 1 1 0 0 0-.064.365q0 .198.091.36a.66.66 0 0 0 .263.247.9.9 0 0 0 .403.086q.35 0 .607-.14.258-.14.397-.344a.7.7 0 0 0 .151-.386l.408.655a2.6 2.6 0 0 1-.236.456 1.92 1.92 0 0 1-.913.785 2 2 0 0 1-.752.128 2.26 2.26 0 0 1-1.005-.22 1.84 1.84 0 0 1-.709-.617 1.6 1.6 0 0 1-.258-.903q0-.456.172-.811.172-.354.505-.596.339-.247.843-.371a4.8 4.8 0 0 1 1.171-.129zm5.181 2.439q.285 0 .505-.107a.87.87 0 0 0 .478-.79h1.455a1.93 1.93 0 0 1-.327 1.09 2.26 2.26 0 0 1-.865.747 2.7 2.7 0 0 1-1.214.268q-.677 0-1.182-.225a2.3 2.3 0 0 1-.832-.623 2.7 2.7 0 0 1-.5-.935 3.9 3.9 0 0 1-.166-1.149v-.156q0-.618.166-1.149a2.7 2.7 0 0 1 .5-.935q.333-.403.832-.628.5-.226 1.171-.226.715 0 1.252.274.542.274.848.784.312.505.317 1.198h-1.455a1.2 1.2 0 0 0-.124-.526.924.924 0 0 0-.864-.521q-.338 0-.554.145a.93.93 0 0 0-.333.386 2 2 0 0 0-.166.554 5 5 0 0 0-.043.644v.156q0 .338.043.65.042.311.161.553a.97.97 0 0 0 .338.381q.216.14.559.14m5.116-7.154V219h-1.547v-8.255zm3.663 2.443-2.524 2.879-1.354 1.37-.564-1.117 1.074-1.364 1.51-1.768zM215.589 219l-1.719-2.686 1.069-.934 2.433 3.62zm5.943-1.391v-4.421h1.547V219h-1.455zm.172-1.192.457-.011q0 .58-.134 1.079-.135.495-.403.86-.269.36-.677.564a2.2 2.2 0 0 1-.961.198 2.5 2.5 0 0 1-.785-.118 1.6 1.6 0 0 1-.612-.381 1.85 1.85 0 0 1-.397-.671 3.1 3.1 0 0 1-.14-.994v-3.755h1.547v3.766q0 .257.059.435a.8.8 0 0 0 .177.29.65.65 0 0 0 .263.161q.156.048.344.048.478 0 .752-.193.28-.194.392-.527.118-.338.118-.751m4.338-2.111v6.928h-1.547v-8.046h1.434zm3.679 1.724v.113q0 .633-.15 1.176-.145.543-.43.945-.285.398-.709.623-.419.22-.967.22a1.9 1.9 0 0 1-.924-.214 1.9 1.9 0 0 1-.66-.602 3.5 3.5 0 0 1-.425-.908 7 7 0 0 1-.247-1.106v-.296q.086-.633.247-1.16.162-.531.425-.918.268-.393.655-.607.391-.215.918-.215.553 0 .972.21.425.209.709.601.29.392.436.935.15.542.15 1.203m-1.552.113v-.113a3.4 3.4 0 0 0-.065-.682 1.8 1.8 0 0 0-.193-.554.932.932 0 0 0-.854-.499q-.317 0-.543.102a.9.9 0 0 0-.359.295 1.4 1.4 0 0 0-.21.462 3 3 0 0 0-.086.607v.747q.027.397.15.714.124.312.382.494.257.183.677.183a.94.94 0 0 0 .515-.134q.21-.14.339-.382.134-.242.188-.558.059-.318.059-.682m5.72-5.393h1.547v6.918L235.28 219h-1.391zm5.226 5.285v.113q0 .65-.139 1.192a2.7 2.7 0 0 1-.419.94q-.285.393-.709.613-.42.214-.989.214-.531 0-.923-.214a1.9 1.9 0 0 1-.65-.607 3.5 3.5 0 0 1-.425-.919 7 7 0 0 1-.241-1.149v-.247q.08-.624.241-1.15.161-.527.425-.918.263-.393.65-.607a1.85 1.85 0 0 1 .913-.215q.575 0 .999.22.43.215.709.613.285.391.419.934.14.537.139 1.187m-1.547.113v-.113q0-.354-.053-.666a1.8 1.8 0 0 0-.172-.553.97.97 0 0 0-.338-.381q-.21-.14-.543-.14-.316 0-.537.107a1 1 0 0 0-.365.301 1.4 1.4 0 0 0-.21.462 3 3 0 0 0-.086.58v.704q.017.424.14.752.129.322.387.51.262.183.682.183.327 0 .542-.129a.87.87 0 0 0 .333-.366q.124-.236.172-.553.048-.322.048-.698m5.417 2.959q-.676 0-1.213-.214a2.7 2.7 0 0 1-.914-.607 2.7 2.7 0 0 1-.569-.897 3 3 0 0 1-.199-1.096v-.215q0-.66.188-1.208a2.9 2.9 0 0 1 .538-.951q.354-.403.859-.618.504-.22 1.139-.22.617 0 1.095.204t.801.58q.327.376.494.903.166.52.166 1.16v.644h-4.619v-1.031h3.099v-.118q0-.323-.118-.575a.9.9 0 0 0-.344-.408q-.231-.15-.591-.15a1 1 0 0 0-.526.134 1.03 1.03 0 0 0-.36.376 2 2 0 0 0-.204.569 3.6 3.6 0 0 0-.064.709v.215q0 .35.096.645.102.295.285.51.188.215.451.333.269.118.607.118.419 0 .779-.161.365-.167.628-.5l.752.817a2.3 2.3 0 0 1-.499.505 2.7 2.7 0 0 1-.752.397q-.441.15-1.005.15m5.471-.107h-1.558v-6.327q0-.661.258-1.112a1.7 1.7 0 0 1 .736-.687q.479-.237 1.133-.237.216 0 .414.032.198.028.387.07l-.016 1.166a1.3 1.3 0 0 0-.215-.038 3 3 0 0 0-.263-.011q-.28 0-.478.097a.65.65 0 0 0-.296.274.9.9 0 0 0-.102.446zm1.16-5.812v1.096h-3.582v-1.096zm.798 2.965v-.112q0-.64.183-1.177.182-.542.531-.94t.86-.617q.51-.226 1.171-.226a2.9 2.9 0 0 1 1.176.226q.516.22.865.617.354.398.537.94.183.537.182 1.177v.112q0 .634-.182 1.177a2.8 2.8 0 0 1-.537.94q-.35.397-.86.617t-1.171.22q-.66 0-1.176-.22a2.44 2.44 0 0 1-.865-.617 2.8 2.8 0 0 1-.531-.94 3.7 3.7 0 0 1-.183-1.177m1.547-.112v.112q0 .366.064.682.065.318.204.559.145.237.376.371t.564.134q.323 0 .554-.134a1 1 0 0 0 .37-.371 1.8 1.8 0 0 0 .204-.559q.07-.316.07-.682v-.112q0-.356-.07-.666a1.8 1.8 0 0 0-.209-.559 1.04 1.04 0 0 0-.371-.387 1.06 1.06 0 0 0-.558-.139q-.328 0-.559.139-.225.14-.371.387a1.8 1.8 0 0 0-.204.559 3.3 3.3 0 0 0-.064.666m6.69-1.585V219h-1.547v-5.812h1.456zm1.751-1.305-.027 1.434a4 4 0 0 0-.274-.027 3 3 0 0 0-.285-.016q-.327 0-.569.086-.237.08-.397.242a1.05 1.05 0 0 0-.237.392q-.075.23-.086.526l-.311-.097q0-.564.113-1.036.113-.478.327-.833.22-.354.537-.548.317-.192.725-.193.129 0 .264.022.133.015.22.048m3.531 5.956q-.676 0-1.213-.214a2.7 2.7 0 0 1-.913-.607 2.7 2.7 0 0 1-.57-.897 3 3 0 0 1-.199-1.096v-.215q0-.66.188-1.208a2.9 2.9 0 0 1 .538-.951q.354-.403.859-.618.505-.22 1.139-.22.617 0 1.095.204t.801.58q.327.376.494.903.166.52.166 1.16v.644h-4.619v-1.031h3.099v-.118q0-.323-.118-.575a.9.9 0 0 0-.344-.408q-.231-.15-.591-.15a1 1 0 0 0-.526.134 1.03 1.03 0 0 0-.36.376 2 2 0 0 0-.204.569 3.6 3.6 0 0 0-.064.709v.215q0 .35.096.645.102.295.285.51.188.215.451.333.269.118.607.118.419 0 .779-.161.365-.167.628-.5l.752.817a2.3 2.3 0 0 1-.499.505 2.7 2.7 0 0 1-.752.397q-.441.15-1.005.15m9.911-1.498v-4.421h1.546V219h-1.455zm.171-1.192.457-.011q0 .58-.134 1.079-.135.495-.403.86-.269.36-.677.564a2.2 2.2 0 0 1-.961.198 2.5 2.5 0 0 1-.785-.118 1.6 1.6 0 0 1-.612-.381 1.85 1.85 0 0 1-.397-.671 3.1 3.1 0 0 1-.14-.994v-3.755h1.547v3.766q0 .257.059.435a.8.8 0 0 0 .177.29.65.65 0 0 0 .263.161q.156.048.344.048.479 0 .752-.193.28-.194.392-.527.118-.338.118-.751m4.338-2.111v6.928h-1.547v-8.046h1.434zm3.679 1.724v.113q0 .633-.15 1.176-.145.543-.43.945-.285.398-.709.623-.419.22-.967.22a1.9 1.9 0 0 1-.924-.214 1.9 1.9 0 0 1-.66-.602 3.5 3.5 0 0 1-.425-.908 7 7 0 0 1-.247-1.106v-.296q.087-.633.247-1.16.161-.531.425-.918.268-.393.655-.607.392-.215.918-.215.553 0 .973.21.423.209.709.601.29.392.435.935.15.542.15 1.203m-1.552.113v-.113a3.4 3.4 0 0 0-.065-.682 1.8 1.8 0 0 0-.193-.554.93.93 0 0 0-.854-.499q-.316 0-.543.102a.9.9 0 0 0-.359.295 1.4 1.4 0 0 0-.21.462 3 3 0 0 0-.086.607v.747q.027.397.151.714.123.312.381.494.258.183.677.183a.94.94 0 0 0 .515-.134q.21-.14.339-.382.134-.242.188-.558.059-.318.059-.682m6.179 1.589v-6.982h1.558V219h-1.402zm-3.673-1.568v-.113q0-.666.15-1.208.15-.548.44-.94.29-.393.715-.607.425-.215.966-.215.511 0 .892.215.387.214.655.612.274.392.441.929.166.532.242 1.166v.247a6.3 6.3 0 0 1-.242 1.128 3.4 3.4 0 0 1-.441.913 1.95 1.95 0 0 1-.655.602 1.8 1.8 0 0 1-.902.214q-.543 0-.967-.22a2.05 2.05 0 0 1-.709-.617 3 3 0 0 1-.435-.935 4.3 4.3 0 0 1-.15-1.171m1.546-.113v.113q0 .36.054.671.06.312.188.554.135.236.344.37a1 1 0 0 0 .521.129q.397 0 .655-.177.258-.183.392-.5.14-.316.161-.73v-.704a2.5 2.5 0 0 0-.096-.607 1.3 1.3 0 0 0-.226-.467 1 1 0 0 0-.365-.301 1.1 1.1 0 0 0-.51-.107.9.9 0 0 0-.516.14 1 1 0 0 0-.349.37 2 2 0 0 0-.194.559q-.059.316-.059.687m8.264 1.638v-2.588q0-.28-.091-.478a.68.68 0 0 0-.285-.317.93.93 0 0 0-.489-.113q-.258 0-.446.091a.65.65 0 0 0-.29.253.7.7 0 0 0-.102.381h-1.546q0-.37.171-.704a1.75 1.75 0 0 1 .5-.585q.327-.258.779-.403a3.4 3.4 0 0 1 1.02-.145q.676 0 1.203.226t.827.676q.307.452.307 1.128v2.487q0 .478.059.784.058.301.172.527V219h-1.563a2.2 2.2 0 0 1-.172-.591 5 5 0 0 1-.054-.72m.204-2.229.011.876h-.865q-.306 0-.532.07a1 1 0 0 0-.37.198.8.8 0 0 0-.215.291 1 1 0 0 0-.065.365.654.654 0 0 0 .355.607.9.9 0 0 0 .403.086q.35 0 .607-.14.258-.14.397-.344a.7.7 0 0 0 .151-.386l.408.655a2.6 2.6 0 0 1-.237.456q-.144.237-.37.446a1.9 1.9 0 0 1-.543.339 2 2 0 0 1-.752.128q-.552 0-1.004-.22a1.84 1.84 0 0 1-.709-.617 1.6 1.6 0 0 1-.258-.903q0-.456.172-.811.172-.354.505-.596.339-.247.843-.371a4.8 4.8 0 0 1 1.171-.129zm5.627-2.272v1.096h-3.384v-1.096zm-2.546-1.434h1.547v5.495q0 .252.064.387a.4.4 0 0 0 .204.188q.134.048.338.048.146 0 .258-.011a3 3 0 0 0 .199-.032l.005 1.139a3 3 0 0 1-.429.102 3 3 0 0 1-.511.037 2.2 2.2 0 0 1-.891-.166 1.23 1.23 0 0 1-.58-.548q-.204-.376-.204-.988zm6.335 7.353q-.677 0-1.214-.214a2.7 2.7 0 0 1-.913-.607 2.7 2.7 0 0 1-.569-.897 3 3 0 0 1-.199-1.096v-.215q0-.66.188-1.208a2.8 2.8 0 0 1 .537-.951q.355-.403.859-.618.506-.22 1.139-.22.618 0 1.096.204t.8.58a2.5 2.5 0 0 1 .494.903q.167.52.167 1.16v.644h-4.619v-1.031h3.099v-.118q0-.323-.118-.575a.9.9 0 0 0-.344-.408q-.231-.15-.591-.15a1 1 0 0 0-.526.134 1.03 1.03 0 0 0-.36.376q-.135.242-.204.569a3.6 3.6 0 0 0-.065.709v.215q0 .35.097.645.102.295.285.51.187.215.451.333.268.118.607.118.419 0 .779-.161.364-.167.628-.5l.752.817a2.3 2.3 0 0 1-.5.505 2.7 2.7 0 0 1-.752.397q-.44.15-1.004.15m6.642-1.713a.5.5 0 0 0-.097-.301q-.097-.134-.36-.247a3.5 3.5 0 0 0-.747-.215 6 6 0 0 1-.821-.241 3 3 0 0 1-.656-.36 1.6 1.6 0 0 1-.429-.494 1.4 1.4 0 0 1-.156-.661q0-.365.156-.687.16-.322.456-.57.301-.252.731-.392.435-.145.977-.145.757 0 1.3.242.548.242.838.666.295.419.295.956h-1.546a.83.83 0 0 0-.097-.403.64.64 0 0 0-.29-.285 1.04 1.04 0 0 0-.505-.107q-.258 0-.446.091a.7.7 0 0 0-.29.237.57.57 0 0 0-.043.564q.059.102.188.187t.333.162q.21.069.516.129.629.128 1.122.338.495.204.784.559.291.348.291.918 0 .387-.172.709-.173.323-.495.564a2.5 2.5 0 0 1-.773.371 3.7 3.7 0 0 1-1.004.128q-.811 0-1.375-.29-.56-.29-.849-.735a1.7 1.7 0 0 1-.285-.924h1.467a.86.86 0 0 0 .161.51.9.9 0 0 0 .392.279q.242.087.521.086.3 0 .499-.08a.7.7 0 0 0 .301-.226.54.54 0 0 0 .108-.333"/><g filter="url(#s)"><path fill="#fff" d="M213.243 95H83.757C72.293 95 63 103.954 63 115s9.293 20 20.757 20h129.486c11.464 0 20.757-8.954 20.757-20s-9.293-20-20.757-20"/></g><path fill="#fff" d="M214 94H83c-11.598 0-21 9.402-21 21s9.402 21 21 21h131c11.598 0 21-9.402 21-21s-9.402-21-21-21"/><path fill="#010181" d="M98 115c0-8.284-6.716-15-15-15s-15 6.716-15 15 6.716 15 15 15 15-6.716 15-15"/><path fill="#fff" d="M81.24 111.98h6.375q.598 0 .996.399.399.399.399.996v6.375q0 .597-.399.996a1.35 1.35 0 0 1-.996.399H81.24a1.35 1.35 0 0 1-.996-.399 1.35 1.35 0 0 1-.398-.996v-6.375q0-.597.398-.996a1.35 1.35 0 0 1 .996-.399m6.375 1.395H81.24v6.375h6.375zM76.99 110.52q0-.598.399-.997.397-.398.996-.398h6.375q.597 0 .996.398.465.399.465.997h-7.106q-.266 0-.531.265a.64.64 0 0 0-.2.465v7.105a1.35 1.35 0 0 1-.995-.398 1.6 1.6 0 0 1-.399-1.062z"/><path fill="#1A1A1A" d="m109.922 117.367 1.842-6.187h1.794l-2.723 7.82h-1.182zm-1.698-6.187 1.837 6.187.28 1.633h-1.193l-2.707-7.82zm7.834 2.008V119h-1.552v-5.812zm-1.649-1.514a.73.73 0 0 1 .237-.559q.235-.22.633-.22.392 0 .629.22a.72.72 0 0 1 .242.559.72.72 0 0 1-.242.558q-.237.22-.629.221-.398 0-.633-.221a.73.73 0 0 1-.237-.558m6.303 5.72a.5.5 0 0 0-.096-.301q-.097-.134-.36-.247a3.5 3.5 0 0 0-.747-.215 6 6 0 0 1-.821-.241 3 3 0 0 1-.656-.36 1.6 1.6 0 0 1-.429-.494 1.4 1.4 0 0 1-.156-.661q0-.365.156-.687.16-.323.456-.57.301-.252.731-.392.435-.145.977-.145.757 0 1.3.242.548.242.838.666.295.419.295.956h-1.547a.83.83 0 0 0-.096-.403.64.64 0 0 0-.29-.285 1.05 1.05 0 0 0-.505-.107q-.258 0-.446.091a.7.7 0 0 0-.29.237.57.57 0 0 0-.043.564q.059.102.188.187t.333.162q.21.069.516.129.629.128 1.122.338.495.204.784.559.29.348.29.918 0 .387-.171.709-.172.323-.495.564a2.5 2.5 0 0 1-.773.371 3.7 3.7 0 0 1-1.004.128q-.811 0-1.375-.29-.56-.29-.849-.735a1.7 1.7 0 0 1-.285-.924h1.467q.01.316.161.51a.9.9 0 0 0 .392.279q.242.087.521.086.3 0 .499-.08a.7.7 0 0 0 .301-.226.54.54 0 0 0 .107-.333m6.18.215v-4.421h1.547V119h-1.456zm.172-1.192.457-.011q0 .58-.135 1.079-.134.495-.403.86-.268.36-.676.564a2.2 2.2 0 0 1-.962.198q-.424 0-.784-.118a1.6 1.6 0 0 1-.612-.381 1.85 1.85 0 0 1-.398-.671 3.1 3.1 0 0 1-.139-.994v-3.755h1.547v3.766q0 .257.059.435a.8.8 0 0 0 .177.29.65.65 0 0 0 .263.161q.156.048.344.048.477 0 .752-.193.28-.194.392-.527.118-.338.118-.751m5.927 1.272v-2.588q0-.28-.091-.478a.68.68 0 0 0-.285-.317.93.93 0 0 0-.489-.113q-.257 0-.445.091a.64.64 0 0 0-.29.253.7.7 0 0 0-.102.381h-1.547q0-.37.172-.704t.499-.585q.328-.258.779-.403a3.4 3.4 0 0 1 1.02-.145q.678 0 1.204.226t.827.676q.306.452.306 1.128v2.487q0 .478.059.784.059.301.172.527V119h-1.563a2.2 2.2 0 0 1-.172-.591 5 5 0 0 1-.054-.72m.204-2.229.011.876h-.865q-.306 0-.531.07a1 1 0 0 0-.371.198.8.8 0 0 0-.215.291 1 1 0 0 0-.064.365q0 .198.091.36a.66.66 0 0 0 .263.247.9.9 0 0 0 .403.086q.35 0 .607-.14.258-.14.397-.344a.7.7 0 0 0 .151-.386l.408.655a2.6 2.6 0 0 1-.236.456 1.92 1.92 0 0 1-.913.785 2 2 0 0 1-.752.128 2.26 2.26 0 0 1-1.005-.22 1.84 1.84 0 0 1-.709-.617 1.6 1.6 0 0 1-.258-.903q0-.457.172-.811t.505-.596q.339-.247.843-.371a4.8 4.8 0 0 1 1.171-.129zm4.413-4.71V119h-1.552v-8.25zm9.115 5.656h1.606a2.9 2.9 0 0 1-.435 1.402 2.6 2.6 0 0 1-1.069.956q-.683.343-1.644.343-.751 0-1.348-.257a2.9 2.9 0 0 1-1.02-.752 3.3 3.3 0 0 1-.639-1.182 5.1 5.1 0 0 1-.221-1.552v-.543q0-.86.226-1.552.23-.698.655-1.187a2.9 2.9 0 0 1 1.026-.752 3.3 3.3 0 0 1 1.332-.263q.978 0 1.649.354a2.6 2.6 0 0 1 1.048.978q.376.623.451 1.418h-1.612a2.1 2.1 0 0 0-.188-.8 1.07 1.07 0 0 0-.488-.5q-.323-.172-.86-.172-.402 0-.703.151a1.3 1.3 0 0 0-.505.456 2.3 2.3 0 0 0-.306.774 5.3 5.3 0 0 0-.097 1.085v.553q0 .606.091 1.069.091.456.28.773.192.311.494.473.306.155.735.155.506 0 .833-.161.327-.16.5-.478.177-.317.209-.789m4.31-5.656V119h-1.546v-8.25zm-.22 5.14h-.424q.005-.606.161-1.117.156-.516.446-.892.29-.381.693-.59.408-.21.902-.21.43 0 .779.124.355.117.607.386.258.264.397.693.14.43.14 1.042V119h-1.558v-3.685q0-.386-.112-.607a.62.62 0 0 0-.317-.316 1.2 1.2 0 0 0-.505-.097q-.333 0-.57.123a1 1 0 0 0-.37.344 1.5 1.5 0 0 0-.204.505 3 3 0 0 0-.065.623m8.248 1.799v-2.588q0-.28-.092-.478a.67.67 0 0 0-.284-.317.93.93 0 0 0-.489-.113q-.257 0-.446.091a.65.65 0 0 0-.29.253.7.7 0 0 0-.102.381h-1.547q0-.37.172-.704a1.75 1.75 0 0 1 .5-.585 2.5 2.5 0 0 1 .778-.403 3.4 3.4 0 0 1 1.021-.145q.677 0 1.203.226.527.226.827.676.306.452.306 1.128v2.487q0 .478.059.784.06.301.172.527V119h-1.563a2.2 2.2 0 0 1-.171-.591 5 5 0 0 1-.054-.72m.204-2.229.011.876h-.865q-.306 0-.532.07a1 1 0 0 0-.37.198.8.8 0 0 0-.215.291 1 1 0 0 0-.065.365.648.648 0 0 0 .355.607.9.9 0 0 0 .403.086q.348 0 .607-.14.257-.14.397-.344a.7.7 0 0 0 .15-.386l.409.655a2.7 2.7 0 0 1-.237.456q-.144.237-.37.446a2 2 0 0 1-.543.339 2 2 0 0 1-.752.128q-.553 0-1.004-.22a1.8 1.8 0 0 1-.709-.617 1.6 1.6 0 0 1-.258-.903q0-.457.172-.811t.505-.596q.338-.247.843-.371a4.8 4.8 0 0 1 1.171-.129zm4.294-1.031V119h-1.547v-5.812h1.451zm-.225 1.461h-.419q0-.645.166-1.16.166-.521.468-.886.3-.37.714-.564.419-.2.934-.199.409 0 .747.118.339.118.58.376.247.258.376.682.135.425.134 1.037V119h-1.557v-3.711q0-.387-.108-.602a.6.6 0 0 0-.317-.301 1.2 1.2 0 0 0-.504-.091 1.14 1.14 0 0 0-.543.123q-.226.124-.376.344-.145.215-.22.505a2.5 2.5 0 0 0-.075.623m8.79-2.702h1.402v5.619q0 .795-.355 1.348a2.2 2.2 0 0 1-.977.843q-.629.29-1.461.29-.366 0-.774-.097a3 3 0 0 1-.773-.3 2 2 0 0 1-.613-.516l.683-.913q.268.312.623.483.354.177.784.178.418 0 .709-.156.29-.15.446-.446a1.5 1.5 0 0 0 .155-.704v-4.286zm-3.91 2.976v-.113q0-.666.161-1.208.166-.548.467-.94.306-.393.741-.607.435-.215.983-.215.58 0 .972.215.392.214.645.612.252.392.392.929.146.532.225 1.166v.247a7 7 0 0 1-.241 1.128 3.5 3.5 0 0 1-.425.913 1.9 1.9 0 0 1-.655.602q-.387.214-.924.214t-.972-.22a2.2 2.2 0 0 1-.736-.617 3 3 0 0 1-.472-.935 4 4 0 0 1-.161-1.171m1.546-.113v.113q0 .36.07.671t.215.554q.15.236.371.37.225.129.531.129.424 0 .693-.177a1.1 1.1 0 0 0 .403-.5q.135-.316.156-.73v-.704a2.4 2.4 0 0 0-.091-.607 1.5 1.5 0 0 0-.226-.467 1 1 0 0 0-.376-.301 1.3 1.3 0 0 0-.548-.107 1 1 0 0 0-.532.14q-.22.134-.37.37a1.9 1.9 0 0 0-.22.559q-.076.317-.076.687m7.877 3.056q-.676 0-1.214-.214a2.7 2.7 0 0 1-.913-.607 2.7 2.7 0 0 1-.569-.897 3 3 0 0 1-.199-1.096v-.215q0-.66.188-1.208.189-.548.537-.951.355-.403.86-.618.505-.22 1.138-.22.618 0 1.096.204t.8.58a2.5 2.5 0 0 1 .495.903q.166.52.166 1.16v.644h-4.619v-1.031h3.099v-.118q0-.323-.118-.575a.9.9 0 0 0-.344-.408q-.231-.15-.591-.15a1 1 0 0 0-.526.134 1.03 1.03 0 0 0-.36.376 2 2 0 0 0-.204.569 3.6 3.6 0 0 0-.064.709v.215q0 .35.096.645.102.295.285.51.188.215.451.333.268.118.607.118.419 0 .779-.161.365-.167.628-.5l.752.817a2.3 2.3 0 0 1-.499.505 2.7 2.7 0 0 1-.752.397q-.441.15-1.005.15m9.749-6.59L185.259 119h-1.713l2.906-7.82h1.09zm1.767 6.483-2.132-6.483-.172-1.337h1.101l2.922 7.82zm-.096-2.911v1.262h-4.131v-1.262zm4.31-5.339V119h-1.552v-8.25zm4.187 8.357q-.677 0-1.214-.214a2.7 2.7 0 0 1-.913-.607 2.7 2.7 0 0 1-.569-.897 3 3 0 0 1-.199-1.096v-.215q0-.66.188-1.208a2.8 2.8 0 0 1 .537-.951q.355-.403.86-.618.504-.22 1.138-.22.618 0 1.096.204t.8.58a2.5 2.5 0 0 1 .494.903q.167.52.167 1.16v.644h-4.619v-1.031h3.099v-.118q0-.323-.118-.575a.9.9 0 0 0-.344-.408q-.231-.15-.591-.15a1 1 0 0 0-.526.134 1.03 1.03 0 0 0-.36.376q-.135.242-.204.569a3.6 3.6 0 0 0-.065.709v.215q0 .35.097.645.102.295.285.51.187.215.451.333.268.118.607.118.419 0 .779-.161.365-.167.628-.5l.752.817a2.3 2.3 0 0 1-.5.505 2.7 2.7 0 0 1-.751.397q-.441.15-1.005.15m5.046-4.651V119h-1.546v-5.812h1.455zm1.751-1.305-.026 1.434a4 4 0 0 0-.274-.027 3 3 0 0 0-.285-.016q-.327 0-.569.086-.236.08-.398.242a1.05 1.05 0 0 0-.236.392q-.075.23-.086.526l-.312-.097q0-.564.113-1.036.113-.478.328-.833.22-.354.537-.548.317-.193.725-.193.13 0 .263.022.135.015.22.048m4.08.037v1.096h-3.384v-1.096zm-2.546-1.434h1.547v5.495q0 .252.064.387a.4.4 0 0 0 .204.188q.135.048.339.048.145 0 .258-.011.118-.015.198-.032l.006 1.139a2.9 2.9 0 0 1-.94.139q-.51 0-.892-.166a1.23 1.23 0 0 1-.58-.548q-.204-.376-.204-.988zm6.803 5.64a.5.5 0 0 0-.097-.301q-.096-.134-.36-.247a3.5 3.5 0 0 0-.746-.215 6 6 0 0 1-.822-.241 3 3 0 0 1-.655-.36 1.6 1.6 0 0 1-.43-.494 1.4 1.4 0 0 1-.156-.661q0-.365.156-.687.16-.323.456-.57.301-.252.731-.392.435-.145.977-.145.758 0 1.3.242.548.242.838.666.296.419.296.956h-1.547a.83.83 0 0 0-.097-.403.64.64 0 0 0-.29-.285 1.04 1.04 0 0 0-.505-.107q-.258 0-.446.091a.7.7 0 0 0-.29.237.57.57 0 0 0-.096.322q0 .134.053.242.06.102.188.187.129.086.333.162.21.069.516.129.629.128 1.122.338.495.204.785.559.29.348.29.918 0 .387-.172.709-.173.323-.494.564a2.5 2.5 0 0 1-.774.371 3.7 3.7 0 0 1-1.004.128q-.811 0-1.375-.29-.559-.29-.849-.735a1.7 1.7 0 0 1-.284-.924h1.466a.86.86 0 0 0 .161.51.9.9 0 0 0 .392.279q.242.087.521.086.301 0 .5-.08a.7.7 0 0 0 .3-.226.54.54 0 0 0 .108-.333"/><g filter="url(#t)"><path fill="#fff" d="M241.321 45h-87.642C142.258 45 133 53.954 133 65s9.258 20 20.679 20h87.642C252.742 85 262 76.046 262 65s-9.258-20-20.679-20"/></g><path fill="#fff" d="M242 44h-89c-11.598 0-21 9.402-21 21s9.402 21 21 21h89c11.598 0 21-9.402 21-21s-9.402-21-21-21"/><path fill="#010181" d="M168 65c0-8.284-6.716-15-15-15s-15 6.716-15 15 6.716 15 15 15 15-6.716 15-15"/><path fill="#fff" d="M160.072 61.25v8.5q0 .597-.398.996a1.35 1.35 0 0 1-.996.398h-11.356q-.531 0-.996-.398a1.35 1.35 0 0 1-.398-.996v-8.5q0-.597.398-.996.465-.398.996-.398h11.356q.597 0 .996.398.398.399.398.996m-1.394 0h-11.356l5.711 3.52zm-5.645 4.98-5.711-3.586v7.106h11.356v-7.105z"/><path fill="#1A1A1A" d="M182.375 67.743V69h-4.163v-1.257zm-3.637-6.563V69h-1.611v-7.82zm3.094 3.185v1.224h-3.62v-1.224zm.537-3.185v1.262h-4.157V61.18zm2.63 3.212V69h-1.553v-5.812h1.456zm-.215 1.498h-.43q0-.606.145-1.117.15-.516.435-.892.29-.38.714-.59.425-.21.983-.21.387 0 .709.118.323.112.554.36.236.242.365.634.129.386.129.93V69h-1.547v-3.706q0-.398-.108-.612a.6.6 0 0 0-.306-.301 1.14 1.14 0 0 0-.467-.086q-.301 0-.526.123a1.05 1.05 0 0 0-.366.344 1.5 1.5 0 0 0-.214.505q-.07.29-.07.623m3.459-.177-.554.07q0-.57.14-1.058a2.7 2.7 0 0 1 .424-.86q.285-.37.704-.575.419-.21.967-.209.418 0 .763.124.344.118.585.38.247.259.376.678.134.418.134 1.026V69h-1.552v-3.711q0-.403-.107-.613a.56.56 0 0 0-.301-.295 1.1 1.1 0 0 0-.462-.086q-.279 0-.489.113a1 1 0 0 0-.349.3 1.4 1.4 0 0 0-.21.452 2 2 0 0 0-.069.553m8.108 1.977V65.1q0-.279-.092-.477a.7.7 0 0 0-.284-.317.94.94 0 0 0-.489-.113q-.258 0-.446.091a.65.65 0 0 0-.29.253.7.7 0 0 0-.102.381h-1.547q0-.37.172-.704a1.75 1.75 0 0 1 .499-.585q.328-.258.779-.403a3.4 3.4 0 0 1 1.021-.145q.677 0 1.203.226.526.225.827.676.306.451.306 1.128v2.487q0 .478.059.784.06.3.172.527V69h-1.563a2.3 2.3 0 0 1-.172-.59 5 5 0 0 1-.053-.72m.204-2.23.01.876h-.864q-.306 0-.532.07a1 1 0 0 0-.371.198.8.8 0 0 0-.215.29 1 1 0 0 0-.064.366q0 .198.091.36a.65.65 0 0 0 .263.247.9.9 0 0 0 .403.086q.35 0 .607-.14.258-.14.398-.344a.7.7 0 0 0 .15-.386l.408.655a2.7 2.7 0 0 1-.236.456q-.145.237-.371.446-.225.204-.542.338a2 2 0 0 1-.752.13q-.554 0-1.004-.22a1.8 1.8 0 0 1-.709-.619 1.6 1.6 0 0 1-.258-.902q0-.457.172-.81.171-.356.504-.597.339-.247.844-.37a4.8 4.8 0 0 1 1.171-.13zm4.412-2.271V69h-1.552v-5.812zm-1.649-1.515a.73.73 0 0 1 .237-.559q.236-.22.633-.22.392 0 .629.22a.72.72 0 0 1 .241.559q0 .338-.241.558-.236.22-.629.22-.397 0-.633-.22a.73.73 0 0 1-.237-.558m4.794-.924V69h-1.552v-8.25zm4.582.43h2.917q.897 0 1.541.268.65.27.999.795.35.527.349 1.295 0 .628-.215 1.08a2 2 0 0 1-.596.746 3.1 3.1 0 0 1-.897.472l-.51.269h-2.535l-.011-1.257h1.885q.425 0 .704-.15.28-.15.419-.42.145-.267.145-.622 0-.376-.14-.65a.94.94 0 0 0-.424-.42q-.285-.144-.714-.144h-1.306V69h-1.611zm4.372 7.82-1.783-3.486 1.703-.01 1.804 3.42V69zm5.487.107q-.677 0-1.214-.214a2.7 2.7 0 0 1-.913-.607 2.7 2.7 0 0 1-.569-.897 3 3 0 0 1-.199-1.096v-.215q0-.66.188-1.208.188-.549.537-.951a2.36 2.36 0 0 1 .859-.618q.506-.22 1.139-.22.618 0 1.096.204.477.204.8.58.327.376.494.903.167.52.167 1.16v.644h-4.619v-1.031h3.099v-.118q0-.323-.118-.575a.9.9 0 0 0-.344-.408q-.231-.15-.591-.15a1 1 0 0 0-.526.134q-.22.135-.36.376-.135.24-.204.57a3.6 3.6 0 0 0-.065.708v.215q0 .35.097.644.102.296.285.51.187.216.451.334.268.118.607.118.419 0 .778-.161.365-.167.629-.5l.752.817a2.3 2.3 0 0 1-.5.505 2.7 2.7 0 0 1-.752.397q-.44.15-1.004.15m5.046-4.801v6.928h-1.547V63.19h1.434zm3.679 1.724v.113a4.4 4.4 0 0 1-.15 1.176q-.145.542-.43.945a2 2 0 0 1-.709.623q-.419.22-.966.22-.532 0-.924-.214a1.9 1.9 0 0 1-.661-.602 3.5 3.5 0 0 1-.424-.908 7 7 0 0 1-.247-1.106v-.296a7 7 0 0 1 .247-1.16q.161-.531.424-.918.269-.393.655-.607.393-.215.919-.215.553 0 .972.21.424.21.709.601.29.392.435.935.15.541.15 1.203m-1.552.113v-.113q0-.371-.064-.682a1.8 1.8 0 0 0-.194-.554.929.929 0 0 0-.854-.5q-.317 0-.542.103a.9.9 0 0 0-.36.295 1.4 1.4 0 0 0-.209.462 3 3 0 0 0-.086.607v.747q.027.397.15.714.124.312.381.494.258.183.677.183a.94.94 0 0 0 .516-.134q.209-.14.338-.382.135-.24.188-.558a3.7 3.7 0 0 0 .059-.682m2.501.01v-.113q0-.639.182-1.176.183-.542.532-.94t.859-.617q.511-.225 1.171-.226.661 0 1.177.226.515.22.864.617.356.398.537.94.183.537.183 1.176v.113q0 .634-.183 1.177-.181.537-.537.94-.349.396-.859.617t-1.171.22q-.66 0-1.176-.22a2.4 2.4 0 0 1-.865-.618 2.8 2.8 0 0 1-.532-.94 3.7 3.7 0 0 1-.182-1.176m1.547-.113v.113q0 .366.064.682.065.318.204.559.145.237.376.37.231.135.564.135.322 0 .553-.134.231-.135.371-.371.14-.241.204-.559.07-.316.07-.682v-.113q0-.354-.07-.666a1.8 1.8 0 0 0-.21-.558 1.04 1.04 0 0 0-.37-.387 1.06 1.06 0 0 0-.559-.14 1.06 1.06 0 0 0-.558.14 1.1 1.1 0 0 0-.371.387 1.9 1.9 0 0 0-.204.558q-.064.312-.064.666m6.689-1.584V69h-1.546v-5.812h1.455zm1.751-1.305-.026 1.434a4 4 0 0 0-.274-.027 3 3 0 0 0-.285-.016 1.7 1.7 0 0 0-.569.086q-.236.08-.398.242a1.06 1.06 0 0 0-.236.392q-.075.231-.086.526l-.312-.097q0-.564.113-1.036.113-.478.328-.833.22-.354.537-.548.317-.193.725-.193.13 0 .263.021.135.016.22.049m4.08.037v1.096h-3.384v-1.096zm-2.546-1.434h1.547v5.495a.9.9 0 0 0 .064.387.4.4 0 0 0 .204.188q.135.048.339.048.145 0 .258-.01.118-.017.198-.033l.006 1.139a3 3 0 0 1-.94.14q-.51 0-.892-.167a1.23 1.23 0 0 1-.58-.548q-.204-.376-.204-.988z"/><mask id="u" width="119" height="124" x="285" y="12" maskUnits="userSpaceOnUse" style="mask-type:alpha"><path fill="#000" d="M285 22.475C285 16.69 289.69 12 295.475 12H384c11.046 0 20 8.954 20 20v84c0 11.046-8.954 20-20 20h-79c-11.046 0-20-8.954-20-20z"/></mask><g mask="url(#u)"><g filter="url(#v)"><path fill="url(#w)" d="M36 74c0-21.213 0-31.82 6.59-38.41S59.787 29 81 29h263c21.213 0 31.82 0 38.41 6.59S389 52.787 389 74v111c0 21.213 0 31.82-6.59 38.41S365.213 230 344 230H81c-21.213 0-31.82 0-38.41-6.59S36 206.213 36 185z"/></g><path fill="#fff" d="M316.891 55.563c6.567 0 11.891-5.324 11.891-11.891s-5.324-11.89-11.891-11.89S305 37.104 305 43.671s5.324 11.89 11.891 11.89"/><path fill="#010181" d="m314.887 39.588-2.228 1.864-.591-.773 2.228-1.864zm4.592-.773-.637.773 2.228 1.864.637-.773zm-2.364 3.001v2.546l1.955 1.182-.364.59-2.319-1.408v-2.91zm-.228-1.91q1.182 0 2.183.592a4.46 4.46 0 0 1 1.591 1.59q.591 1 .591 2.183t-.591 2.182a4.45 4.45 0 0 1-1.591 1.591 4.2 4.2 0 0 1-2.183.591 4.2 4.2 0 0 1-2.182-.59 4.45 4.45 0 0 1-1.591-1.592 4.2 4.2 0 0 1-.591-2.182q0-1.182.546-2.182a4.45 4.45 0 0 1 1.591-1.591 4.45 4.45 0 0 1 2.227-.591m-3.409 4.365q0 .91.454 1.682.455.772 1.228 1.228a3.26 3.26 0 0 0 1.682.454q.954 0 1.728-.454a3.4 3.4 0 0 0 1.227-1.228 3.26 3.26 0 0 0 .455-1.682q0-.954-.455-1.728a3.4 3.4 0 0 0-1.227-1.227 3.35 3.35 0 0 0-1.728-.455q-.91 0-1.682.455a3.4 3.4 0 0 0-1.228 1.227 3.34 3.34 0 0 0-.454 1.728"/><path fill="#fff" d="M308.035 70.261a.7.7 0 0 0-.041-.239.45.45 0 0 0-.144-.198 1.3 1.3 0 0 0-.297-.181 4 4 0 0 0-.496-.185 6 6 0 0 1-.642-.246 2.6 2.6 0 0 1-.533-.318 1.4 1.4 0 0 1-.363-.427 1.2 1.2 0 0 1-.129-.564q0-.31.136-.564.137-.256.383-.437a1.8 1.8 0 0 1 .581-.284q.339-.099.742-.099.55 0 .96.198.41.199.636.544a1.4 1.4 0 0 1 .229.79h-1.019a.76.76 0 0 0-.092-.384.62.62 0 0 0-.273-.263 1 1 0 0 0-.458-.096q-.267 0-.445.082a.6.6 0 0 0-.266.216.53.53 0 0 0-.089.3q0 .127.061.23a.7.7 0 0 0 .192.19q.126.09.311.168.184.08.427.154.406.123.714.277.312.154.52.345.209.192.314.434.106.243.106.55a1.197 1.197 0 0 1-.492 1.015q-.239.179-.571.27a2.8 2.8 0 0 1-.741.093q-.37 0-.728-.096a2.2 2.2 0 0 1-.653-.297 1.5 1.5 0 0 1-.465-.506 1.45 1.45 0 0 1-.174-.728h1.029a1 1 0 0 0 .071.393.65.65 0 0 0 .202.26.9.9 0 0 0 .314.143q.185.045.404.045.266 0 .437-.076a.54.54 0 0 0 .342-.509m3.329.602q.18 0 .321-.069a.54.54 0 0 0 .218-.198.6.6 0 0 0 .086-.304h.926q-.003.39-.208.694-.205.3-.551.475-.345.17-.772.17a1.8 1.8 0 0 1-.752-.143 1.5 1.5 0 0 1-.53-.396 1.7 1.7 0 0 1-.317-.595 2.4 2.4 0 0 1-.106-.731v-.1q0-.392.106-.73.105-.343.317-.595.212-.257.53-.4t.745-.144q.455 0 .796.175.346.174.54.498.2.322.202.763h-.926a.8.8 0 0 0-.079-.335.589.589 0 0 0-.55-.332.6.6 0 0 0-.352.092.6.6 0 0 0-.212.246q-.075.154-.106.353-.027.194-.027.41v.099q0 .215.027.413t.103.352a.6.6 0 0 0 .215.243q.137.09.356.089m3.222-4.55v5.25h-.984v-5.25zm-.14 3.272h-.27q.003-.387.103-.711.099-.328.283-.568.184-.242.441-.376a1.24 1.24 0 0 1 .574-.133q.274 0 .496.079.225.075.386.246.164.167.253.44.089.274.089.664v2.337h-.991V69.22a.86.86 0 0 0-.072-.386.4.4 0 0 0-.202-.202.74.74 0 0 0-.321-.061.8.8 0 0 0-.362.078.6.6 0 0 0-.236.219 1 1 0 0 0-.13.321 2 2 0 0 0-.041.397m4.945 2.047q-.43 0-.772-.137a1.7 1.7 0 0 1-.581-.386 1.7 1.7 0 0 1-.362-.57 1.9 1.9 0 0 1-.127-.698v-.137q0-.42.12-.769.12-.348.342-.605.225-.256.546-.393a1.8 1.8 0 0 1 .725-.14q.393 0 .697.13.305.13.509.37.209.239.315.573.106.331.106.739v.41h-2.939v-.657h1.971v-.075a.86.86 0 0 0-.075-.365.6.6 0 0 0-.218-.26.7.7 0 0 0-.376-.096.63.63 0 0 0-.335.086.65.65 0 0 0-.229.239 1.3 1.3 0 0 0-.13.362 2.3 2.3 0 0 0-.041.451v.137q0 .222.061.41.066.188.181.325.12.136.288.212.17.075.386.075.266 0 .495-.103.233-.105.4-.318l.479.52a1.5 1.5 0 0 1-.318.321 1.7 1.7 0 0 1-.479.253 2 2 0 0 1-.639.096m4.402-.875v-4.443h.991v5.25h-.892zm-2.338-.998v-.072q0-.423.096-.769.096-.349.28-.598.185-.25.455-.386.27-.137.615-.137.325 0 .567.137.246.136.417.39.175.25.281.59.105.34.153.742v.158a4 4 0 0 1-.153.717 2.1 2.1 0 0 1-.281.581 1.24 1.24 0 0 1-.417.383 1.16 1.16 0 0 1-.574.137q-.345 0-.615-.14a1.3 1.3 0 0 1-.451-.393 1.9 1.9 0 0 1-.277-.595 2.8 2.8 0 0 1-.096-.745m.985-.072v.072q0 .23.034.427.038.198.119.352.085.15.219.236a.63.63 0 0 0 .332.082.72.72 0 0 0 .417-.113.73.73 0 0 0 .249-.318q.089-.201.103-.465v-.447a1.6 1.6 0 0 0-.062-.386.9.9 0 0 0-.143-.298.64.64 0 0 0-.233-.191.7.7 0 0 0-.324-.068.6.6 0 0 0-.329.088.65.65 0 0 0-.222.236q-.081.15-.123.356-.037.201-.037.437m5.44.991v-2.812h.985v3.697h-.927zm.11-.758.29-.007q0 .369-.085.687-.086.315-.257.547a1.2 1.2 0 0 1-.43.358 1.4 1.4 0 0 1-.612.127q-.27 0-.499-.075a1 1 0 0 1-.389-.243 1.16 1.16 0 0 1-.253-.427 2 2 0 0 1-.089-.633v-2.389h.984v2.396q0 .165.038.277a.5.5 0 0 0 .112.185.4.4 0 0 0 .168.102q.099.03.219.031.304 0 .478-.123a.65.65 0 0 0 .25-.335q.075-.216.075-.478m2.805-3.606v5.25h-.987v-5.25zm2.656 5.318a2.1 2.1 0 0 1-.773-.137 1.7 1.7 0 0 1-.581-.386 1.7 1.7 0 0 1-.362-.57 1.9 1.9 0 0 1-.126-.698v-.137q0-.42.119-.769.12-.348.342-.605.226-.256.547-.393.321-.14.724-.14.394 0 .698.13t.509.37q.209.239.314.573.106.331.106.739v.41h-2.939v-.657h1.972v-.075a.86.86 0 0 0-.075-.365.6.6 0 0 0-.219-.26.68.68 0 0 0-.376-.096.63.63 0 0 0-.335.086.7.7 0 0 0-.229.239q-.085.153-.13.362a2.3 2.3 0 0 0-.041.451v.137q0 .222.062.41a1 1 0 0 0 .181.325q.12.136.287.212.171.075.386.075.267 0 .496-.103.232-.105.4-.318l.478.52a1.4 1.4 0 0 1-.318.321 1.7 1.7 0 0 1-.478.253q-.28.096-.639.096m7.047-1.72h1.022a1.86 1.86 0 0 1-.277.893q-.243.39-.68.608-.434.219-1.046.219-.478 0-.858-.164a1.8 1.8 0 0 1-.649-.479 2.1 2.1 0 0 1-.407-.752 3.3 3.3 0 0 1-.14-.987v-.346q0-.546.143-.987.147-.444.417-.755.274-.312.653-.479a2.1 2.1 0 0 1 .848-.167q.621 0 1.049.225.43.225.666.622.24.396.287.902h-1.025q-.017-.3-.119-.509a.68.68 0 0 0-.311-.318q-.205-.11-.547-.109a1 1 0 0 0-.448.096.8.8 0 0 0-.321.29q-.13.195-.195.492a3.4 3.4 0 0 0-.062.69v.353q0 .386.059.68.058.29.177.492a.8.8 0 0 0 .315.3q.195.1.468.1.321 0 .53-.103a.7.7 0 0 0 .317-.304 1.2 1.2 0 0 0 .134-.502m2.734-3.598v5.25h-.985v-5.25zm-.14 3.27h-.27q.003-.386.102-.71.1-.328.284-.568.184-.242.441-.376.26-.132.574-.133.273 0 .495.079.226.075.387.246.163.167.252.44.09.274.089.664v2.337h-.991V69.22a.86.86 0 0 0-.072-.386.4.4 0 0 0-.201-.202.75.75 0 0 0-.321-.061.8.8 0 0 0-.363.078.63.63 0 0 0-.236.219 1 1 0 0 0-.129.321 1.8 1.8 0 0 0-.041.397m4.945 2.048a2.1 2.1 0 0 1-.773-.137 1.7 1.7 0 0 1-.581-.386 1.7 1.7 0 0 1-.362-.57 1.9 1.9 0 0 1-.126-.698v-.137q0-.42.119-.769.12-.348.342-.605a1.5 1.5 0 0 1 .547-.393q.322-.14.724-.14.393 0 .698.13.303.13.509.37.209.239.314.573.106.331.106.739v.41h-2.939v-.657h1.972v-.075a.86.86 0 0 0-.075-.365.6.6 0 0 0-.219-.26.68.68 0 0 0-.376-.096.63.63 0 0 0-.335.086.66.66 0 0 0-.229.239q-.085.153-.13.362a2.3 2.3 0 0 0-.041.451v.137q0 .222.062.41a1 1 0 0 0 .181.325q.12.136.287.212.171.075.386.075.267 0 .496-.103.232-.105.4-.318l.478.52a1.4 1.4 0 0 1-.318.321 1.7 1.7 0 0 1-.478.253q-.28.096-.639.096m3.745-.77a.7.7 0 0 0 .322-.068.54.54 0 0 0 .218-.198.6.6 0 0 0 .086-.304h.926q-.003.39-.208.694a1.44 1.44 0 0 1-.551.475q-.345.17-.772.17a1.8 1.8 0 0 1-.752-.143 1.5 1.5 0 0 1-.53-.396 1.8 1.8 0 0 1-.318-.595 2.5 2.5 0 0 1-.106-.731v-.1q0-.392.106-.73.107-.343.318-.595.213-.257.53-.4t.745-.144q.455 0 .796.175.345.174.54.498.198.322.202.763h-.926a.8.8 0 0 0-.079-.335.59.59 0 0 0-.55-.332.6.6 0 0 0-.352.092.6.6 0 0 0-.212.246q-.075.154-.106.353-.027.194-.027.41v.099q0 .215.027.413t.103.352a.6.6 0 0 0 .215.243q.137.09.355.089m3.247-4.551v5.252h-.984v-5.252zm2.331 1.554-1.606 1.832-.862.872-.359-.711.684-.868.96-1.124zm-1.022 3.698-1.094-1.708.68-.595 1.549 2.303zm3.585-1.022a.32.32 0 0 0-.062-.19.54.54 0 0 0-.229-.158 2.2 2.2 0 0 0-.475-.137 4 4 0 0 1-.523-.154 1.8 1.8 0 0 1-.416-.228.875.875 0 0 1-.373-.735q0-.233.099-.438.102-.204.291-.362.19-.16.464-.25a2 2 0 0 1 .622-.092q.482 0 .827.154.35.154.534.424.188.266.188.608h-.985a.5.5 0 0 0-.061-.256.4.4 0 0 0-.185-.181.66.66 0 0 0-.321-.069.65.65 0 0 0-.284.058.44.44 0 0 0-.184.15.36.36 0 0 0-.028.36.4.4 0 0 0 .12.12q.082.054.212.102.133.045.328.082.4.081.714.215.315.13.499.356.185.221.185.584a.94.94 0 0 1-.11.451 1.1 1.1 0 0 1-.314.359q-.205.15-.492.236a2.3 2.3 0 0 1-.639.082q-.516 0-.875-.185a1.4 1.4 0 0 1-.54-.468 1.1 1.1 0 0 1-.181-.588h.933a.55.55 0 0 0 .102.325q.1.123.25.178a1 1 0 0 0 .331.054.9.9 0 0 0 .318-.051.46.46 0 0 0 .192-.144.35.35 0 0 0 .068-.212M308.795 86.935a.8.8 0 0 0-.052-.3.56.56 0 0 0-.179-.247 1.6 1.6 0 0 0-.372-.227 5 5 0 0 0-.619-.23 8 8 0 0 1-.804-.308 3.3 3.3 0 0 1-.666-.398 1.8 1.8 0 0 1-.453-.534 1.46 1.46 0 0 1-.163-.705q0-.39.171-.705.171-.32.479-.547.307-.23.726-.355a3.3 3.3 0 0 1 .928-.124q.687 0 1.2.248t.795.68q.287.43.287.987h-1.274a.96.96 0 0 0-.115-.479.8.8 0 0 0-.342-.329 1.2 1.2 0 0 0-.573-.12q-.333 0-.555.103a.74.74 0 0 0-.334.27.66.66 0 0 0-.111.375q0 .158.077.287a.9.9 0 0 0 .239.239q.159.111.389.21.231.098.534.192.508.154.894.346.388.192.649.431.261.24.393.543.133.304.133.688 0 .405-.158.727a1.5 1.5 0 0 1-.458.542q-.299.223-.713.338a3.5 3.5 0 0 1-.928.115q-.461 0-.91-.12a2.8 2.8 0 0 1-.816-.371 1.9 1.9 0 0 1-.581-.632 1.8 1.8 0 0 1-.218-.91h1.286q0 .29.09.49.09.202.252.325.167.124.393.18.231.055.504.055.334.001.547-.094a.67.67 0 0 0 .428-.636m4.952.521V83.94h1.23v4.624h-1.158zm.136-.949.364-.008q0 .462-.107.859-.106.393-.321.684-.214.285-.538.448a1.7 1.7 0 0 1-.765.158q-.338 0-.624-.094a1.3 1.3 0 0 1-.487-.303 1.46 1.46 0 0 1-.316-.534 2.5 2.5 0 0 1-.112-.79v-2.988h1.231v2.996q0 .204.047.346.051.14.141.23t.21.129a1 1 0 0 0 .273.038q.38 0 .598-.153a.8.8 0 0 0 .312-.42q.094-.268.094-.598m3.38-1.58v3.636h-1.231v-4.624h1.154zm-.18 1.162h-.333q0-.513.132-.923.133-.415.372-.706.24-.294.568-.448.334-.159.744-.158.324 0 .594.094.269.093.461.299.197.204.3.543.106.338.106.824v2.949h-1.239V85.61q0-.308-.085-.479a.48.48 0 0 0-.252-.239 1 1 0 0 0-.402-.073.9.9 0 0 0-.432.099.9.9 0 0 0-.299.273 1.3 1.3 0 0 0-.175.402q-.06.23-.06.496m6.751 1.465V82h1.239v6.564h-1.115zm-2.923-1.247v-.09q0-.53.12-.962.119-.436.35-.748t.568-.482q.339-.171.77-.171.405 0 .709.17.308.171.521.488.218.312.351.739.132.423.192.927v.197q-.06.483-.192.897a2.7 2.7 0 0 1-.351.727 1.54 1.54 0 0 1-.521.478 1.45 1.45 0 0 1-.718.171q-.432 0-.769-.175a1.64 1.64 0 0 1-.564-.491 2.3 2.3 0 0 1-.346-.744 3.4 3.4 0 0 1-.12-.931m1.231-.09v.09q0 .285.042.534.048.248.15.44a.8.8 0 0 0 .274.295.8.8 0 0 0 .414.102.9.9 0 0 0 .521-.14.9.9 0 0 0 .312-.398 1.7 1.7 0 0 0 .129-.581v-.56a2 2 0 0 0-.077-.483 1.1 1.1 0 0 0-.18-.372.8.8 0 0 0-.29-.24.9.9 0 0 0-.406-.085.74.74 0 0 0-.411.111.8.8 0 0 0-.277.295q-.103.189-.154.445a3 3 0 0 0-.047.547m6.528 1.303v-2.06a.9.9 0 0 0-.072-.38.54.54 0 0 0-.227-.252.75.75 0 0 0-.389-.09.8.8 0 0 0-.354.073.5.5 0 0 0-.231.2.56.56 0 0 0-.081.304h-1.231q0-.294.137-.56a1.4 1.4 0 0 1 .397-.465 2 2 0 0 1 .62-.321q.363-.115.812-.115.538 0 .957.18.419.178.658.538.244.359.244.897v1.979q0 .38.047.624.047.239.136.418v.073h-1.243a1.8 1.8 0 0 1-.137-.47 4 4 0 0 1-.043-.573m.163-1.773.008.696h-.688q-.243 0-.423.056a.8.8 0 0 0-.295.158.6.6 0 0 0-.17.23.8.8 0 0 0-.052.291q0 .158.073.287a.5.5 0 0 0 .209.196.7.7 0 0 0 .321.069 1 1 0 0 0 .483-.112.9.9 0 0 0 .316-.273.57.57 0 0 0 .12-.308l.324.522a2.1 2.1 0 0 1-.483.718 1.5 1.5 0 0 1-.431.269 1.6 1.6 0 0 1-.598.102q-.44 0-.8-.175a1.46 1.46 0 0 1-.564-.491 1.3 1.3 0 0 1-.205-.718q0-.363.137-.645t.402-.475a1.9 1.9 0 0 1 .671-.295q.401-.102.931-.102zm3.469 2.295 1.226-4.103h1.321l-1.859 5.32q-.06.176-.163.376-.098.201-.269.38a1.3 1.3 0 0 1-.423.3 1.5 1.5 0 0 1-.62.115q-.174 0-.286-.021a5 5 0 0 1-.265-.06v-.901h.099q.05.004.098.004.243 0 .397-.056a.55.55 0 0 0 .248-.17.8.8 0 0 0 .15-.291zm-.513-4.103 1.004 3.35.175 1.304-.837.09-1.662-4.744zm4.225 3.586-.004.824q0 .475-.239.957a2.4 2.4 0 0 1-.599.791l-.641-.329q.107-.196.21-.393a2.4 2.4 0 0 0 .171-.432q.068-.234.068-.534v-.885zm5.943-.005v-2.06a.9.9 0 0 0-.073-.38.54.54 0 0 0-.227-.252.74.74 0 0 0-.388-.09.8.8 0 0 0-.355.073.5.5 0 0 0-.231.2.56.56 0 0 0-.081.304h-1.231q0-.294.137-.56.137-.265.397-.465a2 2 0 0 1 .62-.321q.363-.115.812-.115.538 0 .957.18.419.178.658.538.244.359.244.897v1.979q0 .38.047.624.047.239.137.418v.073h-1.244a1.8 1.8 0 0 1-.137-.47 4 4 0 0 1-.042-.573m.162-1.773.008.696h-.688q-.243 0-.423.056a.8.8 0 0 0-.294.158.6.6 0 0 0-.171.23.8.8 0 0 0-.052.291q0 .158.073.287a.5.5 0 0 0 .209.196.7.7 0 0 0 .321.069 1 1 0 0 0 .483-.112.9.9 0 0 0 .316-.273.57.57 0 0 0 .12-.308l.324.522a2.1 2.1 0 0 1-.482.718q-.18.162-.432.269a1.6 1.6 0 0 1-.598.102q-.44 0-.799-.175a1.46 1.46 0 0 1-.565-.491 1.3 1.3 0 0 1-.205-.718q0-.363.137-.645t.402-.475a1.9 1.9 0 0 1 .671-.295q.401-.102.931-.102zm4.43-1.808v.872h-2.692v-.872zm-2.025-1.14h1.231v4.37q0 .202.051.309a.3.3 0 0 0 .162.149.8.8 0 0 0 .269.038q.116 0 .206-.008a3 3 0 0 0 .158-.026l.004.906a2.3 2.3 0 0 1-.748.111q-.406 0-.709-.132a.98.98 0 0 1-.462-.436q-.162-.3-.162-.786zm8.134-.471v6.235h-1.23v-4.816l-1.479.47v-.97l2.577-.919zm2.264 5.64q0-.272.188-.456a.7.7 0 0 1 .509-.184q.317 0 .504.184a.6.6 0 0 1 .192.457.6.6 0 0 1-.192.457q-.187.184-.504.184a.7.7 0 0 1-.509-.184.62.62 0 0 1-.188-.457m0-3.525q0-.273.188-.457a.7.7 0 0 1 .509-.184q.317 0 .504.184a.6.6 0 0 1 .192.457.6.6 0 0 1-.192.458q-.187.183-.504.183a.7.7 0 0 1-.509-.183.62.62 0 0 1-.188-.458m6.7.462v1.077q0 .7-.15 1.21a2.2 2.2 0 0 1-.431.828 1.7 1.7 0 0 1-.663.475 2.3 2.3 0 0 1-.854.153 2.5 2.5 0 0 1-.701-.094 1.8 1.8 0 0 1-.586-.303 1.9 1.9 0 0 1-.444-.517 2.6 2.6 0 0 1-.282-.752 4.6 4.6 0 0 1-.098-1v-1.077q0-.701.149-1.2a2.25 2.25 0 0 1 .432-.826q.282-.32.666-.47.385-.154.855-.154.376 0 .697.099.324.093.585.294t.444.518q.184.312.283.748.098.431.098.99m-1.235 1.24v-1.407q0-.337-.039-.59a1.7 1.7 0 0 0-.106-.427.9.9 0 0 0-.18-.29.65.65 0 0 0-.244-.163.9.9 0 0 0-.303-.051.8.8 0 0 0-.372.081.7.7 0 0 0-.269.26 1.4 1.4 0 0 0-.171.47 4 4 0 0 0-.055.71v1.406q0 .337.034.594.038.257.111.44.077.18.179.295a.7.7 0 0 0 .244.163.9.9 0 0 0 .308.05.8.8 0 0 0 .363-.08.7.7 0 0 0 .273-.265q.115-.184.171-.479a4 4 0 0 0 .056-.718m6.4-1.24v1.077q0 .7-.149 1.21-.15.503-.432.828a1.7 1.7 0 0 1-.662.475 2.3 2.3 0 0 1-.855.153q-.376 0-.701-.094a1.8 1.8 0 0 1-.585-.303 2 2 0 0 1-.445-.517 2.7 2.7 0 0 1-.282-.752 4.6 4.6 0 0 1-.098-1v-1.077q0-.701.15-1.2.153-.505.431-.826.282-.32.667-.47.384-.154.855-.154.375 0 .696.099.325.093.586.294t.444.518q.183.312.282.748.098.431.098.99m-1.235 1.24v-1.407q0-.337-.038-.59a1.8 1.8 0 0 0-.107-.427.9.9 0 0 0-.179-.29.7.7 0 0 0-.244-.163.9.9 0 0 0-.303-.051.8.8 0 0 0-.372.081.7.7 0 0 0-.269.26 1.4 1.4 0 0 0-.171.47 4 4 0 0 0-.056.71v1.406q0 .337.034.594.039.257.111.44.077.18.18.295a.65.65 0 0 0 .243.163.9.9 0 0 0 .308.05.8.8 0 0 0 .363-.08.7.7 0 0 0 .274-.265q.115-.184.171-.479a4 4 0 0 0 .055-.718m7.079 1.375v-2.06a.9.9 0 0 0-.072-.38.54.54 0 0 0-.227-.252.75.75 0 0 0-.389-.09.8.8 0 0 0-.354.073.5.5 0 0 0-.231.2.56.56 0 0 0-.081.304h-1.231q0-.294.137-.56a1.4 1.4 0 0 1 .397-.465 2 2 0 0 1 .62-.321q.363-.115.812-.115.538 0 .957.18.418.178.658.538.243.359.244.897v1.979q0 .38.047.624.046.239.136.418v.073h-1.243a1.8 1.8 0 0 1-.137-.47 4 4 0 0 1-.043-.573m.163-1.773.008.696h-.688q-.243 0-.423.056a.8.8 0 0 0-.295.158.6.6 0 0 0-.171.23.8.8 0 0 0-.051.291q0 .158.073.287a.5.5 0 0 0 .209.196.7.7 0 0 0 .321.069 1 1 0 0 0 .482-.112.9.9 0 0 0 .317-.273.57.57 0 0 0 .119-.308l.325.522a2.1 2.1 0 0 1-.483.718 1.5 1.5 0 0 1-.431.269 1.6 1.6 0 0 1-.599.102 1.8 1.8 0 0 1-.799-.175 1.46 1.46 0 0 1-.564-.491 1.3 1.3 0 0 1-.205-.718q0-.363.137-.645t.401-.475q.27-.196.671-.295.402-.102.932-.102zm3.396-.85v3.666h-1.235v-4.624h1.158zm-.171 1.192h-.342q0-.483.116-.89.119-.41.346-.709a1.6 1.6 0 0 1 .568-.47q.338-.166.782-.166.307 0 .564.094.257.09.44.286.189.192.291.504.102.308.102.74v3.085h-1.23v-2.949q0-.316-.086-.487a.5.5 0 0 0-.243-.24.9.9 0 0 0-.372-.068.86.86 0 0 0-.419.099.83.83 0 0 0-.291.273 1.2 1.2 0 0 0-.17.402q-.056.23-.056.496m2.752-.141-.44.055q0-.453.111-.842.115-.389.338-.683.226-.296.559-.458.334-.166.77-.166.333 0 .606.098.274.094.466.303.197.206.299.539.108.333.107.816v2.953h-1.235V85.61q0-.32-.085-.487a.45.45 0 0 0-.24-.235.9.9 0 0 0-.367-.069.81.81 0 0 0-.667.33 1.1 1.1 0 0 0-.166.358 1.7 1.7 0 0 0-.056.44"/><path fill="url(#x)" d="M336.316 101.563H312a7 7 0 1 0 0 14h24.316a7 7 0 1 0 0-14"/><path fill="#fff" d="M336.316 103.037H323.79a5.526 5.526 0 1 0 0 11.053h12.526a5.528 5.528 0 0 0 0-11.053"/><path fill="#fff" fill-opacity=".1" stroke="url(#y)" d="M295.475 12.5H384c10.77 0 19.5 8.73 19.5 19.5v84c0 10.77-8.73 19.5-19.5 19.5h-79c-10.77 0-19.5-8.73-19.5-19.5V22.475c0-5.337 4.191-9.695 9.461-9.962z"/></g></g></g><defs><linearGradient id="d" x1="213" x2="212.5" y1="29" y2="230" gradientUnits="userSpaceOnUse"><stop offset=".298" stop-color="#304E96"/><stop offset="1" stop-color="#85B8F5"/></linearGradient><linearGradient id="e" x1="25.076" x2="25.076" y1="24.996" y2="107.004" gradientUnits="userSpaceOnUse"><stop offset=".298" stop-color="#9CC9C5"/><stop offset="1" stop-color="#B7F0F4"/></linearGradient><linearGradient id="f" x1="49.076" x2="49.076" y1="24.996" y2="107.004" gradientUnits="userSpaceOnUse"><stop offset=".298" stop-color="#0B1B62"/><stop offset="1" stop-color="#1A36A7"/></linearGradient><linearGradient id="g" x1="363.076" x2="363.076" y1="188.996" y2="271.004" gradientUnits="userSpaceOnUse"><stop offset=".298" stop-color="#9CC9C5"/><stop offset="1" stop-color="#B7F0F4"/></linearGradient><linearGradient id="h" x1="387.076" x2="387.076" y1="188.996" y2="271.004" gradientUnits="userSpaceOnUse"><stop offset=".298" stop-color="#0B1B62"/><stop offset="1" stop-color="#1A36A7"/></linearGradient><linearGradient id="k" x1="60" x2="69.001" y1="182.2" y2="182.2" gradientUnits="userSpaceOnUse"><stop stop-color="#2349F4"/><stop offset="1" stop-color="#4594DA"/></linearGradient><linearGradient id="l" x1="59.1" x2="69.9" y1="182.2" y2="182.2" gradientUnits="userSpaceOnUse"><stop stop-color="#2349F4"/><stop offset="1" stop-color="#4594DA"/></linearGradient><linearGradient id="n" x1="64.5" x2="64.5" y1="179.4" y2="185" gradientUnits="userSpaceOnUse"><stop stop-color="#D6D6D6"/><stop offset="1" stop-color="#fff"/></linearGradient><linearGradient id="o" x1="64.5" x2="64.5" y1="178.96" y2="185.44" gradientUnits="userSpaceOnUse"><stop stop-color="#D6D6D6"/><stop offset="1" stop-color="#fff"/></linearGradient><linearGradient id="p" x1="40.223" x2="81.024" y1="172.18" y2="254.537" gradientUnits="userSpaceOnUse"><stop stop-color="#fff"/><stop offset=".5" stop-color="#fff" stop-opacity="0"/><stop offset="1" stop-color="#fff"/></linearGradient><linearGradient id="w" x1="213" x2="212.5" y1="29" y2="230" gradientUnits="userSpaceOnUse"><stop offset=".298" stop-color="#304E96"/><stop offset="1" stop-color="#85B8F5"/></linearGradient><linearGradient id="x" x1="305" x2="343.316" y1="108.563" y2="108.563" gradientUnits="userSpaceOnUse"><stop stop-color="#2349F4"/><stop offset="1" stop-color="#4594DA"/></linearGradient><linearGradient id="y" x1="275.5" x2="373.66" y1="54.575" y2="145.563" gradientUnits="userSpaceOnUse"><stop stop-color="#fff"/><stop offset=".5" stop-color="#fff" stop-opacity="0"/><stop offset="1" stop-color="#fff"/></linearGradient><filter id="j" width="21" height="21.601" x="54" y="173.399" color-interpolation-filters="sRGB" filterUnits="userSpaceOnUse"><feFlood flood-opacity="0" result="BackgroundImageFix"/><feColorMatrix in="SourceAlpha" result="hardAlpha" values="0 0 0 0 0 0 0 0 0 0 0 0 0 0 0 0 0 0 127 0"/><feOffset dy="2"/><feGaussianBlur stdDeviation="3"/><feComposite in2="hardAlpha" operator="out"/><feColorMatrix values="0 0 0 0 0 0 0 0 0 0 0 0 0 0 0 0 0 0 0.25 0"/><feBlend in2="BackgroundImageFix" result="effect1_dropShadow_180_5522"/><feBlend in="SourceGraphic" in2="effect1_dropShadow_180_5522" result="shape"/></filter><filter id="m" width="17" height="17.6" x="56" y="175.4" color-interpolation-filters="sRGB" filterUnits="userSpaceOnUse"><feFlood flood-opacity="0" result="BackgroundImageFix"/><feColorMatrix in="SourceAlpha" result="hardAlpha" values="0 0 0 0 0 0 0 0 0 0 0 0 0 0 0 0 0 0 127 0"/><feOffset dy="2"/><feGaussianBlur stdDeviation="3"/><feComposite in2="hardAlpha" operator="out"/><feColorMatrix values="0 0 0 0 0 0 0 0 0 0 0 0 0 0 0 0 0 0 0.25 0"/><feBlend in2="BackgroundImageFix" result="effect1_dropShadow_180_5522"/><feBlend in="SourceGraphic" in2="effect1_dropShadow_180_5522" result="shape"/></filter><filter id="q" width="200" height="80" x="179" y="133" color-interpolation-filters="sRGB" filterUnits="userSpaceOnUse"><feFlood flood-opacity="0" result="BackgroundImageFix"/><feColorMatrix in="SourceAlpha" result="hardAlpha" values="0 0 0 0 0 0 0 0 0 0 0 0 0 0 0 0 0 0 127 0"/><feOffset dy="8"/><feGaussianBlur stdDeviation="10"/><feComposite in2="hardAlpha" operator="out"/><feColorMatrix values="0 0 0 0 0 0 0 0 0 0 0 0 0 0 0 0 0 0 0.1 0"/><feBlend in2="BackgroundImageFix" result="effect1_dropShadow_180_5522"/><feBlend in="SourceGraphic" in2="effect1_dropShadow_180_5522" result="shape"/></filter><filter id="r" width="221" height="80" x="129" y="183" color-interpolation-filters="sRGB" filterUnits="userSpaceOnUse"><feFlood flood-opacity="0" result="BackgroundImageFix"/><feColorMatrix in="SourceAlpha" result="hardAlpha" values="0 0 0 0 0 0 0 0 0 0 0 0 0 0 0 0 0 0 127 0"/><feOffset dy="8"/><feGaussianBlur stdDeviation="10"/><feComposite in2="hardAlpha" operator="out"/><feColorMatrix values="0 0 0 0 0 0 0 0 0 0 0 0 0 0 0 0 0 0 0.1 0"/><feBlend in2="BackgroundImageFix" result="effect1_dropShadow_180_5522"/><feBlend in="SourceGraphic" in2="effect1_dropShadow_180_5522" result="shape"/></filter><filter id="s" width="211" height="80" x="43" y="83" color-interpolation-filters="sRGB" filterUnits="userSpaceOnUse"><feFlood flood-opacity="0" result="BackgroundImageFix"/><feColorMatrix in="SourceAlpha" result="hardAlpha" values="0 0 0 0 0 0 0 0 0 0 0 0 0 0 0 0 0 0 127 0"/><feOffset dy="8"/><feGaussianBlur stdDeviation="10"/><feComposite in2="hardAlpha" operator="out"/><feColorMatrix values="0 0 0 0 0 0 0 0 0 0 0 0 0 0 0 0 0 0 0.1 0"/><feBlend in2="BackgroundImageFix" result="effect1_dropShadow_180_5522"/><feBlend in="SourceGraphic" in2="effect1_dropShadow_180_5522" result="shape"/></filter><filter id="t" width="169" height="80" x="113" y="33" color-interpolation-filters="sRGB" filterUnits="userSpaceOnUse"><feFlood flood-opacity="0" result="BackgroundImageFix"/><feColorMatrix in="SourceAlpha" result="hardAlpha" values="0 0 0 0 0 0 0 0 0 0 0 0 0 0 0 0 0 0 127 0"/><feOffset dy="8"/><feGaussianBlur stdDeviation="10"/><feComposite in2="hardAlpha" operator="out"/><feColorMatrix values="0 0 0 0 0 0 0 0 0 0 0 0 0 0 0 0 0 0 0.1 0"/><feBlend in2="BackgroundImageFix" result="effect1_dropShadow_180_5522"/><feBlend in="SourceGraphic" in2="effect1_dropShadow_180_5522" result="shape"/></filter><filter id="v" width="393" height="241" x="16" y="9" color-interpolation-filters="sRGB" filterUnits="userSpaceOnUse"><feFlood flood-opacity="0" result="BackgroundImageFix"/><feBlend in="SourceGraphic" in2="BackgroundImageFix" result="shape"/><feGaussianBlur result="effect1_foregroundBlur_180_5522" stdDeviation="10"/></filter><clipPath id="a"><path fill="#fff" d="M0 0h440v280H0z"/></clipPath></defs></svg>