<?xml version="1.0" encoding="UTF-8"?>
<svg id="Layer_2" data-name="Layer 2" xmlns="http://www.w3.org/2000/svg" viewBox="0 0 93.41 96.73">
  <defs>
    <style>
      .cls-1 {
        fill: #021806;
      }
    </style>
  </defs>
  <g id="Layer_1-2" data-name="Layer 1">
    <path class="cls-1" d="M88.97,24.56c-.66-4.92-4.3-9.05-8.82-11.14L47.25.89c-4.85-1.66-9.77-1-14.01,1.89L5.31,24.27C1.5,27.48-.54,32.38.12,37.3l4.64,34.44c1.04,4.87,4.3,9.05,8.82,11.14l32.58,12.95c4.85,1.66,10.15.95,14.01-1.89l27.94-21.49c3.81-3.21,5.84-8.11,5.18-13.03h0l-4.64-34.44.33-.43ZM77.38,35.76l-40.12,5.41c-2.27.31-4.06,1.32-5.37,3.04-2.57,3.81-3.59,10.5-3.46,14.34l39.37-5.3-1.33-9.84,11.36-1.53,2.81,20.82-62.83,8.47s-3.11-23.09,4.7-33.78c3.28-4.3,7.89-7.23,13.24-7.56l39.74-5.36,1.48,10.98.43.33Z"/>
  </g>
</svg>