<?xml version="1.0" encoding="UTF-8"?>
<svg id="Layer_1" xmlns="http://www.w3.org/2000/svg" version="1.1" viewBox="0 0 256 255">
  <!-- Generator: Adobe Illustrator 29.8.3, SVG Export Plug-In . SVG Version: 2.1.1 Build 3)  -->
  <defs>
    <style>
      .st0 {
        fill: #fff;
      }
    </style>
  </defs>
  <path class="st0" d="M18.1,127.5c0,43.3,25.2,80.7,61.6,98.4L27.6,83c-6.1,13.6-9.5,28.7-9.5,44.5h0ZM201.3,122c0-13.5-4.9-22.9-9-30.2-5.5-9-10.7-16.6-10.7-25.6s7.6-19.4,18.4-19.4.9,0,1.4,0c-19.5-17.8-45.4-28.7-73.9-28.7s-71.8,19.6-91.4,49.3c2.6,0,5,.1,7,.1,11.4,0,29.2-1.4,29.2-1.4,5.9-.3,6.6,8.3.7,9,0,0-5.9.7-12.5,1l39.8,118.5,23.9-71.8-17-46.7c-5.9-.3-11.5-1-11.5-1-5.9-.3-5.2-9.4.7-9,0,0,18.1,1.4,28.8,1.4s29.2-1.4,29.2-1.4c5.9-.3,6.6,8.3.7,9,0,0-5.9.7-12.5,1l39.5,117.6,10.9-36.5c4.7-15.1,8.3-26,8.3-35.4h0ZM129.4,137.1l-32.8,95.4c9.8,2.9,20.2,4.5,30.9,4.5s25-2.2,36.3-6.2c-.3-.5-.6-1-.8-1.5l-33.6-92.1h0ZM223.5,75c.5,3.5.7,7.2.7,11.2,0,11.1-2.1,23.6-8.3,39.2l-33.4,96.6c32.5-19,54.4-54.2,54.4-94.5,0-19-4.9-36.9-13.4-52.5h0ZM127.5,0C57.2,0,0,57.2,0,127.5s57.2,127.5,127.5,127.5,127.5-57.2,127.5-127.5C255,57.2,197.8,0,127.5,0h0ZM127.5,249.2c-67.1,0-121.7-54.6-121.7-121.7S60.4,5.8,127.5,5.8s121.7,54.6,121.7,121.7-54.6,121.7-121.7,121.7h0Z"/>
</svg>